<?xml version="1.0" encoding="utf-8"?>
<!-- Generator: Adobe Illustrator 20.1.0, SVG Export Plug-In . SVG Version: 6.00 Build 0)  -->
<svg version="1.1" id="Layer_1" xmlns="http://www.w3.org/2000/svg" xmlns:xlink="http://www.w3.org/1999/xlink" x="0px" y="0px" viewBox="0 0 210 180" style="enable-background:new 0 0 210 180;" xml:space="preserve">

    <g transform="translate(30,20)">
        <circle r="2" class="player-circle" data-id="player-0" cx="72.15686274509804" cy="71.99999999999996"></circle><circle r="2" class="player-circle" data-id="player-1" cx="87.84313725490196" cy="91.99999999999991"></circle><circle r="2" class="player-circle" data-id="player-2" cx="94.11764705882354" cy="103.99999999999994"></circle><circle r="2" class="player-circle" data-id="player-3" cx="75.29411764705883" cy="79.99999999999989"></circle><circle r="2" class="player-circle" data-id="player-4" cx="28.23529411764706" cy="71.99999999999996"></circle><circle r="2" class="player-circle" data-id="player-5" cx="134.90196078431373" cy="59.99999999999994"></circle><circle r="2" class="player-circle" data-id="player-6" cx="43.92156862745098" cy="87.9999999999999"></circle><circle r="2" class="player-circle" data-id="player-7" cx="94.11764705882354" cy="67.99999999999994"></circle><circle r="2" class="player-circle" data-id="player-8" cx="50.19607843137255" cy="79.99999999999989"></circle><circle r="2" class="player-circle" data-id="player-9" cx="122.35294117647058" cy="91.99999999999991"></circle><circle r="2" class="player-circle" data-id="player-10" cx="15.686274509803921" cy="111.99999999999994"></circle><circle r="2" class="player-circle" data-id="player-11" cx="119.2156862745098" cy="31.999999999999886"></circle><circle r="2" class="player-circle" data-id="player-12" cx="62.745098039215684" cy="59.99999999999994"></circle><circle r="2" class="player-circle" data-id="player-13" cx="40.78431372549019" cy="103.99999999999994"></circle><circle r="2" class="player-circle" data-id="player-14" cx="112.94117647058825" cy="43.9999999999999"></circle><circle r="2" class="player-circle" data-id="player-15" cx="34.50980392156863" cy="91.99999999999991"></circle><circle r="2" class="player-circle" data-id="player-16" cx="119.2156862745098" cy="31.999999999999886"></circle><circle r="2" class="player-circle" data-id="player-17" cx="122.35294117647058" cy="31.999999999999886"></circle><circle r="2" class="player-circle" data-id="player-18" cx="119.2156862745098" cy="19.999999999999943"></circle><circle r="2" class="player-circle" data-id="player-19" cx="112.94117647058825" cy="83.99999999999989"></circle><circle r="2" class="player-circle" data-id="player-20" cx="119.2156862745098" cy="83.99999999999989"></circle><circle r="2" class="player-circle" data-id="player-21" cx="81.56862745098039" cy="71.99999999999996"></circle><circle r="2" class="player-circle" data-id="player-22" cx="47.05882352941177" cy="71.99999999999996"></circle><circle r="2" class="player-circle" data-id="player-23" cx="90.98039215686273" cy="47.9999999999999"></circle><circle r="2" class="player-circle" data-id="player-24" cx="21.96078431372549" cy="103.99999999999994"></circle><circle r="2" class="player-circle" data-id="player-25" cx="87.84313725490196" cy="71.99999999999996"></circle><circle r="2" class="player-circle" data-id="player-26" cx="84.70588235294117" cy="59.99999999999994"></circle><circle r="2" class="player-circle" data-id="player-27" cx="90.98039215686273" cy="83.99999999999989"></circle><circle r="2" class="player-circle" data-id="player-28" cx="47.05882352941177" cy="71.99999999999996"></circle><circle r="2" class="player-circle" data-id="player-29" cx="37.64705882352941" cy="67.99999999999994"></circle><circle r="2" class="player-circle" data-id="player-30" cx="47.05882352941177" cy="91.99999999999991"></circle><circle r="2" class="player-circle" data-id="player-31" cx="131.76470588235293" cy="95.99999999999991"></circle><circle r="2" class="player-circle" data-id="player-32" cx="106.66666666666666" cy="83.99999999999989"></circle><circle r="2" class="player-circle" data-id="player-33" cx="81.56862745098039" cy="71.99999999999996"></circle><circle r="2" class="player-circle" data-id="player-34" cx="69.01960784313727" cy="71.99999999999996"></circle><circle r="2" class="player-circle" data-id="player-35" cx="144.31372549019608" cy="71.99999999999996"></circle><circle r="2" class="player-circle" data-id="player-36" cx="128.62745098039215" cy="103.99999999999994"></circle><circle r="2" class="player-circle" data-id="player-37" cx="43.92156862745098" cy="71.99999999999996"></circle><circle r="2" class="player-circle" data-id="player-38" cx="40.78431372549019" cy="91.99999999999991"></circle><circle r="2" class="player-circle" data-id="player-39" cx="21.96078431372549" cy="83.99999999999989"></circle><circle r="2" class="player-circle" data-id="player-40" cx="21.96078431372549" cy="119.99999999999996"></circle>
        <g transform="translate(0,140)">
            <g marker-end="url(#markerArrowRight)">
                <g>
                    <line class="st1" x1="-23.1" y1="13.5" x2="151.9" y2="13.5" />
                    <g>
                        <polygon class="st2" points="150.2,19.2 160.1,13.5 150.2,7.8  " />
                    </g>
                </g>
            </g>
        </g>
        <g>
            <g marker-end="url(#markerArrowTop)">
                <g>
                    <line class="st1" x1="-23.1" y1="153.5" x2="-23.1" y2="1.5" />
                    <g>
                        <polygon class="st2" points="-17.4,3.1 -23.1,-6.8 -28.8,3.1 " />
                    </g>
                </g>
            </g>
        </g>
    </g>
    <text transform="matrix(1 0 0 1 153.3332 161.6663)" class="st2 st3 st4">weight</text>
    <text transform="matrix(1 0 0 1 18.6665 23.6663)" class="st2 st3 st4">height</text>
</svg>