<svg xmlns="http://www.w3.org/2000/svg" xmlns:xlink="http://www.w3.org/1999/xlink" version="1.1" id="Layer_1" x="0px" y="0px" viewBox="0 0 140 120" xml:space="preserve" enable-background="new 0 0 140 120"><g transform="translate(30,20)"><line id="yaLine" class="st0" x1="-25.4" y1="-5.1" x2="-8.7" y2="-5.1"/><line id="xaLine" class="st0" x1="-25.4" y1="-5.1" x2="-8.7" y2="-5.1"/><circle cx="41.7" cy="38.3" r="1.4"/><circle cx="52.7" cy="52.2" r="1.4"/><circle cx="57.1" cy="60.6" r="1.4"/><circle cx="43.9" cy="43.9" r="1.4"/><circle cx="11.1" cy="38.3" r="1.4"/><circle cx="85.6" cy="29.9" r="1.4"/><circle cx="22" cy="49.4" r="1.4"/><circle cx="57.1" cy="35.5" r="1.4"/><circle cx="26.4" cy="43.9" r="1.4"/><circle cx="76.8" cy="52.2" r="1.4"/><circle cx="2.3" cy="66.2" r="1.4"/><circle cx="74.6" cy="10.3" r="1.4"/><circle cx="35.2" cy="29.9" r="1.4"/><circle cx="19.8" cy="60.6" r="1.4"/><circle cx="70.2" cy="18.7" r="1.4"/><circle cx="15.4" cy="52.2" r="1.4"/><circle cx="74.6" cy="10.3" r="1.4"/><circle cx="76.8" cy="10.3" r="1.4"/><circle cx="74.6" cy="1.9" r="1.4"/><circle cx="70.2" cy="46.7" r="1.4"/><circle cx="74.6" cy="46.7" r="1.4"/><circle cx="48.3" cy="38.3" r="1.4"/><circle cx="24.2" cy="38.3" r="1.4"/><circle cx="54.9" cy="21.5" r="1.4"/><circle cx="6.7" cy="60.6" r="1.4"/><circle cx="52.7" cy="38.3" r="1.4"/><circle cx="50.5" cy="29.9" r="1.4"/>    <circle cx="54.9" cy="46.7" r="1.4"/><circle cx="24.2" cy="38.3" r="1.4"/><circle cx="17.6" cy="35.5" r="1.4"/><circle cx="24.2" cy="52.2" r="1.4"/><circle cx="83.4" cy="55" r="1.4"/><circle cx="65.9" cy="46.7" r="1.4"/><circle cx="48.3" cy="38.3" r="1.4"/><circle cx="39.6" cy="38.3" r="1.4"/><circle cx="92.2" cy="38.3" r="1.4"/><circle cx="81.2" cy="60.6" r="1.4"/><circle cx="22" cy="38.3" r="1.4"/><circle cx="19.8" cy="52.2" r="1.4"/><circle cx="6.7" cy="46.7" r="1.4"/><circle cx="6.7" cy="71.8" r="1.4"/><circle id="highlightCircle" cx="300" cy="240" r="3"/><g transform="translate(0,140)"><g marker-end="url(#markerArrowRight)"><g><line class="st0" x1="-24.8" y1="-44.8" x2="97.5" y2="-44.8"/><g><polygon points="96.3 -40.8 103.2 -44.8 96.3 -48.8 "/></g></g></g></g><g><g marker-end="url(#markerArrowTop)"><g><line class="st0" x1="-24.8" y1="95.2" x2="-24.8" y2="-11"/><g><polygon points="-20.8 -9.9 -24.8 -16.8 -28.8 -9.9 "/></g></g></g></g></g><text id="weight-text" transform="matrix(1 0 0 1 104.3332 105.6663)" class="st1 st2">weight</text><text id="height-text" transform="matrix(1 0 0 1 15.6665 10.6663)" class="st1 st2">height</text></svg>