<?xml version="1.0" encoding="utf-8"?>
<!-- Generator: Adobe Illustrator 16.0.1, SVG Export Plug-In . SVG Version: 6.00 Build 0)  -->
<!DOCTYPE svg PUBLIC "-//W3C//DTD SVG 1.1//EN" "http://www.w3.org/Graphics/SVG/1.1/DTD/svg11.dtd">
<svg version="1.1" id="Layer_1" xmlns="http://www.w3.org/2000/svg" xmlns:xlink="http://www.w3.org/1999/xlink" x="0px" y="0px"
	 width="200px" height="200px" viewBox="0 0 200 200" enable-background="new 0 0 200 200" xml:space="preserve">
<symbol  id="rose_1_" viewBox="-65.584 -78.056 131.168 156.112">
	<path fill="#FFFFFF" d="M-40.061,11.183c1.066-3.055,4.348-3.762,7.734-4.18c5.516-0.734,3.641-0.543,6.434-1.18
		c1.625-0.402,4.586-2.641,6.781-0.402c2.25,2.234,3.762,4.902,3.762,4.902s3.336-6.586,7.004-6.586c3.68,0,9.168-0.555,13.238,2.57
		c4.043,3.125,5.777,3.695,5.32,7.07c-0.516,4.559-2.68,6.711-2.68,6.711s-3.102-2.391-5.781-2.152
		c-2.875,0.168-5.836,2.625-5.836,2.625s-5.695-4.32-7.918-4.418c-3.473-0.109-4.293,0.375-7.109,3.07
		c-2.629,2.543-10.031,3.473-11.961,5.934c-2.016,2.473-2.254,4.723-1.961,8.902c0.457,5.961-1.223,9.168-1.223,9.168
		s-4.238,1.488-7-1.082c-2.141-1.973-3.723-5.934-3.559-9.223c0.195-3.879,4.293-5.016,4.809-10.988
		C-39.604,17.839-41.506,15.046-40.061,11.183z"/>
	<path fill="#FFFFFF" d="M34.064,31.952c-0.32,4.293-3.418,6.684-5.5,7.266c-2,0.527-4.586,0.418-4.586,0.418h-4.043
		c0,0-1.441-1.793-1.332-3.652c0.109-1.238-0.793-4.641-2.473-7.738c-1.652-2.973-6.434-6.559-6.434-6.559s1.598-1.875,2.336-4.973
		c0.93-3.543,0.734-5.336,0.734-5.336s5.641-4.027,9.906-2.762c4.75,1.387,5.348,4.484,5.461,6.305
		c0.094,1.902-1.473,4.348,0.75,6.711C30.396,23.077,34.58,25.854,34.064,31.952z"/>
	<path fill="#FFFFFF" d="M-3.748-13.767l1.82-1.984L0.1-16.767l3.391,4.836c0,0-2.113-1.711-4.043-1.945
		C-2.693-14.169-3.748-13.778-3.748-13.767z"/>
	<path fill="#FFFFFF" d="M23.064-3.985c3.82,2.445,2.93,5.766,7.918,6.32c5,0.527,9.988,0.238,10.5,7.211
		c0.168,1.902-0.348,3.555-0.348,3.555s-3.652-0.039-5.609,0c-2.281,0.027-4.727,0.098-4.727,0.098s-0.332-1.957-1.957-4.391
		c-1.363-2.137-5.32-3.137-8.281-3.137c-3.902,0-8.43,3.137-8.43,3.137L10.74,7.644c0,0,2.055-3.504,2.25-6.602
		c0.168-2.305-0.625-4.762-0.625-4.762S18.713-6.888,23.064-3.985z"/>
	<path fill="#FFFFFF" d="M18.24-7.349c0,0-2.734,0.184-4.07,0.598c-1.902,0.559-3.012,1.223-3.012,1.223S10.1-7.11,8.795-8.626
		c-1.25-1.457-3.125-3.055-3.125-3.055l-1.957-3.168c-1.113-1.516-1.848-2.793-1.848-2.793s3.789-0.348,7.484,0.875
		c3.043,1.098,5.238,3.363,5.238,3.363l-0.945,0.262l1.418,1.32C17.24-9.446,18.24-7.349,18.24-7.349z"/>
	<path fill="#FFFFFF" d="M51.541-6.778c-5.57,1.223-9.418,0.555-9.418,0.555l1.707,3.879c0,0-9.766-0.152-16.113-6.793
		c-3.75-3.906-4.863-8.547-4.863-8.547s0.793,0,2.988,0.125c2.277,0.031,3.555,0.031,3.555,0.031s4.625,3.43,7.82,4.348
		c3.254,0.957,7.004,1.109,7.004,1.109s-4.098-1.25-7.195-2.609c-3.016-1.266-4.07-3.184-4.07-3.184s3.723-0.18,5.891-0.445
		c2.277-0.277,5.125-1.555,5.125-1.555s2.125,1.016,5.43,0.75c5.504-0.484,7.238-2.918,7.238-2.918s-2.625,1-5.668,0.875
		c-2.027-0.066-3.445-0.707-3.445-0.707s4.473-1.043,8.57-7.32c3.641-5.754,3.727-10.949,3.727-10.949s-2.418,6.324-5.238,9.988
		c-4.016,5.004-7.141,6.352-7.141,6.352s0.832-1.906,1.484-4.363c1.016-3.711,0.793-7.168,0.793-7.168s-0.512,3.277-2.195,6.793
		c-1.68,3.75-2.793,5.25-5.891,6.695c-4.18,2.098-9.473,1.641-9.473,1.641s2.68-2.25,5.863-6.641
		c2.223-3.07,3.527-6.488,3.527-6.488s-3.82,4.668-6.695,7.641c-3.375,3.402-6.629,5.945-6.629,5.945l-5.5-0.277
		c0,0,0.07-5.07,2.652-9.113c2.195-3.43,8.172-6.766,8.172-6.766l0.289,2.488c0,0,2.559-2.598,5.781-4.504
		c3.234-1.957,6.625-3.234,6.625-3.234l0.223,2.387c0,0,1.391-0.93,3.582-1.875l3.754-1.25l-0.223,2.738c0,0,2.25-0.891,4.805-3.973
		c2.559-3.113,4.238-4.684,4.238-4.684s0.293,2.57,0.348,5.184c0.109,3.359-0.57,5.863-0.57,5.863l3.18-1.711
		c0,0-0.402,3.684-2.137,7.848c-1.711,3.906-1.934,5.836-1.934,5.836l1.711-0.18c0,0-0.988,3.793-2.613,7.418
		c-0.957,1.945-2.582,4.141-2.582,4.141l1.707,0.984C59.736-12.419,56.404-7.903,51.541-6.778z"/>
	<path fill="#FFFFFF" d="M-50.967-19.864c2.555-2.766,5.375-3.945,5.375-3.945l-2.766-0.766c0,0,1.57-2.93,5.863-5.027
		c3.445-1.68,7.629-0.418,7.629-0.418l-1.113-2.777c0,0,4.152-0.902,8.281,0.555c3.805,1.461,7,4.754,7,4.754
		s-1.125,1.609-2.609,3.055l-2.223,1.863c0,0-1.848-1.391-3.695-1.836c-3.613-0.984-7.004-0.668-7.004-0.668
		s3.613,0.934,5.098,1.613c2.934,1.195,3.754,2.238,3.754,2.238s-0.598,0.332-2.086,1.375l-1.766,1.039c0,0-1.707-1-3.527-1.484
		c-3.016-0.848-6.652-0.488-6.652-0.488s2.777,0.641,4.32,1.348c2.484,1.184,3.277,2.016,3.277,2.016l-3.875,2.25
		c0,0-1.184-1.168-3.195-1.57c-1.973-0.473-4.391,0-4.391,0s1.793,0.336,3.723,1.098l2.016,1.445c0,0-1.793,0.82-4.445,2.875
		c-3.586,2.793-4.016,5.223-4.016,5.223s1.859-1.887,5.527-3.805c2.766-1.5,3.879-1.82,3.879-1.82l0.219,1.668l-0.316,2.027
		c0,0,0.945-0.641,1.625-2.027c0.707-1.445,0.625-2.836,0.625-2.836s0.984-0.414,2.527-1.305l2.5-1.305l0.875,1.125l0.652,2.457
		l0.461-2.348l0.082-2.359l3.07-2.336l0.57,2.668c0.195,1.902-0.055,4.363-0.055,4.363s1.18-2.32,1.457-4.836
		c0.223-2.098-0.043-3.707-0.043-3.707s0.961-0.934,2.418-2.168c2.277-2.043,2.988-3.125,2.988-3.125s2.305,2.098,3.555,5.445
		c0.973,2.387,0.711,6.738-1.793,8.848c-1.984,1.598-4.32,1.711-7.082,1.711c-2.766,0-6.461-1.348-10.906,0.789
		c-4.336,2.059-4.586,5.684-4.586,5.684s-3.762-1.809-7.348-1.141c-3.32,0.695-4.863,2.695-4.863,2.695s-0.512-2.207-0.137-4.391
		c0.375-2.32,1.484-3.805,1.484-3.805l-3.039,1.234l0.484-2.914c0.484-1.934,2.055-3.504,2.055-3.504l-3.609,0.402
		C-54.717-14.712-52.537-18.114-50.967-19.864z"/>
	<path fill="#FFFFFF" d="M31.369-43.981c-1.68,2.57-2.223,3.961-2.223,3.961l2.027-0.293c0,0-1.125,2.75-3.152,5.031
		c-1.445,1.625-4.125,3.277-4.125,3.277l-0.113,0.734c0,0-1.707,3.086-3.305,4.043C13.881-23.087,8.643-25.2,8.643-25.2l-1.82-0.93
		l2.875-2.5c0,0,2.445,0.266,5.156-0.348c3.293-0.734,4.859-2.68,4.859-2.68s-2.223,1.195-4.777,1.527
		c-2.766,0.332-3.555-0.457-3.555-0.457l3.875-4.641c0,0,3.207,0.164,7.055-2.027c3.07-1.754,4.809-5.434,4.809-5.434
		s-2.277,2.211-4.445,3.445c-2.961,1.793-5.402,1.543-5.402,1.543l3.473-4.348c0,0,1.984-0.223,4.32-2.238
		c2.18-1.793,3.07-5.055,3.07-5.055s-1.879,2.625-3.504,3.777l-2.082,0.832c0,0,1.918-3.223,2.652-5.25
		c0.711-2,1.82-7.848,1.82-7.848s-2.277,5.695-3.957,8.707c-1.668,2.918-3.129,4.699-3.129,4.699s-0.402-0.113-0.652-1.781
		c-0.289-1.805,0.168-3.68,0.168-3.68s-1.027,0.348-1.543,3.473c-0.543,3.18,0.055,4.027,0.055,4.027l-2.848,3.934
		c0,0-0.945-1.059-1.055-3.668c-0.168-2.238,0.109-5.223,0.109-5.223s-1.484,3.598-1.594,6.652c-0.059,2.223,0.289,4.5,0.289,4.5
		l-3.902,4.656c0,0-0.5-1.25-0.848-3.238c-0.57-3.609,0-5.918,0-5.918s-0.973,0.723-1.223,3.613
		c-0.348,3.859-0.027,4.277,0.141,5.613l-0.195,2.348l-1.934,1.625c-1.484-0.402-2.652-1.625-3.82-4.043
		c-1.082-2.57-0.973-5.543-0.973-5.543l3.102,2.945c0,0-0.906-2.25-1.363-4.891c-0.516-3.113,0.402-5.348,0.402-5.348l1.625,1.832
		c0,0-0.082-3.043,0.918-5.832c0.625-1.629,2.738-4.129,2.738-4.129l0.844,2.07c0,0,1.141-1.902,3.793-4.305
		c1.586-1.375,4.809-2.711,4.809-2.711l-0.223,1.641c0,0,3.988-0.723,6.75-2.418c2.766-1.641,5.379-5.527,5.379-5.527
		s1.332,1.75,1.902,5.82c0.375,2.652,0,3.625,0,3.625l0.707-0.277c0,0,0.141,1.555,0,3.484c-0.109,2.461-0.598,3.656-0.582,3.684
		l2.027-0.527C32.939-47.938,32.287-45.466,31.369-43.981z"/>
	<path fill="#FFFFFF" d="M4.725-52.579c0,0-1.277,4.32-4.043,8.195c-1.18,1.711-3.793,3.25-3.793,3.25l1.766,0.598
		c0,0-3.113,1-6.75,1c-3.559,0-6.918-1.305-6.918-1.305s1.109-0.777,2.734-2.555c1.238-1.418,2.027-2.684,2.027-2.684
		s2.809,0.098,4.836-1.387c2.25-1.656,3.988-4.32,3.988-4.32s-2.406,2.039-4.418,3.082c-2.5,1.375-3.391,0.93-3.391,0.93
		s0.707-1.18,1.445-3.012c0.93-2.266,1.359-3.934,1.359-3.934s1.379,0.098,3.281-1.43l2.223-2.93c0,0-1.25,1.066-2.559,1.777
		l-2.445,0.484c0,0,0.375-1.445,0.516-4.055c0.223-3.543-0.625-7.059-0.625-7.059s0.082,3.125-0.348,5.711
		c-0.527,3.168-1.418,4.625-1.418,4.625l-1.25-2.168l-0.973-3.262c0,0-0.277,1.902,0,4.207c0.309,2.016,1.223,3.695,1.223,3.695
		l-0.82,2.527c-0.957,2.656-1.844,4.059-1.844,4.059l-1.656-2.043l-1.387-4.348l0.43,4.777c0.457,1.988,1.707,3.156,1.707,3.156
		s-0.598,1.18-1.957,2.973l-2.555,2.109c0,0-2.086-1.152-3.531-3.609c-2.637-4.32-1.93-7.004-1.93-7.004l2.109,0.641
		c0,0-0.402-1.57-0.484-5.168c-0.082-3.027,1.625-6.891,1.625-6.891l1.738,2.859c0,0,0.375-3.609,1.082-5.637
		c1.598-4.309,3.875-4.016,3.875-4.016l0.168,2.125c0,0,3.391-1.832,4.777-4.684c1.195-2.375,0.543-4.762,0.543-4.762
		s4.336,2.512,6.266,8.723c1.457,4.641,0.918,7.656,0.918,7.656l2.473-2.754c0,0,0.598,4.102,0.484,6.641
		c-0.027,2.625-0.305,6.031-0.262,6.031L4.725-52.579z"/>
	<path fill="#FFFFFF" d="M-28.447,46.554c-2.445-0.652-3.418-2.141-2.906-3.516c0.461-1.152,0.836-2.945,0.945-6.902
		c0.027-2.918-1.223-7.199,1.961-9.738c3.082-2.598,7.348-2.113,10.738-5.031c2.043-1.637,3.723-3.668,7.223-1.762
		c2.848,1.441,4.125,2.805,4.125,2.805l-1.484,1.766c0,0-4.211,0-6.977,2.5c-2.832,2.473-1.691,3.195-3.723,4.805
		c-1.984,1.516-3.957,1.793-4.723,5.613c-0.777,4.625,0.141,9.031,0.141,9.031S-26.572,47.054-28.447,46.554z"/>
	<path fill="#FFFFFF" d="M-1.639,58.151c0,0,1.738-0.305,3.641-0.305c1.848-0.039,2.988,0.18,8.086,0.402
		c3.473,0.141,5.043-1.414,5.555-2.609c1.113-2.406,0.406-3.684,0.598-5.586c0.141-1.891,3.281-1.973,4.613-3.766
		c1.25-1.914,0.25-4,0.25-4l4.184-0.043h2.137c0,0,1.141,1.125,1.793,2.641l1.055,2.113c0,0-1.637,0.289-2.555,2.07
		c-0.707,1.566,0.848,2.875,0.387,4.375c-0.691,2.207-1.707,1.082-5.527,2.984c-4.641,2.266-3.988,5.949-6.75,6.754
		C8.85,65.237,5.654,63.765,2.725,62.378C-0.33,60.874-1.639,58.151-1.639,58.151z"/>
	<path fill="#FFFFFF" d="M7.018,75.991c-2.586,1.289-3.293-0.598-5.32-0.277c-1.223,0.137-0.738,2.277-4.668,2.098
		c-2.375-0.125-3.652,0.723-5.5-0.168c-0.738-0.402-1.309-1.113-0.723-2.777c0,0,3.223-2.043,5.125-4.598
		c2.613-3.461,2.445-8.172,2.445-8.172s2.109,1.945,4.445,2.988c1.527,0.793,3.613,1.168,3.613,1.168l2.027,4.766
		C8.463,71.019,10.17,74.308,7.018,75.991z"/>
	<path fill="#FFFFFF" d="M14.479,47.694c-1.5,2.832-0.418,5.887-1.391,6.875c-2.109,2.25-8,0.762-8,0.762s0-2.984,0.457-4.207
		c0.82-2.613,1.707-1.043,3.668-4.043c1.957-2.918,1.766-10.059,0.234-13.602c-1.957-4.332-6.516-6.805-8.363-7.848
		c-1.734-1-3.18,0.668-3.18,0.668l-1.195-0.555l-1.652-0.598c0,0,1.516-1.906,2.902-3.016c1.059-0.777,3.25-1.777,5.184-1.07
		c2.473,0.805,8.375,4.391,10.961,8.738c2.57,4.277,1.539,6.309,2.652,8.82c1.195,2.684,2.223,3.531,1.738,5.504
		C17.896,47.065,15.674,45.315,14.479,47.694z"/>
	<path fill="#FFFFFF" d="M-17.514,73.183c-3.293-1.914-8.629-5.125-11.809-6.582c-3.098-1.543-7.711-3.031-7.711-3.031
		s-6.434-2.164-11.391-2.348c-4.156-0.18-7.602-0.18-8.141-3.484c-0.418-2.57-1.473-9.793,1.457-10.906c0,0,4.07,0.109,6.434-0.891
		c2.652-1.137,4.93-2.375,4.93-2.375s2.988,2.695,5.809,2.891c2.734,0.18,4.391-0.723,4.391-0.723s1.457,2.586,4.387,3.113
		c2.988,0.598,6.516-0.336,6.516-0.336s0.75,2.973,2.738,4.07c1.707,0.848,3.875,3.309,5.527,4.613c1.641,1.266,4.07,2.332,6.031,2
		c2.07-0.375,3.695-0.734,3.695-0.734s1.332,4.527-0.113,7.555C-7.557,71.905-11.6,73.03-11.6,73.03S-14.584,74.851-17.514,73.183z"
		/>
	<path fill="#FFFFFF" d="M35.287,61.933c-2.68,1.262-6.613,2.668-9.598,5.902c-4.293,4.625-5.043,6.016-9.309,6.016
		c-2,0-3.125-1.055-4.586-2.516c-1.473-1.441-2.539-4.75-2.539-4.75s6.695,0.332,9.652-2.043c2.293-1.914,1.473-3.625,4.348-5.734
		c2.016-1.504,6.945-0.906,7.711-3.336c0.738-2.375-0.082-3.652-0.082-3.652l-0.293-2.168c1.113-1.07,2.695,0,4.266,0.68
		c2.598,1.07,4.902,2.418,5.043,5.141C40.123,58.249,38.053,60.667,35.287,61.933z"/>
	<path fill="#FFFFFF" d="M-62.498,40.593c-2.57-3.723-4.305-6.445-2.027-12.141c2.195-5.543,7.184-9.004,10.309-13.293
		c2.582-3.461-0.57-8.211,4.641-12.949c2.012-1.793,6.43-2.793,10.641-1.234c2.277,0.816,5.012,3.875,5.012,3.875
		s-2.555,0.25-4.039,0.875c-1.711,0.707-3.195,2.098-3.195,2.098c-3.504,3.516-1.293,8.891-1.488,12.918
		c-0.152,3.5-1.293,4.961-3.277,7.379c-2.016,2.387-1.793,4.43-1.305,8.668c0.414,2.832,1.984,4.391,1.984,4.391
		s-3.445,1.707-6.027,2.164c-2,0.336-3.793,0.488-3.793,0.488S-59.885,44.315-62.498,40.593z"/>
	<path fill="#FFFFFF" d="M-32.436-7.513c6.488-1.906,8.309,2.762,16.422-0.777c6.234-2.711,15.141-5.711,19.891-1.445
		c4.781,4.262,5.434,6.043,5.434,6.043s1.445,2.527,1.223,5.5C10.42,3.671,8.85,6.237,8.85,6.237s-2.098-1.832-4.207-3.18
		c-2.875-1.75-5.945-1.57-10.418-1.863c-7.379-0.414-9.363,4.406-9.363,4.406s-1.543-2.098-3.961-3.32
		c-2.43-1.32-5.391,0.512-7.293,1.152c-1.988,0.598-4.805,0.777-4.805,0.777l-2.473-2.609l-3.184-2.684
		C-36.854-1.083-38.131-5.876-32.436-7.513z"/>
	<path fill="#FFFFFF" d="M3.779,48.694c-0.832,2.191-0.973,6.332-0.973,6.332s-3.137,0.043-5.012,0.543
		c-1.891,0.473-4.988,1.484-7.266,1.223c-1.848-0.277-4.129-2.125-5.727-3.57c-2.734-2.488-4.414-2.875-5.043-6.125
		c-0.43-2.57-1.164-8.406,0.488-10.52c1.902-2.5,3.223-2.234,4.555-4.598c1.266-2.387,1.434-4,5.613-4.848
		c3.211-0.723,7.059,2.43,7.059,2.43l2.5-1.125c1.543,0.223,5.641,3.227,6.918,5.738c1.68,3.211,1.527,7.988,0.734,10.141
		C6.713,47.065,4.627,46.456,3.779,48.694z"/>
	<path fill="#FFFFFF" d="M38.064,49.069l-5.348-2.113l-1.082-2.363c-0.848-1.816-1.848-2.68-1.848-2.68s1.57-0.305,4.07-2.695
		c2.484-2.418,3.082-5.973,2.734-10.406c-0.348-4.43-3.875-7.668-5.152-8.695c-1.848-1.457-0.793-4.332-0.793-4.332
		s3.211-0.07,5.32-0.07c2.75,0,4.238,0.07,4.238,0.07s4.25,2.875,3.848,7.832c-0.207,3.363-0.348,6.668,0.168,9.809
		c0.543,3.098,2.598,6.195-0.652,11.449C40.689,49.413,38.053,49.069,38.064,49.069z"/>
	<path fill="#FFFFFF" d="M-43.479-58.052c0,0,3.234,4.098,7.766,8.93c3.137,3.32,6.652,6.281,9.793,7.211s6.891,0.238,6.891,0.238
		l2.418,1.332c0,0-3.504,0.82-6.266,0.641c-2.5-0.168,0.57,2.109,0.57,2.109s2.387,2.277,7.598,5.445
		c5.125,3.141,10.043,4.945,12.863,5.988c1.5,0.555,6-0.555,6-0.555l1.906,1.027l-1.656,0.457c-1.93,0.375-0.539,1.25-0.539,1.25
		s3.152,1.309,7.738,2.434c4.777,1.223,9.793,1.484,9.793,1.484l0.164,2.016c0,0-5.43-0.555-10.527-2.016
		c-5.211-1.512-8.418-2.582-10.672-3.5c-2.68-1.109-1.914,0.25-1.484,0.957c0.277,0.559,0.734,1.238,1.391,2.586l0.816,1.641
		l-1.223,0.625l-0.914-1.934c-0.766-1.555-1.527-2.918-2.418-3.875c-2.5-2.832-4.668-3.945-7.195-4.988
		c-4.516-1.914-2.5,0.641-2.5,0.641s2.5,3.055,4.777,7.488c1.82,3.457,2.305,7.016,2.305,7.016l-1.191,0.195
		c0,0-0.336-3.336-1.82-6.391c-2.32-4.695-3.973-6.559-6.086-8.391c-1.707-1.488-2.711,0.484-2.711,0.484l-0.734,0.957l-1.391-1.375
		c0,0,0.5-0.637,0.848-2.25c0.402-1.723-1.277-2.984-1.277-2.984s-2.82-2.016-7.027-5.559c-4.195-3.43-9.738-8.516-14.215-11.75
		c-5.18-3.852-13.668-6.766-13.668-6.766L-43.479-58.052z"/>
</symbol>
<g id="rose">
	
		<use xlink:href="#rose_1_"  width="131.168" height="156.112" id="XMLID_1_" x="-65.584" y="-78.056" transform="matrix(1 0 0 -1 100 100)" overflow="visible"/>
</g>
</svg>
