<?xml version="1.0" encoding="utf-8"?>
<!-- Generator: Adobe Illustrator 16.0.1, SVG Export Plug-In . SVG Version: 6.00 Build 0)  -->
<!DOCTYPE svg PUBLIC "-//W3C//DTD SVG 1.1//EN" "http://www.w3.org/Graphics/SVG/1.1/DTD/svg11.dtd">
<svg version="1.1" id="Layer_1" xmlns="http://www.w3.org/2000/svg" xmlns:xlink="http://www.w3.org/1999/xlink" x="0px" y="0px"
	 width="200px" height="200px" viewBox="0 0 200 200" enable-background="new 0 0 200 200" xml:space="preserve">
<symbol  id="ireland-quarter" viewBox="-73.087 -43.15 128.569 150.895">
	<path fill="#FFFFFF" d="M-70.313,19.139c3.195-11.43,7.406-19.766,13.156-26.879c5.723-7.184,12.918-13.141,22.004-19.836
		c13.699-10.227,24.602-14.922,26.48-15.574c1.625,0.652,12.5,5.348,26.269,15.574c9.055,6.68,16.281,12.652,21.977,19.836
		c5.777,7.113,9.988,15.434,13.098,26.879c6.668,24.312-0.32,51.262-2.625,61.668c-3.07,14.031,0.516,26.938,0.516,26.938
		s-15.629-8.434-29.383-8.434c-14.836,0-28.004,7.281-29.839,8.434l-0.195-0.141c-1.875-1.012-15.059-8.309-29.922-8.309
		c-13.754,0-29.324,8.434-29.324,8.434s3.527-12.918,0.512-26.938C-69.883,70.416-76.954,43.451-70.313,19.139 M6.8,18.389
		C-1.591,11.111-7.798,1.385-8.508-1.877C-8.856-3.518-9.27-5.115-9.356-7.725c-0.109-1.281-0.055-2.781,0.086-4.641
		c0.402-3.988,1.055-8.004,1.055-8.004s-2.027,3.656-5.461,6.809c-3.125,2.82-5.207,3.902-5.207,3.902s0.512,0.488,0.68,1.934
		c0.223,1.598,0.055,4.387-1.625,9.082c-1.305,3.641-3.5,10.004-9.004,16.84c-4.555,5.777-8.027,7.695-8.027,7.695l-0.25,2.293
		c0,0,4.668-2.57,9.625-8.863c4.32-5.531,6.516-10.461,7.891-13.922c1.461-3.637,3.363-9.336,5.918-4.348
		c2.586,4.973,1.277,2.402,1.277,2.402s7.835,14.367,9.14,32.758c1.059,15.254-0.762,28.23-0.762,28.23l1.875-0.32
		c0,0,1.82-11.531,0.82-28.395C-2.243,20.084-8.672,5.291-8.672,5.291s0.027-2.069,1.652,0.234l1.109,1.446
		c0,0,4.016,5.89,10.477,11.792c6.43,5.906,15.309,10.754,15.309,10.754l-0.945-2.777C18.929,26.725,13.261,23.975,6.8,18.389
		 M31.194,40.131c3.152,3.043,8.309,4.723,11.477,0.223c1.848-2.641,0.68-4.613,0.82-5.168c0.164-0.484,2.164-1.527,2.012-4.75
		c-0.277-5.531-5.527-6.82-9.82-6.016c-6.656,1.348-11.988,3.875-13.406,4.57l-0.082,0.262
		C22.999,30.561,26.249,35.506,31.194,40.131 M21.151,26.365c1.457-0.641,6.57-3.098,11.586-7.254
		c3.195-2.723,5.461-7.473,1.457-11.055C31.862,6.014,29.847,6.9,29.39,6.709c-0.516-0.237-1.223-2.266-4.32-2.531
		c-5.375-0.331-7.195,4.544-6.809,8.754c0.402,6.457,2.168,11.906,2.684,13.348L21.151,26.365L21.151,26.365z M19.804,30.822
		l-0.195-0.125c-1.457,0.434-6.863,2.184-12.406,5.629c-3.664,2.223-6.543,6.582-3.039,10.711c1.984,2.332,4.07,1.789,4.5,2.066
		c0.402,0.195,0.945,2.348,3.984,3.059c5.238,1.109,7.797-3.5,8.004-7.711C21.097,37.979,20.124,32.365,19.804,30.822 M4.218,78.916
		c2.359,3.406,6.891,5.934,10.695,2.281c2.25-2.156,1.461-4.195,1.738-4.641c0.137-0.402,2.277-1.07,2.707-4.141
		c0.766-5.223-3.957-7.363-8.141-7.363c-6.402,0.044-11.875,1.375-13.32,1.777l-0.141,0.223
		C-1.716,68.514,0.397,73.722,4.218,78.916 M-20.067,87.002c2.418,2.391,4.641,1.516,5.129,1.805
		c0.457,0.184,1.223,2.473,4.527,2.918c5.75,0.75,8.031-4.484,7.89-9.07c-0.141-7.031-1.766-13.031-2.195-14.586l-0.25-0.113
		c-1.457,0.586-7.195,2.973-12.835,7.238C-21.442,77.986-24.235,82.92-20.067,87.002 M-18.926,68.068
		c6.211-0.336,11.39-1.945,12.753-2.336l0.164-0.261c-0.625-1.349-2.847-6.224-6.832-11.103c-2.504-3.125-6.918-5.32-10.422-1.598
		c-1.984,2.184-1.25,4.059-1.387,4.488c-0.25,0.484-2.141,1.152-2.418,4.098C-27.524,66.472-22.942,68.275-18.926,68.068
		 M-33.305,41.229c1.625,3.238,5.125,6.086,8.934,3.461c2.195-1.586,1.82-3.461,2.082-3.82c0.277-0.32,2.168-0.613,2.961-3.168
		c1.359-4.391-2.418-6.918-6.031-7.445c-5.555-0.891-10.445-0.461-11.75-0.293l-0.141,0.195
		C-36.958,31.447-35.848,36.229-33.305,41.229 M-38.723,14.682c-0.277-3.835-2.5-8.016-7.238-6.973
		c-2.762,0.555-3.223,2.539-3.637,2.763c-0.348,0.222-2.281-0.306-4.129,1.862c-3.152,3.707-0.539,7.738,2.738,9.695
		c5.07,3.141,9.988,4.695,11.293,5.156l0.223-0.125C-39.196,25.697-38.321,20.572-38.723,14.682 M-60.184,35.811
		c0.625,2.863,2.652,3.336,2.902,3.766c0.223,0.445-0.348,2.445,1.82,4.375c3.902,3.375,8.113,0.738,10.309-2.723
		c3.305-5.195,5.098-10.293,5.582-11.727l-0.223-0.219c-1.387-0.293-6.723-1.348-12.945-1.07
		C-56.711,28.393-61.172,30.697-60.184,35.811"/>
</symbol>
<g id="rose">
	
		<use xlink:href="#ireland-quarter"  width="128.569" height="150.895" id="XMLID_1_" x="-73.087" y="-43.15" transform="matrix(1 0 0 -1 108.8027 132.2969)" overflow="visible"/>
</g>
</svg>
