<?xml version="1.0" encoding="utf-8"?>
<!-- Generator: Adobe Illustrator 16.0.1, SVG Export Plug-In . SVG Version: 6.00 Build 0)  -->
<!DOCTYPE svg PUBLIC "-//W3C//DTD SVG 1.1//EN" "http://www.w3.org/Graphics/SVG/1.1/DTD/svg11.dtd">
<svg version="1.1" id="Layer_1" xmlns="http://www.w3.org/2000/svg" xmlns:xlink="http://www.w3.org/1999/xlink" x="0px" y="0px"
	 width="200px" height="200px" viewBox="0 0 200 200" enable-background="new 0 0 200 200" xml:space="preserve">
<symbol  id="scotland-quarter_2" viewBox="-1372.269 -105.955 168.511 146.34">
	<g>
		<path fill="#FFFFFF" d="M-1290.277-27.369c2.637,2.391,5.516,4.195,11.777,7.434c-2.012,2.016-4.582,4.207-8.734,7.418
			c-4.043-2.043-7.227-3.875-9.852-5.586c3.141-2.945,4.586-5.07,5.988-7.445L-1290.277-27.369z"/>
		<path fill="#FFFFFF" d="M-1291.461,11.322c-1.359-0.641-2.609-1.168-3.723-1.656c2.598-1.75,5.473-3.777,8.656-6.082l1.766-1.309
			c3.902,1.711,7.832,3.363,11.586,4.781c-3.641,2.793-7.227,5.332-10.281,7.336C-1285.973,13.447-1288.668,12.432-1291.461,11.322z
			"/>
		<path fill="#FFFFFF" d="M-1309.879,4.361l0.875-0.43c2.543,1.902,5.75,3.723,10.363,5.875c-3.418,2.207-6.043,3.875-7.656,4.695
			C-1308.004,11.654-1309.199,8.1-1309.879,4.361z"/>
		<path fill="#FFFFFF" d="M-1310.602-3.959c0-1.375,0.109-2.75,0.277-4.059l2.25-1.57c2.336,1.348,5.668,3.141,9.598,5.184
			c-4.5,3.016-8.332,5.277-10.527,6.516l-1.32-1.098C-1310.492-0.654-1310.602-2.307-1310.602-3.959z"/>
		<path fill="#FFFFFF" d="M-1304.086-21.713c1.223,1.164,2.734,2.402,4.668,3.805l-2.531,2.18c-1.957,1.656-3.984,3.031-5.805,4.281
			l-1.68-0.945c1.027-3.652,2.816-6.863,5.18-9.516L-1304.086-21.713z"/>
		<polygon fill="#FFFFFF" points="-1309.434,-10.322 -1310.031,-9.893 -1309.867,-10.6 		"/>
		<path fill="#FFFFFF" d="M-1291.391-28.467l-1.387,2.906c-1.113,1.902-2.906,4.152-5.559,6.652
			c-1.848-1.348-3.445-2.668-4.988-4.016c3.016-2.918,6.695-5.082,11.016-6.43L-1291.391-28.467z"/>
		<path fill="#FFFFFF" d="M-1281.652,15.045c3.043-2.113,6.57-4.559,10.074-7.391c3.125,1.152,5.887,2.152,8.305,2.984
			c-1.762,1.445-3.832,3.195-6.516,5.227l-2.832,2.164C-1274.957,17.322-1278.094,16.322-1281.652,15.045z"/>
		<path fill="#FFFFFF" d="M-1304.602,16.932l-0.734-0.957c1.945-1.168,4.848-2.918,8.57-5.305c1.43,0.637,2.957,1.305,4.613,2
			c2.441,1.012,4.887,1.914,7.152,2.777c-2.266,1.484-4.152,2.609-5.488,3.43C-1299.668,18.268-1304.602,16.932-1304.602,16.932z"/>
		<path fill="#FFFFFF" d="M-1287.543,2.182c-3.473,2.555-6.738,4.707-9.555,6.609c-5.102-2.348-8.004-3.875-10.477-5.668
			c2.586-1.484,6.348-3.777,10.668-6.75c3.238,1.68,6.766,3.43,10.363,5.113L-1287.543,2.182z"/>
		<path fill="#FFFFFF" d="M-1270.703,18.475l2.055-1.637c2.875-2.254,5.098-4.043,6.891-5.684l3.207,1.082
			c-0.848,1.684-1.902,3.266-3.098,4.711C-1261.648,16.947-1264.578,17.795-1270.703,18.475z"/>
		<path fill="#FFFFFF" d="M-1280.93-7.74c1.391,0.613,2.82,1.211,4.211,1.809c-2.309,1.859-5.07,3.902-8.141,6.207l-0.195-0.066
			c-3.473-1.613-6.945-3.348-10.141-4.988c1.93-1.375,4-2.875,6.082-4.391l1.918-1.625C-1285.25-9.74-1283.152-8.74-1280.93-7.74z"
			/>
		<path fill="#FFFFFF" d="M-1367.074-33.451c1.559-3.059-5.07-5.82-5.07-5.82s5.07,0.5,9.852-2.641
			c2.637-1.75,5.055-5.434,1.902-7.918c-2.238-1.82-3.75-1.75-3.75-1.75s2.652-1.168,4.387-2.613
			c3.656-3.098,9.629-2.238,9.629-2.238s-2.445-0.844-4.266-2.109l-0.348-0.277c-1.609-1.309-2.527-2.945-2.527-2.945
			s3.988,1.195,6.75-1.293c1.559-1.375,0.848-5.5,0.848-5.5s5.754,0.555,12.102-3.695c6.277-4.223,8.336-8.668,8.336-8.668
			s8.305,1.473,12.184-0.336l3.098-1.109c3.902-1.113,8.777-1.402,11.934-0.402l1.055,0.402c2.055,0.668,4.18,1.457,5.723,2.012
			l0.488-2.012c2.359-8.766,6.262-13.363,11.336-18.281c5.234-5.07,6.402-5.309,6.402-5.309s1.625,0.375,3.336,1.793
			c1.914,1.598,2.625,2.945,2.625,2.945s-12.281,6.723-16.52,18.852l-0.918,3.277c1.004,0.363,2.473,0.777,4.156,0.555
			c2.234-0.262,4.918-2.723,6-3.832l0.516-0.57l0.25,0.57c0.484,1.348,2.5,4.695,10.391,4.918
			c8.863,0.262,14.293-0.641,14.293-0.641l-1.25,4.141c0,0,5.531,0.555,10.168,1.473c4.602,0.945,6.824,3.18,10.129,6.461
			c3.305,3.375,12.102,3.457,12.102,3.457s-0.695,2.277-2.113,2.988c-1.5,0.762-4.266,0.609-4.266,0.609l0.652,0.152
			c1.461,0.445,5.043,1.793,6.809,4.695c1.652,2.793,5.973,5.086,5.973,5.086l-4.043,0.668l6.461,5.625c0,0-1.027,0.707-3.391,1.043
			c-2.402,0.414-3.793,0-3.793,0s1.559,2.609,3.723,3.582c2.82,1.391,5.434,2.418,8.172,6.988c1.816,3.016,3.289,6.723,3.695,7.738
			l0.098,0.25c0,0-1.293,0-2.629-0.223l-1.957-0.555c-1.652-0.738-3.363-1.293-3.363-1.293l0.488,1.848
			c0.484,1.945,1.223,5.25,1.57,8.836c0.348,4.043,0.348,11.641,0.348,11.641l-2.445-3.793l-2.906-2.125c0,0,0.711,3.652,0.766,7.57
			c0.109,3.473-0.391,5.961-1.277,9.586c-0.543,2.059,0.168,6.598,0.168,6.598s-1.848-1.039-3.156-2.484
			c-1.332-1.527-2.387-3.402-2.387-3.402s0.109,2.957,0,4.414c-0.141,2.309-0.684,3.531-1.391,5.699
			c-0.652,2.152-0.543,5.555-0.543,5.555l-2.848-3.113c0,0-0.543,4.156-1.875,7.922l-2.848,3.875l-1.738-2.988
			c-0.789-1.945-0.789-4.32-0.789-4.32s-4.641,3.863-7.059,4.766c-2.418,0.945-7.57,1.234-7.57,1.234s0.293-2.68,0.402-6.762
			c0-3.195,2.391-5.656,2.391-5.656s-1.043,0.457-2.5,0.777c-1.461,0.375-3.309,0.598-3.309,0.598s1.625-6,9.684-12.945
			c4.473-3.879,4.555-11.016,4.555-11.016s-1.707,1.723-3.902,2.5c-2.918,0.957-4.93,0.223-4.93,0.223s5.832-7.738,4.777-12.242
			c-0.734-2.75-4.043-2.637-4.043-2.637s4.043-1.516,7.195-6.223l0.891-2.07c0.543-3.113-1.332-6.32-1.332-6.32l-1.656,3.457
			c-1.484,1.918-3.82,1.848-3.82,1.848s-0.387-4.336-1.359-7.5c-0.918-3.07-0.348-8.516-0.348-8.516s-1.82,2.609-2.223,4.637
			c-0.32,2.059-3.277,4.559-3.277,4.559s-0.488-5.266-1.543-7.629c-1.5-3.762-0.82-9.027-0.82-9.027l-2.613,3.445
			c-1.289,1.473-3.223,2.348-3.223,2.348s-0.305-2.348-2.332-4.891c-2-2.582-3.848-4.598-3.848-4.598l-0.086,7.973
			c0,0-0.719-1.777-2.68-3.75c-2.305-2.418-3.332-2.82-5.293-5.918c-1.305-2.07-2.277-4.016-3.07-5.543
			c-0.918-2.016-1.457-3.32-1.457-3.32l-0.891,3.32l-0.137,0.516l-0.293-0.516c-0.805-1.641-3.473-6.766-5.613-9.379
			c-2.195-2.637-4.152-3.348-5.18-3.5c0,4.293,0.539,8.641,1.387,12.879c1.625,8.195,4.254,15.602,5.586,19.547
			c1.195,3.375,2.957,6.93,3.988,8.918c2.25,0.332,4.305,0.859,6.262,1.527l-1.539,2.75l-1.934,2.668l-2.137,2.391
			c-1.738-0.918-3.223-1.684-4.586-2.391c-3.332-1.918-5.32-3.457-7.684-5.527l0.168-0.668l0.086-0.418
			c0.207-1.223,0.691-3.805,0.402-5.973c-0.402-3.363-4.266-12.711-6.293-22.84c-0.738-4-1.309-8.223-1.141-12.211
			c-3.07,1.211-9.07,3.852-13.488,8.613l-2.652,3.598c-5.699,9.656-4.641,22.91-4.641,22.91s-2.738-2-4.07-6.504
			c-0.738-2.875-0.141-6.82-0.141-6.82s-2.582,4.254-3.016,6.82c-0.875,4.586-0.707,8.477-0.707,8.477s-2.652-1.43-4.07-3.723
			c-2.223-3.641-2.391-6.406-2.391-6.406s-4.18,3.656-4.234,8.352c-0.07,4.57,2.582,5.793,2.582,5.793s-1.195,4.277-1.277,6.277
			l-0.055,0.238c-0.141,3.387,0.598,6.637,0.598,6.637s-2.031,0.156-4.586-1.789c-2.598-1.945-3.418-4.211-3.418-4.211
			s-0.543,6.07,1.543,11.156c2.625,6.305,6.945,9.875,6.945,9.875s-1.223,1-3.93,0.641c-2.82-0.375-4.559,0.109-4.559,0.109
			s3.586,1.504,5.613,4.113c2.055,2.613,2.055,4.25,4.613,6.82c2.223,2.238,6.348,3.918,6.348,3.918s-1.25,1.223-2.875,2.098
			c-1.598,0.766-2.875,0.988-2.875,0.988s2.512,0.414,5.098,2.734c2.098,1.961,2.555,4.988,2.555,4.988s-1.707-0.902-4.668-1.082
			c-3.668-0.281-2.043,1.914,2.875,5.68c3.238,2.5,7.684,5.738,7.684,5.738l-5.891-2.113l-3.988-0.832l0.516,3.57
			c0,0-3.668-1.75-5.695-3.418c-2.043-1.652-4.07-3.098-5.348-2.25l-2.613,3.918c0,0-0.707-0.711-2.555-2.777
			c-1.875-1.988-4.098-6.086-4.098-6.086l-2.195,4.25c0,0,0-3.391-0.945-5.805c-0.805-1.891-2.086-3.043-2.793-5.574
			c-0.5-1.594-0.25-4.473-0.25-4.473s-2.82,0.75-3.332,3.723c-0.348,1.973,0,5.629,0,5.629s-3.754-2.223-4.156-8.602
			c-0.57-7.445,2.277-12.434,2.277-12.434l-1.598,0.863l-1.984,0.32c0,0,0-1.07-0.25-4.223c-0.195-1.711,0-5.934,0-5.934
			s-2.113,0.57-3.961,2.238c-2.12,1.874-4.35,2.328-5.694,2.411v-1.358c0.814-0.973,1.845-2.418,2.515-4.15
			c1.82-5.043,0.57-8.363,1.82-11.684c0.543-1.348,1.43-2.668,2.25-3.656c1.141-1.402,2.195-2.375,2.195-2.375
			s-3.098,0.113-5.836-1.527c-1.68-1.008-2.536-2.614-2.944-3.688v-1.034C-1371.25-31.796-1368.137-31.303-1367.074-33.451z"/>
		<path fill="#FFFFFF" d="M-1263.246-1.084c-2.039,1.766-4.641,3.918-8.363,6.918c-3.707-1.473-7.68-3.07-11.473-4.777
			c3.109-2.336,5.836-4.391,8.141-6.293C-1270.844-3.627-1266.801-2.236-1263.246-1.084z"/>
		<path fill="#FFFFFF" d="M-1260.273,9.85c1.598-1.336,2.82-2.531,3.879-3.656c-0.348,1.57-0.863,3.07-1.516,4.516L-1260.273,9.85z"
			/>
		<path fill="#FFFFFF" d="M-1255.465,1.139l-0.293,2.043c-1.609,1.93-3.293,3.805-6.055,6.195c-2.254-0.836-5.129-1.793-8.227-2.961
			c3.695-2.984,6.293-5.168,8.391-7.055C-1259.215,0.123-1257.117,0.736-1255.465,1.139z"/>
		<path fill="#FFFFFF" d="M-1302.547-13.588c1.711-1.262,3.129-2.457,4.32-3.5c2.602,1.75,5.781,3.68,9.574,5.613l-1.625,1.25
			c-2.223,1.652-4.406,3.195-6.488,4.641c-3.793-1.988-7.211-3.82-9.684-5.195C-1305.047-11.74-1303.656-12.713-1302.547-13.588z"/>
		<path fill="#FFFFFF" d="M-1287.723,19.002c1.25-0.82,2.82-1.789,4.5-2.902c3.043,1.113,5.781,2,8.141,2.75
			c-2.414,0.141-5.125,0.25-8.25,0.266C-1284.902,19.115-1286.332,19.088-1287.723,19.002z"/>
		<path fill="#FFFFFF" d="M-1287.402,20.408l3.391,0.027v19.945v0.004c-1.879,0-3.531-0.07-5.184-0.156L-1287.402,20.408z"/>
		<path fill="#FFFFFF" d="M-1295.531,39.674l3.473-19.531l3.195,0.234l-1.734,19.715
			C-1292.363,39.979-1294.016,39.854-1295.531,39.674z"/>
		<path fill="#FFFFFF" d="M-1282.484,20.436l3.473-0.031l1.766,19.824c-1.684,0.07-3.391,0.152-5.238,0.152V20.436z"/>
		<path fill="#FFFFFF" d="M-1271.984-16.686c1.738,0.793,3.418,1.598,5.016,2.277c-1.793,1.781-4.516,4.254-8.391,7.379
			c-1.68-0.695-3.293-1.391-4.863-2.098c-2.082-0.945-3.902-1.82-5.609-2.695c4.043-3.195,6.707-5.445,8.723-7.434
			C-1275.594-18.479-1273.887-17.615-1271.984-16.686z"/>
		<path fill="#FFFFFF" d="M-1277.555,20.393l3.184-0.168l3.473,19.504c-1.586,0.152-3.156,0.277-4.918,0.445L-1277.555,20.393z"/>
		<path fill="#FFFFFF" d="M-1307.574,37.119l6.488-17.852l3.07,0.348l-5.043,18.754
			C-1304.824,37.979-1306.336,37.521-1307.574,37.119z"/>
		<path fill="#FFFFFF" d="M-1301.613,38.689l5.07-18.895l3.016,0.266l-3.477,19.391
			C-1298.684,39.217-1300.184,38.967-1301.613,38.689z"/>
		<path fill="#FFFFFF" d="M-1312.117,35.217l6.781-16.59c0,0,1,0.113,2.734,0.445l-6.402,17.574
			C-1311.145,35.811-1312.117,35.217-1312.117,35.217z"/>
		<path fill="#FFFFFF" d="M-1255.883-9.654c-1.973,2.859-3.516,4.832-6.098,7.348c-3.473-1.027-7.57-2.43-11.641-4
			c3.527-2.863,6.195-5.293,8.277-7.391c3.445,1.457,6.668,2.695,9.352,3.625L-1255.883-9.654z"/>
		<path fill="#FFFFFF" d="M-1256.34-11.85c-2.336-0.848-4.961-1.848-7.863-3c1.984-2.129,3.332-3.879,4.113-5.156
			C-1258.426-17.615-1257.133-14.936-1256.34-11.85z"/>
		<path fill="#FFFFFF" d="M-1272.941,20.127l3.473-0.277l5.07,18.895c-1.484,0.305-3.223,0.598-5.07,0.859L-1272.941,20.127z"/>
		<path fill="#FFFFFF" d="M-1270.637-28.326c3.809,1.555,7.004,3.863,9.477,6.918c-0.82,1.305-2.336,3.277-4.695,5.891
			c-1.766-0.836-3.473-1.57-5.266-2.391c-1.82-0.859-3.473-1.68-4.945-2.391c1.445-1.566,2.473-2.984,3.582-4.609L-1270.637-28.326z
			"/>
		<path fill="#FFFFFF" d="M-1267.953,19.713l2.762-0.309l6.543,17.922c-1.207,0.402-2.652,0.738-4.32,1.141L-1267.953,19.713z"/>
		<path fill="#FFFFFF" d="M-1257.258,36.814l-6.434-17.672c2.168-0.25,3.336-0.516,3.336-0.516l6.434,16.59
			C-1253.922,35.217-1254.867,35.936-1257.258,36.814z"/>
		<path fill="#FFFFFF" d="M-1255.172-3.975l-0.168,3.543c-1.25-0.332-2.988-0.848-5.043-1.445c2.234-2.18,3.641-3.875,4.988-5.918
			C-1255.285-6.545-1255.172-5.295-1255.172-3.975z"/>
	</g>
	<path fill="#CDCCCC" d="M-1236.471,21.938c8.738-10.695,13.75-24.129,13.238-38.605c-0.141-2.305-0.375-4.582-0.711-6.777
		c-2.164-14.032-9.332-26.34-19.695-35.426c-8.738-7.625-19.785-13.031-32.078-15.043v-0.668
		c13.945,1.445,26.477,7.129,36.035,15.711c10.195,9.129,17.074,21.476,18.824,35.426c0.223,1.625,0.375,3.277,0.402,4.918
		c0.57,15.601-5.375,29.882-15.684,40.714L-1236.471,21.938"/>
	<path fill="#CDCCCC" d="M-1332.061-58.87c-9.629,9.238-16.145,21.633-18.16,35.426c-0.539,3.097-0.734,6.25-0.734,9.46
		c0,14.864,5.211,28.52,14.004,39.176l-0.32,0.223c-10.254-10.754-16.504-25.188-16.504-41.191c0-2.598,0.168-5.168,0.457-7.668
		c1.738-13.793,8.004-26.188,17.504-35.426c8.738-8.582,20.188-14.5,32.996-16.348v0.75
		C-1314.072-72.081-1324.131-66.522-1332.061-58.87"/>
</symbol>
<g id="rose">
	
		<use xlink:href="#scotland-quarter_2"  width="168.511" height="146.34" id="XMLID_1_" x="-1372.269" y="-105.955" transform="matrix(1 0 0 -1 1388.0137 67.2148)" overflow="visible"/>
</g>
</svg>
