<?xml version="1.0" encoding="utf-8"?>
<!-- Generator: Adobe Illustrator 16.0.1, SVG Export Plug-In . SVG Version: 6.00 Build 0)  -->
<!DOCTYPE svg PUBLIC "-//W3C//DTD SVG 1.1//EN" "http://www.w3.org/Graphics/SVG/1.1/DTD/svg11.dtd">
<svg version="1.1" id="Layer_1" xmlns="http://www.w3.org/2000/svg" xmlns:xlink="http://www.w3.org/1999/xlink" x="0px" y="0px"
	 width="512px" height="512px" viewBox="0 0 512 512" enable-background="new 0 0 512 512" xml:space="preserve">
<rect fill="#FFFFFF" width="512" height="418.667"/>
<rect y="248" fill="#00AB39" width="512" height="264"/>
<g id="dragon" transform="translate(-59.512 8.2826)">
	<path d="M421.827,121.78c-1.34-0.189-2.663,0.052-4.122,0.717c-2.918,1.332-6.477,4.291-12.604,8.96
		c-13.841,10.558-29.56,11.918-48.239,12.338c-38.835,0.875-56.807,10.378-65.28,22.52c-8.481,12.143-7.415,26.769-8.431,37.623
		c-0.7,7.407-2.064,13.747-7.449,20.71c1.468-3.592,1.92-6.229,1.562-8.192c-0.384-2.082-1.588-3.448-2.961-4.574
		c-1.374-1.118-2.894-2.031-4.097-3.294c-0.921-0.964-1.536-2.278-1.877-3.908c1.545-0.999,3.396-1.024,4.864-0.128
		c1.834,1.118,3.089,3.61,2.192,7.441c-0.025,0.162,0.111,0.282,0.239,0.375c0.025,0.06-0.025,0.136,0.025,0.179
		c0.153,0.128,0.367,0.128,0.529,0l0.051-0.051c0,0-0.008-0.017,0-0.026c3.755-3.985,5.385-7.236,5.649-10.052
		c0.273-2.824-0.827-5.137-2.321-7.125c-1.493-1.988-3.396-3.704-4.753-5.393c-1.297-1.604-2.065-3.14-1.775-4.898
		c0.606-0.614,1.179-1.041,1.69-1.246c1.117-0.452,2.014-0.153,2.833,0.614c0.811,0.759,1.477,2.005,1.877,3.345
		c0.393,1.34,0.538,2.773,0.367,3.832c-0.009,0.025,0.025,0.025,0.025,0.051c-0.051,0.196,0.034,0.393,0.214,0.478
		c0.179,0.094,0.4,0.051,0.528-0.103c0.018-0.034,0.026-0.051,0.052-0.085c0.009-0.017,0.009-0.034,0.025-0.051
		c2.492-3.789,3.516-7.04,3.566-9.865c0.043-2.858-0.912-5.256-2.27-7.287c-1.365-2.022-3.114-3.71-4.702-5.154
		c-1.535-1.392-2.858-2.559-3.541-3.589c-0.009-0.303,0.009-0.666,0-0.958c1.169-0.838,2.731-1.315,4.173-1.011
		c1.579,0.335,2.995,1.474,3.645,4.015c0.008,0.021,0.042,0.008,0.051,0.026c0.025,0.212,0.179,0.399,0.4,0.399
		c0.23,0,0.419-0.193,0.419-0.426v-0.026c0.17-5.182-0.785-9.341-2.697-12.443c-1.766-2.879-4.377-4.794-7.552-5.85
		c0.137-0.203,0.248-0.386,0.427-0.611c1.075-1.414,2.543-3.055,3.96-4.946c2.824-3.78,5.546-8.578,4.966-14.517
		c0-0.054-0.06-0.084-0.076-0.133c-0.026-0.052-0.009-0.12-0.052-0.159c-0.085-0.075-0.204-0.114-0.324-0.106
		c-0.068,0.003-0.068,0.098-0.128,0.133c-0.068,0.028-0.146,0.048-0.188,0.106c-2.646,3.446-7.433,4.452-12.442,5.132
		c0.563-1.044,1.307-2.44,1.955-4.122c0.733-1.898,1.306-3.824,1.032-5.264v-0.026c-0.009-0.039,0.009-0.095,0-0.133
		c-0.025-0.114-0.086-0.206-0.188-0.265c-0.103-0.061-0.23-0.085-0.342-0.054c-0.043,0.01-0.043,0.06-0.077,0.08
		c-0.068,0.021-0.137,0.052-0.188,0.106c-3.063,3.341-8.832,5.325-13.9,6.727c-2.525,0.702-4.881,1.256-6.656,1.809
		c-0.888,0.276-1.63,0.549-2.193,0.851c-0.358,0.192-0.64,0.422-0.845,0.691c-3.516-0.77-6.835-1.287-9.796-1.435
		c-5.367-0.269-9.729,0.37-12.681,1.568c-1.484,0.599-2.628,1.357-3.362,2.233c-0.733,0.877-1.041,1.922-0.819,2.979
		c0.214,0.991,1.041,1.954,2.142,2.898c-7.654-3.165-14.225-4.432-19.601-4.44c-2.21-0.004-4.25,0.186-6.075,0.505
		c-3.652,0.637-6.52,1.798-8.61,2.977c-1.647,0.926-2.654,1.799-3.337,2.526c-0.077,0.071-0.188,0.08-0.265,0.16
		c-0.009,0.015-0.034,0.011-0.051,0.026c-0.025,0.033,0.017,0.07,0,0.106c-0.034,0.047-0.119,0.115-0.153,0.16
		c-0.018,0.009-0.043,0.017-0.052,0.027v0.026c-0.025,0.03-0.085,0.077-0.11,0.106c-0.111,0.163-0.103,0.386,0.025,0.532
		c0.137,0.146,0.358,0.176,0.528,0.08c0.974-0.577,2.065-1.073,3.226-1.516c0.052,0.015,0.111,0.026,0.154,0.026
		c0.955,0.017,1.954,0.226,2.884,0.585c1.007,0.389,1.963,0.885,2.671,1.329c0.709,0.445,1.203,0.851,1.289,0.931
		c0.017,0.019,0.034,0.037,0.051,0.053c0.504,0.328,1.212,0.65,1.903,0.958c-1.485,3.074-2.006,6.982-1.98,12.708
		c-0.264,0.051-0.46,0.113-0.768,0.16c-1.562,0.238-3.609,0.376-5.862,0.239c-3.183-0.193-6.75-0.986-9.984-2.685
		c0.529,0.091,1.067,0.266,1.588,0.292c2.389,0.121,4.488-0.362,6.05-1.223c0.23-0.05,0.521-0.062,0.708-0.133
		c0.171-0.062,0.265-0.221,0.265-0.398c0-0.12-0.103-0.187-0.188-0.266c-0.034-0.038-0.025-0.113-0.077-0.133
		c-2.329-0.914-14.669-6.576-25.096-19.755c-0.009-0.01-0.018-0.016-0.026-0.026c-0.008-0.01-0.017-0.017-0.025-0.027
		c-0.094-0.121-0.247-0.182-0.401-0.16c-0.213,0.041-0.358,0.235-0.341,0.453c0,0.054,0.008,0.108,0.025,0.16
		c0.478,6.28,2.432,21.619,15.189,33.955c0.137,0.128,0.342,0.162,0.503,0.077c0.162-0.085,0.239-0.27,0.214-0.452
		c-0.308-1.629-0.461-2.741-0.768-4.387c0-0.025-0.043-0.029-0.052-0.053c0.025-2.125-0.145-3.594-0.393-4.812
		c3.806,3.486,7.816,5.064,11.571,5.557c4.787,0.629,9.131-0.369,11.989-0.824c0.146-0.023,0.308-0.056,0.452-0.079
		c0.043,2.713-0.989,6.177-2.696,9.036c-0.964,1.622-2.1,3.021-3.303,3.994c-1.194,0.964-2.448,1.493-3.618,1.408h-0.025
		c-0.196,0.034-0.333,0.205-0.341,0.401c-0.077,0.077-0.196,0.094-0.188,0.213c0.009,0.23,0.188,0.427,0.419,0.418
		c5.196,0,9.531,0.145,14.241-0.153h0.026c0.597-0.085,0.861,0,0.87,0c-0.009,0.042-0.025,0.094-0.077,0.188
		c-0.307,0.529-1.306,1.519-2.457,2.628c-0.137,0.12-0.18,0.307-0.103,0.478c0.068,0.171,0.239,0.282,0.418,0.265
		c0.025,0,0.06-0.025,0.085-0.025c0.103,0.085,0.239,0.111,0.367,0.085c0.052-0.017,0.086-0.043,0.128-0.06
		c0.18-0.042,0.308-0.103,0.479-0.153c3.055-0.324,6.86-0.956,9.728-3.012c-0.06,0.307-0.171,0.742-0.265,0.99
		c-0.11,0.256-0.307,0.538-0.665,0.904c-0.043,0.043-0.162,0.137-0.214,0.188c-0.495,0.375-0.845,0.708-1.477,1.144
		c-0.034,0.017-0.042,0.025-0.076,0.051c-0.146,0.094-0.205,0.282-0.162,0.453c0.043,0.17,0.171,0.29,0.341,0.315
		c0.034,0.009,0.077,0.009,0.111,0h0.051c0.026,0,0.06-0.025,0.077-0.025c3.208-0.333,8.823-2.799,12.868-7.074
		c2.1,0.282,3.439,1.314,4.36,2.338c0.495,0.555,0.862,1.075,1.264,1.442c0.162,0.137,0.358,0.222,0.555,0.29
		c-0.009,0.188-0.171,0.384-0.128,0.555c0.102,0.384,0.357,0.683,0.683,0.879c-1.511,2.765-1.972,4.728-1.741,5.957
		c0.137,0.725,0.452,1.211,0.794,1.544c-2.015,1.476-3.704,3.055-4.515,4.488c-0.443,0.785-0.657,1.553-0.478,2.236
		c0.051,0.196,0.204,0.341,0.315,0.503c-0.153,0.017-0.29-0.034-0.478,0.026h-0.026c-1.996,0.964-3.941,2.901-4.991,4.787
		c-0.521,0.947-0.812,1.877-0.743,2.713c0.034,0.367,0.196,0.691,0.401,0.981c-2.518,1.289-4.89,4.182-6.187,6.759
		c-0.657,1.322-1.05,2.551-0.947,3.533c0.051,0.495,0.256,0.947,0.657,1.22c-0.085,0.094-0.146,0.153-0.239,0.247
		c-0.042,0.042-0.085,0.051-0.128,0.103c-2.543,1.306-4.241,4.369-4.966,7.074c-0.367,1.374-0.504,2.654-0.29,3.618
		c0.076,0.35,0.298,0.614,0.503,0.87c-0.137,0.103-0.299,0.162-0.427,0.273c-0.768,0.666-1.313,1.442-1.502,1.724l-0.025,0.025
		c-1.493,1.895-2.133,4.992-2.039,7.578c0.051,1.297,0.281,2.475,0.768,3.328c0.171,0.298,0.436,0.486,0.683,0.691
		c-0.025,0.034-0.128,0.094-0.153,0.128l-0.025,0.026c-1.494,1.894-2.134,4.992-2.04,7.578c0.052,1.306,0.29,2.475,0.769,3.328
		c0.238,0.427,0.555,0.776,0.955,0.981c0.196,0.103,0.452,0.042,0.683,0.051c-0.051,0.085-0.23,0.273-0.265,0.324
		c0,0.009-0.008,0.034-0.025,0.052c-0.238,0.238-0.393,0.528-0.529,0.93c-0.067,0.196-0.102,0.461-0.153,0.691
		c-0.913,1.852-1.664,0.845-2.167,0.137c-3.942-8.201-7.791-13.022-11.571-31.727c-0.666-3.26-7.962-8.363-9.967-21.589
		c-0.401-2.995,4.104-9.421-2.108-11.375c-0.017-0.009-0.034,0-0.051,0c-4.241-8.039-12.937-4.975-14.319-2.338
		c-0.128,0.137-0.128,0.35-0.034,0.504c0.103,0.153,0.273,0.205,0.453,0.162c1.126-0.316,4.471,0.836,4.488,2.918
		c-1.86,4.386,0.452,8.056-0.785,7.663c-0.196-6.852-7.688-6.767-7.928-6.707c-0.009,0.008,0,0.025,0,0.034l-3.354-0.401
		c-11.179,0.085-8.03,8.243-7.347,9.838c0.11,0.145,0.358,0.205,0.605,0.188c0.247-0.026,0.427-0.137,0.478-0.299
		c-0.495-3.063,1.954-3.217,4.515-2.022c1.63,6.204,5.052,6.426,5.521,6.434v0.034h0.052c4.633,0.939,6.102,4.028,6.136,5.897
		c-1.477-0.572-3.277-0.871-5.786-0.393c-1.681-1.715-4.924-2.338-5.999-2.56c-0.529-0.103-4.002,0.341-5.419,2.347l-0.528-0.085
		c-6.938,2.227-4.079,10.044-1.716,10.982c0.094,0.128,0.248,0.179,0.401,0.136c0.145-0.051,0.205-0.188,0.205-0.35
		c-1.041-2.398,0.427-3.729,2.219-2.927c2.662,2.918,5.938,4.104,12.578,0.35c0.102,0.051,2.347,1.058,4.727,1.937
		c-0.094,2.798,2.868,7.688,5.019,11.332c-0.675,2.85-1.801,5.674-2.449,6.724c-0.018,0.009-0.043,0.043-0.06,0.051
		c-2.688,2.074-5.01,7.014-3.909,11.434c-0.845,2.177-3.891,3.346-3.908-0.853c-0.145-0.119-0.324-0.146-0.478-0.052
		c-0.153,0.095-0.222,0.273-0.18,0.452c-0.98,2.791,3.627,11.214,10.829,6.81l1.451-1.646c2.372,0.034,4.872-3.089,5.76-5.777
		c3.566,21.854,11.989,43.896,15.505,51.055c-2.603,8.039-10.197,7.731-12.681,5.104c-0.025-0.018-0.042-0.034-0.076-0.052
		c-0.18-0.153-0.436-0.102-0.58,0.077c-0.146,0.188-0.129,0.436,0.051,0.589c4.634,4.659,7.177,6.152,11.733,6.136
		c10.026-0.034,13.534-6.264,14.318-8.9c8.439-1.809,14.925-7.322,17.357-7.766c0.375,0.324,0.888,0.938,1.237,1.221
		c2.005,1.596,3.678,2.491,5.154,2.662c0.708,0.077,1.365-0.034,1.954-0.324c0.571,1.178,1.425,2.142,2.509,2.901
		c-0.436,2.97-0.776,9.037-2.927,16.776c-2.219,7.962-6.357,17.485-14.405,26.479c-3.165,1.382-5.726-0.751-7.363-2.074
		c-1.383-1.109-4.976-4.966-5.606-6.963c-0.743-2.355-1.613-3.994-2.851-5.214c-1.237-1.221-3.311-1.63-4.915-1.783
		c-0.018,0,0.605,0.119-0.052,0c-0.58,0.051-0.973,0.009-1.348,0.06c-4.89-3.874-9.72,2.628-9.14,6.698
		c0.009,0.171,0.128,0.324,0.315,0.367c0.188,0.052,0.385-0.017,0.504-0.153c0.657-1.545,2.603-1.118,3.593,0.239
		c-0.153,1.441-0.06,3.088,1.527,5c-1.545,0.11-3.516,0.571-5.572,2.944c-8.371,1.007-6.844,10.513-4.36,12.1
		c0.076,0.171,0.247,0.265,0.427,0.239c0.171-0.025,0.307-0.162,0.341-0.342c-2.739-3.55,1.135-5.086,3.063-3.456
		c0.486,1.554,2.705,3.004,4.574,3.909c-0.094,0.46-0.708,2.329-0.504,2.841c-9.002,4.941-0.656,13.552,1.426,12.979
		c0.17-0.051,0.324-0.06,0.478-0.162c0.145-0.103,0.205-0.308,0.153-0.478c-1.279-2.04-1.331-4.506,0.905-3.806
		c1.169,0.75,3.361,1.049,4.539,1.066c2.851,0.042,4.438-1.801,8.005-5.291c2.124-2.082,3.754-1.075,5.077-0.375
		c0.136,0.597,0.366,1.305,1.083,1.596c1.05,0.435,3.319,0.657,4.651,0.614c7.355-0.23,11.435-1.843,14.788-3.004
		c3.354-1.169,6.408-1.792,9.225-1.835c2.628-0.051,4.352,0.479,7.211,1.434c1.434,0.479,3.729,1.639,4.864,1.621
		c1.852-0.067,2.679-0.955,3.14-1.672c2.748-0.495,3.447,0.717,1.852,3.823c-0.051,0.179,0.034,0.384,0.179,0.478
		c0.154,0.102,0.333,0.085,0.479-0.026c2.851-1.202,11.366-9.36-0.128-14.011c-1.749-1.554-4.027-2.867-5.785-2.867
		c-1.775,0-3.533,0.717-5.368,1.117c-1.834,0.393-3.618,0.76-4.224,0.769c-2.355,0.042-2.467-1.417-2.697-4.011
		c-0.23-2.603,5.257-11.725,7.689-14.951c4.821-6.374,11.247-13.636,15.88-18.397c13.79-0.589,8.227,7.569,5.888,9.147
		c-0.179,0.111-0.247,0.333-0.153,0.538c0.086,0.196,0.29,0.299,0.495,0.239c0.051-0.018,0.085-0.043,0.137-0.061
		c4.992-1.313,9.72-4.744,11.307-7.944c0.009-0.017,3.601-6.255,0.529-11.571c-0.146-0.307-0.299-0.725-0.452-1.058
		c1.723-0.803,3.822-3.721,3.907-4.122c2.296,0.657,11.146,0.18,11.947-4.812c4.087,0.401,11.4-2.312,11.674-6.759
		c0.478,0.461,1.519,0.479,2.671,0.273c0.461,3.737,6.118,7.279,7.424,6.485c0.572,6.204,8.38,9.14,10.649,8.056
		c-0.384,1.502,5.376,4.326,7.688,4.198c-4.437,12.006-12.305,25.549-23.202,30.95c-2.918-0.299-7.091-2.244-8.926-3.481
		c-1.468-0.99-3.336-2.236-4.497-4.096c-1.16-1.86-1.084-1.818-2.32-3.029c-1.238-1.221-3.688-2.159-4.489-2.074
		c-0.571,0.052-1.527,0.479-2.381,1.059c-10.735-1.92-9.711,5.752-8.772,8.542c0.009,0.162,0.128,0.315,0.316,0.366
		c0.188,0.052,0.393-0.025,0.503-0.162c0.034-4.011,2.312-4.002,3.517-2.15c-0.018,0.068-0.043,0.12-0.026,0.188
		c0.648,1.391,0.367,2.15,0.128,2.688c-1.178,0.12-2.397,0.418-3.797,1.459c-9.447-1.041-8.585,9.387-5.581,10.607
		c0.077,0.171,0.247,0.265,0.427,0.239c0.17-0.025,0.307-0.162,0.341-0.342c-1.689-2.491,2.569-6.272,3.567-1.758v0.025
		c-0.111,0.137-0.137,0.324-0.051,0.478c0.222,1.469,1.937,2.894,3.455,3.619c-0.272,0.452-0.844,0.844-0.973,1.621
		c-9.949,3.507-4.395,12.023-1.45,13.269c0.137,0.103,0.35,0.103,0.495,0c0.153-0.102,0.204-0.281,0.162-0.452
		c-0.905-1.288-0.572-4.207,3.566-3.669c0.35,1.194,2.159,1.732,3.567,1.758c2.85,0.034,8.038-3.831,10.777-5.324
		c2.586-1.408,6.784-0.88,7.876-0.819c0.547,0.461,1.392,0.921,3.303,0.904c9.984-0.12,11.717-5.529,21.794-5.376
		c4.522,0.068,15.241,5.418,18.654,0.478c1.544-0.571,2.397,0.802,0.529,2.662c-0.128,0.128,0.034,0.376,0.179,0.479
		c0.154,0.103,0.299-0.052,0.479-0.026c2.978,0.367,11.887-9.36,0.102-12.526c-0.051-0.094-0.043-0.179-0.179-0.29
		c-0.281-0.205-1.775-1.801-5.291-1.809c-3.644,0-6.169,1.672-7.424,2.022c-2.662,0.75-1.707-1.4-1.425-2.1
		c2.952-7.211,17.194-20.65,23.646-26.087c0.648-0.256,1.426-0.657,2.355-1.245c6.485-2.347,8.227,3.984,1.843,6.297
		c-0.256,0.282-0.29,0.691-0.102,1.016c0.188,0.324,0.562,0.486,0.921,0.393c15.019-3.985,12.758-12.202,12.767-12.305
		c0.562-8.517-9.566-12.066-11.205-12.869c-2.756-3.062-3.396-4.872-3.191-7.073c0.094-1.059,0.939-2.876,2.372-2.1
		c2.424,1.92,5.333,3.047,6.161,1.485c-1.724,1.971,10.224,9.131,11.409,6.169c1.152,5.104,9.754,4.796,11.409,3.405
		c2.5,4.829,11.281,3.55,11.255,2.713c-0.358,1.775,7.63,4.421,11.307,1.673l0.163,0.401c2.918,3.541,4.667,8.286,6.655,16.589
		c1.997,8.303,1.63,14.882-1.032,21.563c-0.128,0.239-0.845,0.265-1.664,0.239c-2.133-0.845-3.388-1.494-4.83-2.663
		c-1.382-1.109-3.029-2.671-4.232-4.386c-1.117-1.997-1.902-3.593-3.14-4.812c-1.237-1.212-3.362-1.758-4.967-1.912h-0.051
		c-0.709,0.061-1.314,0.29-1.852,0.666c-8.022-2.492-11.888,6.008-10.94,8.798c0.009,0.17,0.162,0.324,0.35,0.375
		c0.188,0.052,0.384-0.025,0.495-0.162c0.811-2.082,4.522-3.114,5.846-1.169c0.196,0.836,0.128,1.459-0.06,1.86
		c-1.664,0.18-3.661,0.683-5.547,3.063c-9.396,0.605-6.178,9.805-4.275,12.202c0.077,0.171,0.247,0.265,0.418,0.239
		c0.18-0.025,0.333-0.162,0.376-0.35c-0.239-2.671,2.475-5.854,4.386-3.431c0.854,1.34,2.739,2.312,4.062,2.611
		c-10.751,4.949-3.046,12.058-0.128,13.295c0.146,0.103,0.325,0.094,0.479,0c0.145-0.103,0.23-0.281,0.179-0.452
		c-1.314-2.1-0.58-5.257,1.929-4.42c-0.06,1.74,3.516,2.901,5.154,2.927c2.85,0.043,5.871-2.312,8.61-3.798
		c2.611-1.425,8.737-1.476,9.958-1.493c4.113,3.917,11.989,2.919,16.384,1.545c4.702-1.485,8.252-4.088,11.938-4.173
		c5.009,0.034,8.866,6.067,13.235,0.93c2.867-1.382,3.721,2.125,2.329,4.335c-0.051,0.171,0.009,0.351,0.162,0.444
		c0.146,0.103,0.35,0.11,0.495,0c2.894-1.221,10.419-8.158,0.137-13.107c0.512-1.331-3.985-5.223-7.766-5.23
		c-4.625-0.018-11.597,7.022-14.318-6.973c-0.666-3.379-2.561-27.768-2.697-30.122c0.905-0.581,2.108-1.28,2.987-1.246
		c1.032-0.051,2.073-0.137,3.089,1.484c1.016,1.622,1.801,4.045-0.769,7.391c-0.033,0.051,0.043,0.103,0.025,0.162
		c-0.025,0.077-0.094,0.137-0.076,0.213c0.009,0.052,0.076,0.06,0.103,0.103c0.025,0.043-0.009,0.103,0.025,0.137
		c0.034,0.025,0.068-0.018,0.111,0c0.034,0.017,0.034,0.068,0.076,0.076c0.154,0.043,0.316-0.008,0.427-0.128
		c6.375-6.34,7.92-13.099,6.229-17.732c-1.689-4.642-6.374-8.08-10.146-8.166c-4.549-0.11-9.592-2.773-13.893-6.784
		c-4.301-4.01-6.98-8.567-8.695-12.809c-0.308-0.776-0.734-1.527-1.084-2.287c27.818-9.607,35.814-31.777,35.797-45.388
		c0-9.429-3.874-17.451-9.403-23.322c-0.094-2.261,0.495-5.154,1.399-7.68c0.512-1.434,1.084-2.731,1.562-3.644
		c0.205-0.393,0.375-0.666,0.529-0.904c0.137,0.546,0.247,1.066,0.58,1.886c0.47,1.169,1.093,2.543,1.801,3.942
		c1.407,2.791,3.098,5.615,4.539,6.827c0.12,0.103,0.282,0.12,0.427,0.06c0.137-0.068,0.248-0.196,0.265-0.35
		c1.127-13.705,5.837-33.805,21.104-52.298c0.009-0.009,0.017-0.016,0.025-0.026c0.009-0.007,0-0.019,0-0.027
		c0.06-0.027,0.103-0.052,0.162-0.08c0.188-0.095,0.272-0.305,0.214-0.505c-0.068-0.199-0.273-0.327-0.479-0.292
		c-0.025,0.006-0.051,0.015-0.076,0.026c-0.009,0.003-0.026-0.003-0.026,0c-3.481,1.642-6.622,3.262-9.463,4.839
		c-24.841,13.233-29.287,22.183-43.034,32.807c-0.162,0.111-0.23,0.324-0.162,0.512c0.068,0.179,0.256,0.282,0.453,0.265
		c6.783-0.333,12.646-1.826,17.962-4.548c-1.365,2.202-2.918,4.89-4.438,7.288c-0.888,1.399-1.749,2.637-2.457,3.456
		c-0.351,0.401-0.657,0.717-0.896,0.87c-0.119,0.077-0.128,0.043-0.188,0.06c-3.669-1.732-7.501-2.706-11.17-2.714
		c-13.714-0.034-23.177,9.097-23.254,20.096c-0.077,11.793,9.08,20.557,18.176,20.104c3.149-0.154,7.356-0.964,11.068-3.431
		c2.713-1.8,5.094-4.548,6.503-8.405c0.025,0.316,0.102,0.615,0.102,0.939c0.009,6.323-2.415,10.641-6.366,13.585
		c-3.942,2.935-9.54,4.446-15.795,4.574c-6.118,0.128-12.398-3.208-21.265-6.784c-8.875-3.576-20.31-7.296-36.677-7.578
		c-4.897-0.085-9.549,0.393-13.448,2.423c-0.247,0.128-0.461,0.333-0.708,0.478c2.082-2.509,4.6-4.745,7.603-6.383
		c7.126-3.891,16.171-4.923,24.261-1.621c0.87,0.41,1.886,0.938,2.637,1.246c0.623,0.256,0.973,0.256,1.511,0.426
		c0.136,0.981,0.145,1.758-0.026,2.125c-0.094,0.196-0.213,0.273-0.35,0.35c-0.077,0.034-0.179,0.051-0.29,0.077
		c-0.171,0.034-0.358,0.085-0.631,0.026c-0.146-0.026-0.299,0.017-0.393,0.136c-0.103,0.111-0.137,0.282-0.086,0.427
		c-0.025,0.188,0.068,0.367,0.239,0.453c0.111,0.051,0.213,0.034,0.315,0.077c0.648,0.623,1.356,0.956,2.04,0.802
		c0.844-0.196,1.553-0.861,2.107-1.655c0.563-0.785,0.973-1.715,1.194-2.577c0.018-0.094,0.009-0.17,0.025-0.265
		c0.675-0.759,1.178-1.877,0.947-3.166c-0.238-1.348-1.348-2.756-3.456-3.908c-0.042-0.034-0.034-0.102-0.085-0.128
		c-0.068-0.051-0.512-0.503-0.87-1.254c-0.358-0.743-0.717-1.784-0.974-2.979c-0.528-2.381-0.682-5.444,0-8.482
		c1.349-6.067,5.829-12.134,18.091-13.346c0.06,0,0.086-0.068,0.137-0.077c2.364,0.469,4.48,0.793,6.102,0.768
		c0.256,0,0.452-0.06,0.691-0.077c0.11,0.128,0.222,0.23,0.315,0.401c0.18,0.315,0.29,0.674,0.239,1.109
		c-0.052,0.35-0.351,0.793-0.691,1.254c-0.025,0.008-0.025,0.017-0.052,0.026c-0.136,0.034-0.247,0.136-0.289,0.264
		c-0.052,0.137-0.035,0.282,0.051,0.401v0.026v0.025h0.025v0.026c0.043,0.153,0.171,0.265,0.315,0.29
		c0.171,0.034,0.333-0.042,0.504-0.051c0.733,0.222,1.476,0.205,2.116-0.239c0.854-0.589,1.562-1.587,1.979-2.68
		c0.418-1.101,0.58-2.312,0.214-3.354c-0.248-0.691-0.871-1.178-1.639-1.519c-9.686-10.104-9.284-22.346-5.47-32.7
		c1.911-5.185,4.701-9.847,7.475-13.347c2.773-3.5,5.837-6.012,7.348-6.541c0.077-0.03-0.051,0.071,0.025,0.026
		c0.606,0.034,1.229,0.084,1.792-0.079c0.854-0.247,1.621-0.671,2.304-1.196c0.034,0.033,0,0.114,0.052,0.133
		c0.213,0.078,0.436-0.032,0.529-0.24l0.025-0.026c0.077-0.049,0.213-0.106,0.367-0.16c0.315-0.106,0.716-0.167,0.98-0.133
		c0.137,0.017,0.239,0.068,0.291,0.106c0.051,0.039,0.085,0.056,0.102,0.16c0.034,0.204-0.06,0.751-0.555,1.595
		c-0.008,0.017-0.017,0.009-0.025,0.026v0.027v0.026c-0.06,0.106-0.068,0.232-0.025,0.346c0.009,0.009,0.017,0.018,0.025,0.026
		v0.027c0.009,0,0.018,0,0.025,0c0.009,0.019,0.018,0.036,0.026,0.053c0.008,0.009,0.017,0.019,0.025,0.027
		c0.009,0.008,0.017,0.018,0.034,0.026c0.025,0.022,0.068,0.04,0.103,0.053c0.017,0.01,0.034,0.019,0.051,0.027
		c0.017,0.001,0.034,0.001,0.051,0c0.018,0.001,0.034,0.001,0.061,0c0.017,0.001,0.034,0.001,0.051,0
		c0.043-0.002,0.086-0.01,0.128-0.027c0.034-0.014,0.052-0.039,0.077-0.053c0.017-0.01,0.017-0.017,0.034-0.026
		c0.768-0.146,1.527-0.604,2.193-1.303c0.742-0.788,1.348-1.791,1.629-2.818c0.291-1.027,0.248-2.156-0.494-2.924
		c-0.632-0.644-1.759-0.917-3.252-0.905c-0.264-0.595-0.742-1.114-1.398-1.409c-0.615-0.274-1.426-0.317-2.305-0.293l-0.58-0.159
		C424.498,122.564,423.166,121.969,421.827,121.78L421.827,121.78z M209.313,165.544c2.876,0.02,5.734,0.498,8.371,1.702
		c-0.563,0.469-1.271,0.815-2.142,1.01c-1.647,0.373-3.729,0.274-5.7-0.106c-1.979-0.381-3.849-1.051-5.104-1.702
		c-0.384-0.199-0.562-0.375-0.819-0.558C205.686,165.672,207.495,165.531,209.313,165.544L209.313,165.544z M431.973,208.214
		c1.042,0.025,2.185,0.247,3.354,0.666c0.869,0.316,1.723,0.845,2.56,1.357c-0.119,0.145-0.213,0.324-0.265,0.503
		c-1.527,5.436-4.335,7.006-6.63,6.972c-2.287-0.043-4.216-1.758-4.225-4.045c-0.018-2.859,0.99-4.198,2.483-4.915
		C429.993,208.393,430.932,208.196,431.973,208.214L431.973,208.214z M272.263,222.626c0.614-0.102,1.118,0.009,1.536,0.35
		c0.418,0.333,0.769,0.93,0.896,1.937c0.008,0.06,0.085,0.06,0.11,0.111c0.009,0.145,0.034,0.307,0.179,0.367
		c0.052,0.025,0.086-0.026,0.137-0.026c-0.75,0.921-1.468,1.843-2.381,2.791c-1.391-0.538-2.645-1.442-3.644-3.029
		C269.959,223.813,271.188,222.814,272.263,222.626L272.263,222.626z"/>
	<path fill="#D21034" d="M422.015,123.243c-5.197,5.178-10.334,8.834-17.621,13.293c-12.792,7.82-27.742,9.818-46.396,10.795
		c-37.777,1.987-54.512,9.357-62.269,19.967c-7.757,10.613-6.442,24.25-8.431,38.5c-0.623,4.463-1.963,9.805-4.387,14.328
		c-2.039,3.823-4.881,6.98-8.661,8.695c10.496-9.498,10.547-18.782,11.435-24.217c1.596-9.771-0.179-23.646,7.398-35.471
		c7.586-11.828,24.551-21.757,63.967-23.264c16.247-0.622,26.162-2.187,33.049-4.228c6.878-2.042,10.718-4.562,14.687-6.993
		c4.096-2.511,7.467-6.297,10.751-8.827c1.639-1.265,3.252-2.21,4.891-2.552C420.94,123.161,421.486,123.225,422.015,123.243z
		 M426.606,125.396c0.726-0.028,1.322,0.018,1.639,0.16c0.367,0.165,0.521,0.356,0.605,0.612c0.18,0.512-0.068,1.559-0.785,2.552
		c-0.726,0.994-1.843,1.867-3.012,2.207c-1.178,0.336-3.26-0.577-3.567-0.851c-0.145-0.151-0.358-0.119-0.555-0.133
		c-0.205-0.228-0.401-0.461-0.614-0.691c-0.086-0.113-0.222-0.172-0.367-0.16c-0.085,0.01-0.17,0.047-0.238,0.107
		c-18.637,17.042-34.526,20.278-60.732,22.094c-8.926,0.615-22.903,2.32-34.986,5.345c-6.033,1.512-11.614,3.339-15.847,5.557
		c-4.232,2.217-7.185,4.833-7.825,7.976c-0.025,0.136,0.017,0.272,0.111,0.372c0.094,0.101,0.23,0.154,0.366,0.133
		c0.052-0.008,0.111-0.019,0.163-0.026c0.179,0.247,0.443,0.417,0.768,0.372c2.219-0.198,8.627-0.223,17.271,0.106
		c8.645,0.333,19.602,0.999,31.146,2.099c22.221,2.125,46.584,5.965,61.03,12.151c0.29,0.342,0.538,0.7,0.846,1.041
		c-0.009,0,0.008,0.017,0,0.026c-0.367,0.213-1.289,0.324-2.586,0.213c-2.603-0.23-6.725-1.195-11.708-2.475
		c-9.967-2.56-23.449-6.332-35.822-7.629c-21.069-2.219-33.699-5.094-62.533-5.162c-0.034-0.004-0.068-0.004-0.103,0
		c-0.034,0.007-0.06,0.015-0.085,0.027c-0.128,0.065-0.162,0.125-0.265,0.21s-0.23,0.205-0.367,0.35
		c-0.272,0.282-0.598,0.666-0.896,1.169c-0.605,1.007-1.101,2.449-0.87,4.173c0.008,0.145,0.102,0.282,0.23,0.341
		c0.06,0.034,0.153,0.034,0.213,0.06c0.103,0.085,0.103,0.265,0.239,0.291c2.475,0.426,8.123,2.193,15.377,4.787
		c7.253,2.594,16.153,6.033,25.412,9.864c18.039,7.458,37.266,16.393,48.111,23.398c0.751,0.598,1.852,1.425,2.381,2.15
		c0.136,0.196,0.247,0.367,0.29,0.503c0.034,0.137,0.025,0.23,0,0.299c-0.052,0.103-0.486,0.282-1.007,0.418
		c-4.293-0.93-11.043-4.591-18.859-9.114c-8.55-4.949-18.286-10.743-27.426-14.523c-16.068-6.63-35.499-15.249-44.672-17.254
		c-0.034-0.009-0.077-0.017-0.111-0.026c-0.137,0.009-0.162,0.163-0.239,0.265c-0.06-0.008-0.119-0.008-0.179,0
		c-0.052,0.017-0.094,0.051-0.137,0.085c-0.648,0.435-1.109,0.913-1.322,1.485c-0.205,0.572-0.137,1.186,0.137,1.809
		c0.546,1.254,1.86,2.654,3.831,4.65c3.934,4.002,10.564,10.3,18.995,21.197c14.601,18.876,21.419,28.006,24.354,32.538
		c1.477,2.27,1.929,3.414,1.954,3.857c0.018,0.222-0.009,0.256-0.103,0.35c-0.068,0.06-0.239,0.162-0.393,0.265
		c-1.169-0.043-1.86-0.265-2.543-0.904c-0.708-0.674-1.45-1.852-2.56-3.781c-2.228-3.848-5.982-10.598-14.712-22.042
		c-5.308-6.946-11.733-14.413-17.178-20.625c-5.367-6.145-9.72-11-11.042-12.817c-0.034-0.103-0.068-0.196-0.103-0.299
		c-0.043-0.102-0.111-0.188-0.214-0.239c-0.247-0.103-0.562-0.06-0.768,0.085c-0.196,0.136-0.341,0.324-0.478,0.555
		c-0.256,0.46-0.452,1.083-0.657,1.86c-0.41,1.57-0.785,3.729-1.084,5.981c-0.29,2.253-0.512,4.608-0.657,6.545
		c-0.136,1.86-0.204,3.2-0.162,3.908v0.025v0.026v0.111c0.009,0.068,0.043,0.119,0.077,0.179c0.367,3.268,1.801,6.024,3.652,9.864
		c1.911,3.977,4.241,9.139,6.341,17.289c1.774,6.895,3.558,14.028,4.411,19.481c0.427,2.73,0.605,5.043,0.47,6.647
		c-0.06,0.811-0.205,1.434-0.418,1.835c-0.214,0.4-0.436,0.571-0.769,0.614h-0.025c-0.504,0.119-0.683,0.067-0.871-0.137
		c-0.188-0.196-0.366-0.674-0.503-1.459c-0.265-1.57-0.358-4.284-0.794-8.27c-0.861-7.936-3.08-20.975-10.7-40.755
		c-0.018-0.06-0.025-0.103-0.052-0.162c-0.017-0.043-0.076-0.017-0.102-0.051c-0.052-0.068-0.052-0.162-0.137-0.188
		c-0.06-0.025-0.077,0.026-0.128,0.026c-0.034,0-0.043-0.06-0.086-0.051c-0.034,0-0.034,0.06-0.076,0.077
		c-0.061,0.026-0.146,0-0.18,0.026c-0.103,0.077-0.179,0.153-0.239,0.239c-0.137,0.179-0.281,0.393-0.427,0.691
		c-0.29,0.598-0.631,1.459-1.032,2.552c-0.785,2.193-1.749,5.316-2.662,8.96c-1.212,4.847-2.287,10.632-2.885,16.46
		c-0.051-0.871-0.068-1.442-0.103-2.312c-0.085-2.099-0.085-4.139,0.077-5.845c0.085-0.836,0.222-1.579,0.401-2.21
		c0.068-0.282,0.171-0.461,0.265-0.691c0.128-0.333,0.247-0.708,0.418-0.93c0.017-0.017-0.009-0.034,0-0.051
		c0.009-0.025,0.017-0.042,0.025-0.06c0.086-0.137,0.094-0.316,0-0.453c-0.017-0.017-0.06,0-0.076-0.025
		c-0.095-0.085-0.214-0.179-0.342-0.154c-0.094,0.009-0.171,0.043-0.239,0.103c-3.345,3.2-5.547,5.547-7.211,9.148
		c-0.81,1.749-1.484,3.831-2.09,6.408c0.085-1.724,0.162-3.319,0.265-4.6c0.102-1.28,0.272-2.27,0.418-2.636
		c0.077-0.154,0.043-0.35-0.077-0.478c-0.11-0.128-0.281-0.162-0.443-0.103c-0.068,0.017-0.103,0.077-0.137,0.128
		c-0.034,0-0.068-0.034-0.103-0.026c-0.034,0.009-0.06,0.017-0.085,0.026c-2.116,0.972-5.206,3.148-7.816,5.879
		c-1.229,1.28-2.312,2.697-3.175,4.173c0.657-2.713,1.288-3.789,1.852-4.889c0.18-0.239,0.324-0.401,0.529-0.717
		c0.077-0.137,0.077-0.299,0-0.427c-0.043-0.077-0.137-0.103-0.214-0.137c0-0.008-0.017,0.008-0.025,0
		c-0.051-0.017-0.076-0.077-0.128-0.077c-0.043,0-0.068,0.025-0.111,0.025c-0.067-0.008-0.11-0.077-0.179-0.051
		c-0.051,0.009-0.06,0.085-0.111,0.103c-11.682,1.067-18.79,5.427-22.929,10.394c-2.748,3.302-4.121,6.767-4.805,9.711
		c0.513-7.509,5.001-14.558,11.486-17.152c3.687-1.468,8.688-2.133,13.185-2.953c4.335-0.785,8.2-1.689,10.095-3.823
		c5.29-1.834,9.173-6.835,11.861-12.126c2.722-5.359,4.24-10.991,4.778-13.96c2.312-12.766,0.025-26.231,7.083-36.798
		c3.532-5.283,9.387-9.874,19.422-13.347s24.226-5.798,44.33-6.487c16.257-0.558,26.121-2.633,32.914-5.159
		c6.801-2.525,10.521-5.502,14.506-7.844c2.228-1.309,6.076-4.601,10.146-7.364c2.03-1.382,4.113-2.613,6.024-3.404
		C425.087,125.742,425.864,125.544,426.606,125.396L426.606,125.396z M269.626,127.443c-0.632,1.529-1.459,3.071-2.406,4.36
		c-0.726,0.985-1.408,1.819-1.929,2.394c-0.256,0.287-0.469,0.498-0.605,0.638c-0.025,0.03-0.034,0.058-0.052,0.08
		c-0.008,0.009-0.017,0.017-0.025,0.026c-0.017,0.008-0.043,0.017-0.06,0.026c0,0.003-0.018-0.001-0.025,0
		c-0.043,0.034-0.077,0.084-0.103,0.133c-2.885,0.368-5.691,0.788-8.03,1.754c-0.315,0.129-0.528,0.382-0.819,0.532
		c-1.724-0.594-3.276-0.934-4.915-1.382c0-0.013,0.025-0.013,0.025-0.026c0.052-0.193,0.273-0.433,0.743-0.691
		c0.461-0.258,1.135-0.5,1.954-0.744c1.63-0.49,3.831-0.981,6.127-1.622C263.243,131.877,267.177,130.297,269.626,127.443
		L269.626,127.443z M431.393,127.497c0.409,0.063,0.717,0.192,0.922,0.346c0.418,0.307,0.546,0.743,0.478,1.33
		c-0.068,0.514-0.401,1.103-0.819,1.675c0.06-0.408,0.188-0.842,0.025-1.17c-0.358-0.713-1.126-1.028-1.928-1.196
		c0.145-0.323,0.315-0.626,0.393-0.958C430.787,127.512,431.145,127.459,431.393,127.497z M280.241,131.245
		c-1.45,7.58-5.529,12.345-9.506,15.368c-2.142,1.628-4.224,2.792-5.785,3.669c-0.785,0.439-1.451,0.801-1.929,1.144
		c-0.239,0.17-0.427,0.349-0.58,0.532c-0.162,0.183-0.291,0.395-0.291,0.665c0,0.235,0.188,0.425,0.419,0.425
		c0.674-0.011,2.381-0.032,4.044-0.053c0.632-0.008,0.88-0.02,1.426-0.026c1.938,4.076,2.705,9.832,2.56,16.432
		c-0.153,7.087-1.271,15.04-2.85,22.677c-1.579,7.68-3.448,16.196-3.405,23.561c0.018,3.678,0.513,7.074,1.792,9.941
		c1.041,2.312,2.62,4.275,4.812,5.717c-0.4,0.631-1.101,1.187-2.218,1.622c-1.331,0.512-3.072,0.887-4.967,1.194
		c-3.806,0.623-8.26,0.999-11.521,1.971c-2.185,0.649-7.006,3.115-10.7,7.552c-3.089,3.695-5.163,8.875-4.258,15.309
		c-0.061,0.12-0.103,0.256-0.052,0.376c0.077,0.188,0.162,0.375,0.239,0.554c0.179,0.99,0.222,1.912,0.555,2.953v0.025
		c0.06,0.23,0.299,0.358,0.528,0.299c0.223-0.06,0.351-0.281,0.291-0.504c0-0.017,0.008-0.042,0-0.06
		c-0.018-0.06-0.009-0.119-0.026-0.188c-0.076-0.324-0.076-0.648-0.136-0.981c0.776,0.393,1.8,0.605,3.046,0.64
		c-1.536,3.533-2.646,7.562-3.362,11.862c-0.776-1.195-1.937-2.305-3.507-3.328c0.119-0.47,0.213-0.947,0.205-1.46
		c-0.026-2.448-1.621-5.272-5.257-8.669c0.265-0.41,0.503-0.828,0.665-1.306c0.726-2.177,0.214-4.958-1.902-8.662
		c1.349-2.201,1.365-5.504-0.58-10.53c-0.018-0.034-0.06-0.026-0.086-0.051c0.188-0.179,0.393-0.315,0.555-0.512
		c1.63-1.971,2.048-5.035,0.691-9.703c-0.009-0.017-0.025-0.017-0.025-0.025c0.333-0.256,0.665-0.521,0.947-0.854
		c1.553-1.817,2.176-4.728,1.484-9.25c0.58-0.29,1.127-0.631,1.579-1.143c1.434-1.596,2.057-4.343,1.689-8.721
		c1.05-0.35,2.005-0.862,2.748-1.647c1.425-1.501,2.057-3.891,1.562-7.449c0.717-0.333,1.408-0.717,1.954-1.357
		c1.28-1.477,1.945-3.849,1.715-7.33c0.495-0.205,0.973-0.401,1.297-0.751c0.862-0.913,1.059-2.27,1.033-4.224
		c-0.026-1.655-0.222-4.096-0.367-6.861c0.623-0.964,1.109-2.065,1.288-3.456c0.282-2.142,0.018-4.83-0.845-8.189
		c1.059-2.604,1.716-5.596,1.511-9.226c0.776,0.265,1.655,0.439,2.748,0.239c1.288-0.235,2.824-0.962,4.676-2.312
		c0.043-0.035,0.086-0.044,0.128-0.08c0.034-0.021,0.052-0.031,0.077-0.053c0.179-0.132,0.23-0.371,0.11-0.558
		c-0.119-0.188-0.357-0.263-0.554-0.16c-0.026,0.011-0.034,0.041-0.052,0.053c-0.461,0.24-0.896,0.543-1.246,0.744
		c-0.367,0.213-0.614,0.263-0.818,0.187c-1.861-0.702-2.312,0.111-7.612-4.281c-0.077-0.071-0.179-0.109-0.29-0.106
		c-0.137,0.007-0.265,0.069-0.342,0.186c-0.068,0.116-0.076,0.271-0.025,0.399c0.025,0.063,0.077,0.124,0.103,0.186
		c0.017,0.01,0.017,0.018,0.034,0.027c0.504,1.081,1.45,2.102,2.424,2.925c0.4,0.333,0.623,0.406,0.981,0.665
		c-1.212-0.28-2.193-0.698-2.987-1.064c-0.162-0.068-0.35-0.043-0.478,0.08c-0.12,0.123-0.146,0.318-0.077,0.479
		c2.296,5.35,0.623,11.811-3.354,16.056c-3.926,4.198-10.026,6.221-16.776,2.978c-0.077-0.17-0.265-0.264-0.452-0.239
		c-0.103,0.025-0.171,0.103-0.239,0.188c-0.009,0.017-0.043,0.009-0.051,0.026c-0.905,1.562-1.698,2.986-3.354,4.522
		c-1.024,0.947-2.577,1.988-4.489,3.081c0.828-0.793,1.408-1.536,1.792-2.287c0.803-1.544,0.777-3.055,0.691-4.966
		c-0.009-0.196-0.137-0.358-0.315-0.401c-0.188-0.042-0.384,0.042-0.479,0.213c-1.203,2.21-4.915,5.487-10.99,7.74
		c2.534-2.116,4.181-4.378,4.309-6.622c0.009-0.179-0.085-0.35-0.238-0.427c-0.162-0.077-0.35-0.042-0.478,0.077
		c-3.346,2.961-9.174,3.899-14.849,4.258c1.255-0.597,2.467-1.468,3.567-2.662c2.158-2.355,3.908-5.948,4.991-10.66
		c3.96,2.32,7.562,3.071,10.624,2.872c3.499-0.228,6.256-1.56,8.244-2.738c-0.052,0.86-0.103,1.598-0.111,2.686
		c0,0.208,0.146,0.386,0.35,0.425c0.196,0.04,0.401-0.07,0.47-0.266c1.869-4.435,2.79-7.212,2.534-9.545
		c-0.247-2.333-1.724-4.069-4.326-6.354c-0.094-0.084-0.222-0.124-0.351-0.105c-0.179,0.034-0.315,0.185-0.341,0.372
		c-0.051,0.545-0.103,1.102-0.153,1.648c-5.18-0.293-10.744-5.239-22.033,3.296c-0.273-4.93,0.025-8.165,1.34-10.848
		c0.528,0.068,1.058,0.066,1.587-0.026c1.058-0.185,2.065-0.788,2.799-1.941c0.674-1.049,1.084-2.61,1.246-4.68
		c6.759,0.3,14.447,1.563,22.801,3.962c0.025,0.008,0.052,0.019,0.077,0.026c0.196,0.04,0.4-0.078,0.478-0.265
		c0.018-0.048-0.025-0.085-0.025-0.133c0.009-0.02,0.043-0.006,0.051-0.026c0.068-0.2-0.025-0.41-0.213-0.505
		c-0.017-0.009-0.034-0.019-0.051-0.027c-0.026-0.006-0.034-0.02-0.052-0.027c-1.365-0.557-2.432-1.15-3.354-1.728
		c-0.589-0.523-1.093-1.082-1.271-1.648c-0.418-1.329,0.179-2.757,2.091-3.935c3.763-2.325,12.697-3.172,27.179,1.702
		c-0.546,0.711-1.032,1.487-1.349,2.446c-0.06,0.184,0,0.397,0.162,0.505c0.162,0.106,0.385,0.079,0.529-0.054
		c4.156-4.081,9.898-4.712,15.479-5.557C272.221,136.418,277.008,135.258,280.241,131.245L280.241,131.245z M276.069,137.813
		c-0.085,0.009-0.17,0.047-0.238,0.106c-3.602,2.868-6.793,3.774-10.3,4.387c-2.961,0.441-4.259,1.546-5.018,2.047
		c-0.196,0.125-0.342,0.205-0.452,0.239c-0.111,0.034-0.18,0.035-0.291,0c-0.222-0.068-0.656-0.388-1.322-1.144
		c-0.128-0.122-0.315-0.156-0.469-0.08c-0.162,0.077-0.257,0.25-0.239,0.426c0.009,0.051,0.06,0.157,0.077,0.212
		c0.008,0.013,0.017,0.013,0.025,0.026c0.171,0.705,0.58,1.636,1.135,2.605c0.307,0.53,0.631,1.047,0.93,1.463
		c0.29,0.416,0.529,0.735,0.846,0.931c0.102,0.064,0.222,0.089,0.341,0.053c0.119-0.036,0.213-0.128,0.265-0.239
		c1.135-2.418,2.116-3.838,2.927-4.6c0.819-0.762,1.417-0.889,1.937-0.798c0.513,0.092,0.999,0.461,1.451,0.824
		c0.222,0.182,0.436,0.361,0.657,0.505c0.23,0.144,0.469,0.277,0.793,0.213c0.111-0.012,0.223-0.069,0.291-0.16
		c1.297-1.855,3.865-3.862,6.92-6.248c0.154-0.11,0.223-0.301,0.162-0.479C276.436,137.927,276.257,137.805,276.069,137.813
		L276.069,137.813z M161.808,139.009c4.966,6.961,11.46,13.511,20.77,18.453c-3.806,0.378-6.724-0.414-9.147-1.968
		c-3.123-2.009-5.453-5.295-7.714-8.854c-0.009-0.017-0.018-0.036-0.025-0.053c-0.095-0.151-0.273-0.225-0.444-0.186
		c-0.137,0.026-0.238,0.12-0.29,0.239c-0.06,0.121-0.068,0.254,0,0.373c0,0.014,0.018,0.013,0.025,0.026
		c3.09,6.631,5.615,9.645,7.186,11.858c1.416,2,1.997,3.354,1.715,6.275c-3.763-2.815-6.682-7.662-8.67-12.788
		C163.216,147.214,162.217,142.276,161.808,139.009L161.808,139.009z M413.08,139.514c-2.467,3.437-4.863,7.481-6.579,12.124
		c-3.507,9.511-4.241,21.008,2.483,31.001c-15.019-5.675-37.777-9.114-58.676-11.111c-11.588-1.11-22.579-1.746-31.248-2.076
		c-7.792-0.296-12.75-0.26-15.668-0.107c1.322-2.342,4.565-4.575,9.113-6.46c5.061-2.104,11.546-3.845,18.065-5.238
		c13.057-2.786,26.394-4.162,29.192-4.254c20.754-0.685,35.319-4.911,45.261-9.493C408.225,142.427,410.785,140.954,413.08,139.514
		L413.08,139.514z M227.566,141.03c-0.683-0.05-1.485,0.022-2.458,0.24c-0.205,0.051-0.333,0.243-0.315,0.451
		c0.051,0.659,0.358,1.14,0.768,1.489c0.41,0.349,0.888,0.591,1.399,0.904c1.016,0.626,2.185,1.495,3.063,3.802
		c0.068,0.153,0.205,0.26,0.367,0.266c0.171,0.005,0.324-0.092,0.401-0.24c0.171-0.361,0.222-0.657,0.29-0.824
		c0.017-0.043,0.06-0.049,0.077-0.08c0.145,0.155,0.298,0.291,0.528,0.532c0.162,0.171,0.376,0.364,0.657,0.453
		c0.29,0.087,0.623,0.06,0.981-0.054c3.371-1.042,5.649-1.561,7.236-1.675c1.596-0.115,2.457,0.153,3.148,0.745
		c0.162,0.111,0.385,0.106,0.529-0.026c0.146-0.133,0.171-0.36,0.077-0.532c-0.025-0.039-0.052-0.042-0.077-0.08
		c-1.655-2.431-3.354-3.28-5.077-3.483c-1.749-0.206-3.481,0.138-5.47-0.186c-2.014-0.329-3.123-0.874-4.275-1.275
		C228.837,141.254,228.248,141.079,227.566,141.03L227.566,141.03z M228.043,142.306c0.913,0.126,3.004,0.92,3.78,0.904
		c-0.521,1.807,0.47,2.556,1.374,3.031C230.543,146.574,228.137,142.591,228.043,142.306L228.043,142.306z M201.778,142.333
		c0.077,0.848,0.111,2.139-0.265,3.19c-0.23,0.659-0.571,1.133-1.135,1.356c-0.555,0.221-1.408,0.192-2.662-0.372
		c-0.009-0.003-0.025,0.001-0.034,0c-0.836-0.442-3.328-1.65-6.017-2.367c-0.631-0.168-1.254-0.16-1.877-0.24
		C193.21,142.875,197.203,142.332,201.778,142.333z M237.448,143.582c1.322-0.143,2.423,0.645,1.186,1.33
		c-1.254,0.696-3.422,1.688-4.728,1.276c1.263-0.064,1.664-1.506,1.084-2.473C234.52,143.62,236.124,143.724,237.448,143.582z
		 M243.446,147.969c-2.27-0.051-3.703,0.048-4.787,0.346c-1.092,0.301-1.809,0.793-2.637,1.383
		c-0.145,0.096-0.222,0.282-0.188,0.451s0.18,0.288,0.342,0.319c0.827,0.167,1.263,0.259,1.434,0.346
		c0.076,0.043,0.094,0.076,0.153,0.16c0.06,0.084,0.137,0.206,0.239,0.426c0.06,0.152,0.204,0.26,0.366,0.265
		c0.171,0.006,0.324-0.091,0.401-0.239c0.58-1.211,1.093-1.793,1.767-2.127c0.623-0.306,1.536-0.388,2.747-0.452
		c0.103,0.002,0.111-0.03,0.214-0.027v-0.027c0.009,0,0.017,0.001,0.025,0c0.188-0.054,0.324-0.23,0.315-0.425
		c-0.008-0.194-0.153-0.357-0.341-0.399c-0.018,0-0.018,0.001-0.025,0C243.463,147.97,243.454,147.969,243.446,147.969z
		 M483.942,151.186c-16.129,18.514-19.935,38.519-20.984,44.646c-2.125-3.669-4.753-7.749-3.114-12.868v-0.034
		c3.874-9.31,5.18-10.82,15.402-24.085c0.009-0.015,0.018-0.012,0.025-0.026c0.129-0.178,0.111-0.439-0.051-0.585
		c-0.162-0.145-0.427-0.127-0.58,0.026c-0.009,0.01-0.017,0.017-0.026,0.027c-0.017,0.015-0.017,0.012-0.025,0.026
		c-0.042,0.044-0.068,0.088-0.11,0.132c0,0.005-0.018-0.004-0.025,0c-11.025,9.207-16.018,15.474-20.344,19.646
		c-4.036,3.899-7.595,5.948-14.925,7.023C452.607,173.739,458.802,163.461,483.942,151.186L483.942,151.186z M272.11,152.755
		c0.119,0.038,0.111,0.007,0.239,0.053c1.066,0.392,2.415,1.066,3.746,2.154c2.158,1.759,4.198,4.737,5.026,9.465
		c-0.786-1.219-1.81-2.051-2.937-2.5c-1.817-0.726-3.686-0.712-4.89-0.718c-0.11-0.994-0.17-2.096-0.315-3.004
		c1.442-0.084,2.91-0.082,4.412,1.462c0.162,0.154,0.418,0.172,0.58,0.027c0.171-0.146,0.188-0.407,0.051-0.585
		c-0.008-0.011-0.017-0.015-0.025-0.027c-1.86-2.486-3.746-3.754-5.47-3.801C272.374,154.461,272.255,153.595,272.11,152.755
		L272.11,152.755z M173.088,157.036c0.308,0.17,0.641,0.248,0.956,0.398c4.787,3.513,8.884,5.549,12.834,6.222
		c4.131,0.702,8.099,0.02,12.578-1.622h0.025c0.939-0.415,2.773-0.862,4.967-1.196c2.193-0.334,4.779-0.565,7.322-0.585
		c2.534-0.02,5.025,0.174,7.022,0.665c1.399,0.345,2.39,0.884,3.148,1.516c-3.968-0.83-7.73-1.121-12.339-0.877
		c-0.111,0.004-0.213,0.052-0.29,0.133c-0.146,0.142-0.315,0.247-0.29,0.584c0.009,0.169,0.153,0.333,0.265,0.399
		c0.11,0.065,0.205,0.068,0.29,0.079c0.341,0.045,0.726-0.014,1.263-0.079c1.084-0.133,2.646-0.343,4.258-0.213
		c1.604,0.13,2.355,0.189,5.965,1.355c0.265,0.255,0.401,0.595,0.504,0.958c-0.128-0.046-0.273-0.104-0.47-0.16
		c-0.418-0.116-0.989-0.25-1.698-0.399c-1.416-0.3-3.37-0.63-5.572-0.877c-4.395-0.495-9.813-0.635-14.105,0.664h-0.025
		c-3.729,1.529-8.636,2.289-13.448,1.489c-4.549-0.755-8.969-2.967-12.34-7.152C173.626,157.916,173.37,157.459,173.088,157.036
		L173.088,157.036z M469.118,164.666c-8.652,10.438-13.192,19.304-15.564,25.474c-1.425,3.704-2.15,6.485-2.722,8.081
		c-0.248,0.691-0.487,1.024-0.632,1.195c-1.109-0.904-2.228-1.75-3.404-2.5c0.017-0.392,0.042-0.811,0.29-1.51
		c0.315-0.93,0.827-2.074,1.502-3.405c1.356-2.662,3.396-6.042,5.947-9.736C458.367,176.726,463.402,170.455,469.118,164.666
		L469.118,164.666z M273.586,170.196c2.713,1.827,5.384,3.986,6.843,7.152c1.17,2.543,1.588,5.751,0.666,9.941
		c-0.247-2.022-1.101-3.737-2.406-4.838c-1.093-0.913-2.432-1.408-3.806-1.434c-0.913-0.017-1.826,0.29-2.696,0.743
		c0.272-1.63,0.494-3.175,0.69-4.6c0.367-0.094,0.888-0.128,1.554,0.111c0.768,0.265,1.63,0.751,2.432,1.331
		c0.811,0.572,1.553,1.263,2.091,1.937c0.537,0.674,0.854,1.323,0.87,1.809c0.009,0.23,0.188,0.401,0.418,0.401
		c0.239-0.008,0.436-0.196,0.427-0.427c-0.025-0.623-0.333-1.229-0.742-1.834c-0.128-0.239-0.128-0.453-0.29-0.691
		c-0.598-0.896-1.383-1.8-2.219-2.637s-1.741-1.587-2.534-2.125c-0.623-0.426-1.144-0.708-1.664-0.793
		C273.364,172.826,273.518,171.42,273.586,170.196L273.586,170.196z M243.472,171.768c0.896,2.202,1.109,3.985,0.768,5.368
		c-0.375,1.493-1.297,2.62-2.62,3.507c-2.295,1.562-5.699,2.261-8.798,2.765c-0.315-0.094-0.879-0.162-1.032-0.264
		c-0.162-0.111-0.205-0.213-0.23-0.291c-0.034-0.077-0.034-0.136,0-0.239c0.009-0.034,0.06-0.068,0.077-0.102
		c0.137-0.171,0.179-0.291,0.443-0.512c0.495-0.393,1.187-0.871,1.988-1.408c1.588-1.066,3.627-2.44,5.624-4.25
		C241.065,175.087,242.337,173.517,243.472,171.768L243.472,171.768z M299.8,173.44c32,1.229,40.465,3.439,61.577,5.905
		c14.601,1.698,27.98,5.606,37.674,8.004c0.068,0.018,0.12,0.034,0.188,0.052c-9.43,2.346-13.756,8.26-15.062,14.114
		c-0.76,3.405-0.58,6.75,0,9.412c0.196,0.905,0.495,1.587,0.769,2.312c-11.315-6.895-29.082-15.129-46.046-22.144
		c-9.285-3.84-18.219-7.287-25.498-9.89c-6.281-2.245-10.897-3.695-13.952-4.412C299.22,175.719,299.195,174.413,299.8,173.44z
		 M297.343,181.154c0.392,0.06,0.836,0.153,1.638,0.393c1.024,0.315,2.321,0.768,3.857,1.331c3.055,1.118,6.988,2.662,11.332,4.412
		c8.67,3.507,18.944,7.842,26.948,11.17c8.772,3.652,21.044,10.888,31.121,16.486c0.504,0.273,0.905,0.495,1.4,0.768
		c-0.495-0.008-0.88-0.094-1.4-0.077c-3.379,0.094-7.381,0.76-11.332,2.236c-7.62,2.833-15.087,8.772-17.707,19.542
		c-0.29-0.427-0.461-0.743-0.793-1.204c-4.455-6.178-12.331-15.573-23.058-29.294c-6.63-8.482-13.209-14.669-17.441-19.063
		c-2.116-2.202-3.645-3.977-4.275-5.265C297.325,181.982,297.275,181.521,297.343,181.154z M242.866,182.059
		c0.495,2.628,0.538,4.574,0.18,5.871c-0.376,1.399-1.118,2.176-2.245,2.688c-1.663,0.751-4.352,0.836-7.312,0.981
		c-1.109-0.171-1.792-0.555-2.167-1.067c-0.401-0.538-0.504-1.237-0.401-2.014c0.196-1.527,1.237-3.277,2.167-4.122h0.052
		c0.307,0.008,0.358-0.034,0.87,0.025c0.085,0,0.103-0.085,0.162-0.137C237.669,184.039,240.758,183.526,242.866,182.059
		L242.866,182.059z M414.377,187.853c0.052,0.068,0.146,0.111,0.188,0.188c0.256,0.478,0.238,1.126-0.034,1.8
		c-0.265,0.683-0.777,1.357-1.375,1.81c-0.025,0.025-0.051,0.008-0.076,0.025c0.324-0.41,0.563-0.871,0.632-1.348
		c0.085-0.572,0.017-1.152-0.154-1.681c0.094-0.051,0.23-0.094,0.316-0.154C414.096,188.322,414.215,188.075,414.377,187.853z
		 M296.071,188.57c0.205,0.119,0.282,0.094,0.556,0.315c1.296,1.067,3.191,3.183,5.418,5.905c4.446,5.436,10.283,13.32,15.958,20.42
		c5.879,7.364,10.572,15.83,14.736,22.145c0.666,1.006,1.298,1.834,1.929,2.713c-1.979-0.58-4.181-1.041-6.655-1.058
		c-1.323-0.017-2.705,0.085-4.097,0.316c-5.315,0.887-10.854,3.908-15.062,10.444c-0.896-5.333-2.773-11.998-5.068-19.592
		c-3.362-11.119-5.342-15.309-6.707-17.997c-1.366-2.663-2.116-3.798-3.098-8.833c0.008-0.017,0.034-0.034,0.025-0.051
		c-0.171-2.168,0.222-6.298,0.819-9.728c0.299-1.724,0.648-3.277,0.981-4.335C295.901,188.928,295.977,188.775,296.071,188.57
		L296.071,188.57z M270.889,190.029c0.547,0.819,1.289,1.587,2.228,2.372c1.391,1.161,3.004,2.415,4.249,3.985
		c1.246,1.57,2.125,3.456,2.031,5.956c-0.06,1.895-0.973,4.301-2.457,7.049c0.188-1.306,0.137-2.492-0.29-3.456
		c-0.717-1.647-2.1-2.799-3.533-3.644c-1.442-0.845-2.961-1.383-3.968-1.784c-0.239-0.094-0.342-0.145-0.504-0.213
		c0.29-1.084,0.666-1.886,1.169-2.236c0.674-0.469,1.527-0.444,2.449-0.128c0.93,0.307,1.878,0.905,2.646,1.57
		c0.768,0.657,1.331,1.408,1.477,1.775c0.094,0.213,0.324,0.315,0.529,0.239c0.213-0.077,0.332-0.316,0.264-0.529
		c0-0.009,0.009-0.017,0-0.026c0-0.017-0.017-0.042-0.025-0.051c-1.212-3.234-3.516-4.139-4.992-5.188
		c-0.742-0.529-1.288-1.05-1.527-1.997C270.42,192.93,270.505,191.685,270.889,190.029L270.889,190.029z M169.471,190.933
		c3.105-0.11,5.401,1.135,6.63,3.303c-0.375,0.273-0.726,0.256-1.297,0.367c-0.333-1.177-2.27-2.534-3.985-2.79
		c-0.137-0.085-0.307-0.111-0.452-0.026c-0.137,0.085-0.222,0.239-0.213,0.401c0.017,0.162,0.145,0.316,0.298,0.367
		c1.238,0.623,2.604,1.101,2.083,2.236c-0.632,0.008-1.016,0.025-1.528-0.026c-0.025-1.203-2.525-2.33-4.889-3.243
		C167.321,191.164,168.43,190.976,169.471,190.933z M240.587,192.452c0.23,3.157-0.4,4.992-1.477,6.008
		c-1.108,1.041-2.756,1.339-4.599,1.306c-1.801-0.043-3.721-0.427-5.41-0.615c-0.06-0.077-0.086-0.179-0.188-0.188h-0.051
		c-0.512-0.034-0.862-0.162-1.059-0.316c-0.204-0.17-0.298-0.375-0.315-0.666c-0.034-0.58,0.358-1.468,0.973-2.338
		c0.623-0.879,1.442-1.732,2.244-2.312c0.717-0.529,1.332-0.708,1.725-0.691c2.858,0.017,5.572,0.051,7.262-0.06
		C240.05,192.563,240.272,192.486,240.587,192.452z M432.187,194.791c12.476,0.034,28.228,12.766,28.236,31.001
		c0.009,12.664-7.305,33.826-34.347,43.042c-7.569-14.933-21.974-28.202-40.576-34.585c-0.085-0.042-0.179-0.051-0.264-0.025
		c-0.188,0.042-0.342,0.205-0.342,0.393c-0.009,0.196,0.128,0.375,0.315,0.427c20.259,6.955,33.775,22.707,40.448,39.271
		c1.774,4.411,6.178,10.453,10.564,14.549c4.395,4.088,9.429,6.741,14.318,6.861c3.32,0.076,7.04,2.005,8.619,6.323
		c1.237,3.413,1.152,7.773-1.963,12.501c0.538-2.082,0.103-3.823-0.631-5c-1.204-1.93-3.729-2.697-5.385-2.638
		c-2.901,0.12-4.582,1.425-8.533,3.516c-0.214,0.103-0.299,0.367-0.188,0.581c0.059,0.119,1.459,0.256,2.935,0.29
		c0.171,2.304,3.679,26.521,4.224,29.969c2.663,16.836,14.311,8.67,16.299,8.985c3.807,0.598,4.617,1.655,5.863,2.876
		c-1.314,0.103-2.339,4.002-1.689,6.588c-4.702,3.43-9.447-1.775-12.92-1.81c-4.011,0.103-8.354,2.867-12.945,4.31
		c-4.207,1.323-6.297,2.364-11.571-0.051c0.819-0.239,1.801-0.529,1.878-0.529c0.11-0.009,0.222,0,0.29,0
		c0.076-0.009,0.094-0.009,0.188-0.034c0.162,0,0.308-0.103,0.367-0.265c0.068-0.153,0.043-0.324-0.077-0.452
		c-0.119-0.119-0.29-0.162-0.452-0.103c0.051-0.009-0.017-0.009-0.077,0h-0.265c-0.222,0.009-0.512,0.017-0.87,0.025
		c-0.717,0.009-1.655,0.025-2.645,0.025c-1.972,0.009-4.113,0-4.967,0c-2.244,0-5.487,0.675-8.218,2.15
		c-2.722,1.485-4.762,3.312-7.288,3.277c-1.425-0.025-2.909-0.273-4.146-1.229c0.64-2.296,0.537-5.291-1.194-7.816l-0.419-0.026
		c2.936-0.409,3.968-1.895,5.914-1.937c2.287-0.06,2.262,4.565,14.088-3.004c0.137-0.077,0.239-0.214,0.23-0.376
		c0-0.162-0.094-0.324-0.23-0.4c-0.145-0.068-0.324-0.043-0.451,0.06c-10.454,4.744-7.202,1.16-12.579,1.408
		c-5.103,0.229-5.256,1.92-8.319,1.886c-1.588-0.018-3.465-0.794-3.857-1.545c1.161-0.272,1.639-4.207,1.032-6.246
		c0.009-0.086,0.068-0.171,0.077-0.214c0.052-0.179-0.043-0.366-0.188-0.478c0.674-0.811,2.509-1.144,4.146-1.144
		c1.485,0.025,3.499,1.408,5.82,2.39c2.312,0.99,4.369-0.819,7.211,1.066c0.204,0.119,0.46,0.043,0.58-0.162
		c0.119-0.204,0.042-0.461-0.162-0.58c-0.998-0.563-3.089-2.773-5.436-3.78c-1.477-0.623-3.191-1.007-4.787-1.271
		c-1.102-1.032-3.063-2.842-2.8-3.004c0.563-0.35,1.127-0.818,1.613-1.408c0.486-0.589,0.896-1.28,1.032-2.021
		c0.086-0.487-0.042-0.684-0.213-1.016c0.043-0.154,0.103-0.248,0.153-0.479c0.606-0.674,0.99-1.007,1.878-1.083
		c1.373,0.136,2.167,0.631,3.302,1.749c1.144,1.126,2.355,2.79,3.465,4.762c1.638,2.927,3.849,4.591,6.101,6.084
		c-0.716,0.589-1.569,1.314-1.638,1.306c-0.111-0.009-0.196-0.051-0.393,0.051c-0.222,0.103-0.308,0.342-0.214,0.563
		s0.333,0.333,0.555,0.239c0.052,0,0.146,0,0.265,0.025c0.239,0.043,0.572,0.145,0.974,0.238c0.802,0.188,1.859,0.427,2.96,0.59
		c1.102,0.153,2.245,0.213,3.277,0.025c1.032-0.188,1.997-0.641,2.509-1.57c3.516-6.34,3.183-15.804,1.16-24.227
		c-2.014-8.379-8.038-19.788-8.269-19.882c-0.239-2.791-7.134-11.256-8.636-9.336c0.018-0.315,0.086-0.606-0.025-0.956
		c-0.179-0.528-0.461-1.135-0.845-1.732c-0.776-1.194-1.911-2.466-3.123-3.507c-1.203-1.041-2.466-1.852-3.644-2.048
		c-0.589-0.094-1.187-0.034-1.664,0.29c-0.128,0.094-0.162,0.315-0.265,0.427c-0.188-0.605-0.513-1.212-0.974-1.86
		c-0.853-1.169-2.056-2.381-3.336-3.345c-1.271-0.973-2.603-1.698-3.771-1.92c-0.589-0.103-1.161-0.094-1.639,0.162
		c-0.043,0.025-0.043,0.102-0.077,0.136c-0.162-0.469-0.393-0.93-0.742-1.441c-0.819-1.152-2.073-2.406-3.49-3.371
		c-1.416-0.964-2.978-1.646-4.438-1.596c-0.811,0.025-1.536,0.367-2.167,0.956c-0.043-0.931-0.29-1.86-0.769-2.739
		c-0.87-1.612-2.304-3.089-3.882-4.147c-1.579-1.066-3.286-1.74-4.754-1.646c-0.733,0.043-1.416,0.307-1.928,0.819l-0.025,0.025
		c-0.163-0.981-0.504-1.903-1.136-2.654c-1.117-1.331-2.799-2.287-4.522-2.875c-1.715-0.581-3.473-0.769-4.855-0.504
		c-0.699,0.137-1.306,0.367-1.749,0.802c-0.111,0.111-0.18,0.256-0.265,0.393c-0.052-0.076-0.009-0.188-0.077-0.265
		c-0.401-0.494-0.964-0.955-1.638-1.356c-1.349-0.802-3.149-1.425-4.941-1.698c-0.896-0.137-1.801-0.196-2.637-0.137
		c-0.845,0.068-1.604,0.248-2.278,0.589c-0.836,0.427-1.356,1.237-1.639,2.202c-0.461-0.751-1.083-1.357-1.954-1.673
		c-1.468-0.537-3.319-0.537-5.068-0.214c-1.75,0.325-3.413,0.974-4.523,1.835c-0.324,0.256-0.469,0.598-0.682,0.904
		c-0.239-0.188-0.385-0.452-0.691-0.58c-1.237-0.554-3.021-0.742-4.805-0.614s-3.559,0.571-4.753,1.485
		c-0.606,0.461-1.066,1.041-1.246,1.758c-0.009,0.051,0.009,0.11,0,0.162c-0.4-0.23-0.759-0.486-1.297-0.589
		c-1.587-0.299-3.669-0.128-5.598,0.4c-1.92,0.529-3.695,1.392-4.626,2.654c-0.409,0.572-0.605,1.237-0.555,1.945
		c-0.315-0.103-0.562-0.299-0.921-0.35c-1.63-0.204-3.627,0.153-5.419,0.802c-1.783,0.649-3.37,1.579-4.198,2.766
		c-0.29,0.418-0.436,0.904-0.478,1.382c-0.521-0.222-1.05-0.443-1.664-0.478c-1.673-0.103-3.584,0.384-5.257,1.194
		c-1.673,0.812-3.123,1.92-3.755,3.218c-0.153,0.315-0.247,0.647-0.29,0.98c-0.614-0.103-1.254-0.145-1.895-0.051
		c-0.537,0.085,0.479-1.852,1.477-3.669c0.683-0.88,1.246-1.732,2.057-2.688c0.23-0.051,0.375-0.273,0.324-0.504
		c-0.06-0.222-0.308-0.375-0.529-0.315c-0.06,0.009-0.111,0.025-0.162,0.051c-4.088,1.946-7.501,6.955-9.933,12.707
		c-2.432,5.76-3.857,12.271-3.78,17.313v0.052c0.571,4.897,2.397,7.296,3.49,9.574c1.083,2.27,1.536,4.42-0.401,9.275
		c0,0.009,0.009,0.018,0,0.026c-1.237,2.482-1.407,3.14-4.83,4.838c3.798-7.816-8.183-12.493-21.35-5.129
		c-0.154,0.061-0.248,0.205-0.265,0.376c-0.009,0.162,0.068,0.315,0.213,0.393c0.146,0.085,0.315,0.068,0.452-0.025
		c0.947-0.196,1.545-0.214,2.398-0.367c1.689,3.166-5.359,9.941-9.745,16.265c-2.312,3.345-8.551,11.896-8.56,15.932
		c-0.008,4.036,0.99,5.956,4.147,5.905c0.828-0.018,2.355,0.068,4.173-0.324c1.817-0.394,4.515-1.408,6.161-1.408
		c1.612,0,2.628,0.128,4.224,1.434c-0.461,0.188-3.771,6.024-1.664,8.295c-0.162,0.409-1.706,0.605-2.167,0.613
		c-0.931,0.018-3.405-1.049-4.805-1.519c-2.815-0.93-4.07-1.672-7.006-1.621c-3.021,0.06-7.629,1.297-10.939,2.449
		c-3.303,1.151-6.221,2.005-13.5,2.235c-0.921,0.025-1.945-0.188-2.85-0.427c1.203-1.886,1.937-2.415,2.005-2.423
		c0.077,0,0.094-0.009,0.188-0.026c0.171,0,0.333-0.11,0.393-0.265c0.068-0.153,0.018-0.332-0.102-0.452
		c-0.12-0.119-0.291-0.162-0.453-0.103c0.061-0.017-0.017-0.008-0.076,0c-0.06,0-0.153-0.008-0.265,0
		c-0.214,0-0.512,0.018-0.87,0.026c-0.717,0.008-7.578,1.254-10.309,2.739c-2.722,1.484-4.232,4.958-6.759,4.915
		c-1.425-0.018-1.979,0.017-3.226-0.931c1.187-5.674-2.875-7.347-1.058-8.798c1.911,0.256,9.045,1.17,15.718-3.062
		c0.146-0.068,0.248-0.205,0.239-0.367c0-0.162-0.094-0.333-0.239-0.401c-0.136-0.068-0.315-0.043-0.443,0.051
		c-3.755,2.381-6.469-1.996-9.403-1.749c-5.095,0.418-3.942,1.34-7.006,1.297c-1.588-0.017-3.465-0.794-3.857-1.535
		c1.05-2.245,2.799-5.359,1.852-7.074c0.64-0.846,1.562-0.982,3.226-0.982c1.477,0.018,2.202,1.383,4.515,2.364
		c8.209,4.215,5.785,0.888,12.074,3.191c0.205,0.12,0.461,0.043,0.58-0.162c0.12-0.205,0.205-1.109-0.58-1.169
		c-7.074-1.032-9.054-3.917-10.649-5.504c-0.504-0.495-1.689-0.837-2.961-1.093c-3.414-3.157-3.414-5.965-3.089-6.169
		c0.562-0.342,2.406-2.825,2.039-3.431c0.751-0.87,1.297-0.598,2.295-0.691c3.474,0.086,7.108,5.351,6.102,7.373
		c-0.06,0.11,3.013,2.918,4.89,5.205c1.477,1.801,4.565,5.504,8.61,4.762c0.051,0.103,0.103,0.205,0.213,0.239
		c0.146,0.042,0.316,0.008,0.427-0.103c7.681-6.964,13.244-18.159,16.931-28.109c1.843-4.975,3.217-9.65,4.121-13.32
		c0.905-3.669,1.349-6.264,1.349-7.364c-0.009-5.589-1.314-14.473-1.187-23.107c0.111-7.911,1.502-15.515,5.965-20.208
		c1.093-0.213,2.228-0.512,3.354-0.93c2.85-1.041,5.64-2.833,7.85-5.316c0.086,0.657,0.205,1.357,0.427,2.1
		c0.479,1.673,1.289,3.507,2.398,5.265c2.21,3.481,5.632,6.647,10.095,7.313h0.025c0.034,0.009,0.068,0.025,0.103,0.025
		c0.23,0.068,0.47-0.06,0.529-0.29c0.017-0.043-0.052-0.06-0.052-0.103c0-0.017-0.025-0.017-0.025-0.034
		c-0.017-0.162-0.043-0.35-0.213-0.393c-0.043-0.025-0.085-0.034-0.128-0.06c-0.598-0.094-0.938-0.342-1.195-0.717
		c-0.247-0.367-0.4-0.896-0.418-1.57c-0.043-1.331,0.41-3.123,1.084-4.967c0.521-1.433,1.203-2.781,1.852-4.07
		c1.288,2.791,3.209,5.786,6.314,7.715c3.602,2.235,8.567,2.893,14.951,0.076c0.017-0.008,0.034,0.009,0.051,0
		c0.052-0.017,0.086-0.033,0.137-0.051c0.077-0.051,0.068-0.162,0.103-0.239c0.051-0.051,0.137-0.042,0.162-0.11
		c0.017-0.06-0.052-0.103-0.06-0.154c0-0.008-0.018,0.009-0.026,0c-0.017-0.128-0.008-0.281-0.128-0.35
		c-4.762-2.287-6.109-5.111-6.238-7.842c-0.067-1.477,0.223-2.885,0.606-4.199c2.552,2.885,5.606,5.154,8.328,6.196
		c1.502,0.571,2.894,0.802,4.037,0.554c0.571-0.119,1.023-0.418,1.399-0.827c0.17,0.589,0.384,1.092,0.691,1.493
		c0.307,0.401,0.733,0.648,1.211,0.828c0.06,0.921-0.11,1.63-0.503,2.039c-0.495,0.529-1.246,0.708-1.954,0.563h-0.026h-0.025
		h-0.025h-0.052l-0.051,0.025h-0.025c-0.025,0.009-0.043,0.018-0.06,0.025c-0.034,0.034-0.077,0.068-0.103,0.111
		c-0.018,0.008-0.034,0.034-0.052,0.051l-0.025,0.051c-0.042,0.086-0.051,0.18-0.025,0.265v0.026c0,0.017,0.009,0.042,0.025,0.06
		v0.025l0.025,0.051c0.061,0.086,0.171,0.086,0.239,0.162c0.009,0.009,0.009,0.034,0.025,0.052c0.299,0.35,0.657,0.605,1.059,0.768
		c0.146,0.061,0.29,0.095,0.443,0.137c0.163,0.034,0.316,0.12,0.479,0.128c0.128,0.018,0.238-0.102,0.366-0.102
		c0.248,0,0.47,0.094,0.717,0.051c1.271-0.196,2.611-0.888,3.746-1.81c1.144-0.921,2.074-2.064,2.569-3.294
		c0.486-1.237,0.494-2.603-0.342-3.694c-0.043-0.051-0.111-0.025-0.162-0.051c0.137-0.974,0.188-2.057,0.103-3.277
		c0.435-1.28,1.399-2.901,2.986-4.54c1.732-1.792,4.088-3.584,6.844-4.898c5.248-2.5,11.998-3.217,19.132,0.478
		c0.111,0.111,0.23,0.273,0.342,0.375c0.589,0.529,1.194,0.786,1.792,1.118c0.162,1.075-0.052,1.741-0.529,2.099
		c-0.503,0.384-1.314,0.495-2.031,0.376c-0.034-0.009-0.068,0-0.102,0c-0.043-0.009-0.094-0.009-0.137,0
		c-0.086,0.008-0.171,0.042-0.239,0.102c-0.042,0.043-0.077,0.103-0.103,0.162v0.026c-0.025,0.094-0.017,0.196,0.025,0.29v0.026
		l0.026,0.026v0.025h0.025c0.052,0.068,0.11,0.103,0.162,0.162c0.299,0.384,0.657,0.666,1.058,0.879
		c0.163,0.094,0.325,0.146,0.495,0.213c0.223,0.077,0.436,0.12,0.666,0.162c0.239,0.043,0.461,0.171,0.708,0.18
		c1.195,0.051,2.44-0.342,3.49-0.956c1.058-0.615,1.954-1.468,2.381-2.5c0.265-0.64,0.238-1.356,0.051-2.074
		c0.205-0.546,0.239-1.169,0.052-1.886c-0.153-0.58-0.58-1.322-0.947-2.048c-0.018-0.896,0.068-1.766,0.179-2.628
		c1.434-4.377,3.712-7.006,6.716-8.567c3.294-1.715,7.519-2.202,12.229-2.125c16.009,0.273,27.008,3.865,35.746,7.39
		s15.24,7.117,22.271,6.972c6.622-0.136,12.724-1.707,17.255-5.077c4.531-3.379,7.398-8.636,7.398-15.633
		c0-2.603-0.845-4.847-1.963-6.92c-2.082-3.875-5.546-6.81-9.19-8.132c-1.399-0.503-2.808-0.794-4.173-0.828
		c-1.365-0.026-2.68,0.205-3.856,0.776c-2.355,1.135-3.926,3.712-3.908,7.253c0.017,3.72,3.148,6.511,6.707,6.571
		c3.481,0.06,7.202-2.62,8.985-8.482c1.306,1.135,2.467,2.518,3.328,4.07c-0.76,5.615-3.345,8.926-6.477,11.008
		c-3.184,2.116-6.989,2.884-9.797,3.029c-7.363,0.367-15.582-7.108-15.514-17.553C411.535,202.786,419.574,194.756,432.187,194.791
		L432.187,194.791z M177.952,195.584c3.917,3.567,0.077,6.212,0.709,10.266c2.73,16.64,9.778,18.696,10.939,25.924
		c3.874,24.081,14.608,35.559,15.352,36.369c0.358,0.597,0.811,1.058,1.399,1.306c-0.248,1.895,0.213,4.855,1.237,7.629
		c0.973,2.62,2.457,5.009,4.471,6.041v0.025c0.077,2.168,0.88,4.822,2.193,7.101c1.271,2.219,3.056,4.07,5.172,4.65
		c0.776,0.836,1.279,1.186,1.988,1.911c1.731,3.934-10.096,8.235-15.198,9.763c-1.817,5.205-7.885,9.396-12.441,9.301
		c-3.371-0.068-3.627-0.665-5.7-1.724c7.33-1.34,10.12-1.092,9.796-18.185c0-0.366-0.017-0.665-0.025-0.879
		c-0.009-0.11-0.018-0.196-0.025-0.265c0-0.034,0.008-0.051,0-0.085c-0.009-0.025-0.018-0.043-0.052-0.128
		c-0.06-0.188-0.23-0.308-0.427-0.299c-0.128,0.017-0.238,0.077-0.315,0.188c-0.068,0.111-0.094,0.248-0.051,0.376v0.025v0.025
		c-3.508,10.505-13.287-30.089-15.352-44.851c-0.487-3.49,3.233-10.965,2.85-15.027c0.146-0.12-0.845-0.239-0.922-0.154
		c-0.281,1.766-1.049,3.78-1.877,5.769c-0.009,0.008-0.009,0.017-0.025,0.025c-0.23,0.154-0.529,0.341-0.845,0.615
		c-0.632,0.538-1.383,1.331-2.057,2.389c-1.365,2.116-2.97,3.371-1.059,8.431c0.717,1.86-2.645,5.315-3.934,6.059
		c0.103-3.013-4.872-3.942-5.76-3.481c-0.452-3.303,1.007-7.536,3.269-9.464c2.577-2.586,4.616-10.965,3.012-14.813
		c-0.128-0.418-0.546-0.674-0.973-0.581c-0.239,0.042-0.461,0.205-0.58,0.418c-0.12,0.222-0.137,0.461-0.052,0.691
		c0.316,0.529,0.427,1.255,0.47,2.049c0,0.008,0.009,0.025,0,0.034c-1.161,0.99-3.934-4.455-1.579-6.093
		c0.436,0.06,0.981,0.213,1.264,0.162c0.46-0.094,0.776-0.546,0.69-1.015c-0.094-0.461-0.546-0.751-1.007-0.666
		c-1.527,0.308-6.255-1.314-9.139-3.132c-8.414,2.85-9.976,2.458-12.34-0.375c1.426-1.852,0.205-4.932,0.188-5.154
		c1.63-1.4,3.114-1.545,4.804-1.204c0.879,0.18,3.422,0.871,4.967,2.347c2.986-1.075,7.851,1.289,8.508,3.457
		c0.068,0.281,0.29,0.46,0.555,0.554c0.025,0.025,0.119,0.239,0.137,0.239c0.315,0.103,0.674-0.017,0.896-0.264
		s0.265-0.597,0.128-0.904c-0.563-2.04-3.038-12.083-10.377-12.152h-0.033c0.042,0-3.772-0.76-3.883-4.89
		c1.34-0.478,4.488-2.816,4.258-5.427c0.052,0.017,0.068,0.008,0.128,0.025c3.652,1.033,5.376,4.855,5.394,6.622
		c1.434,1.006,6.545,2.406,7.901,15.821c-0.025,0.333,0.153,0.64,0.444,0.802c0.298,0.153,0.665,0.128,0.93-0.085
		c0.256-0.205,0.367-0.554,0.29-0.878c-0.307-3.269-0.87-5.888-1.562-8.082c0.103-3.72-0.665-6.297-3.276-9.625
		c-0.018-0.051-0.043-0.111-0.077-0.153c-1.314-2.261-1.527-4.583,0.077-6.332C173.976,196.984,177.74,195.644,177.952,195.584
		L177.952,195.584z M155.996,198.033c1.024-0.017,2.04,0.085,2.986,0.265c0.095,0.315,0.052,1.28-0.025,1.945
		c-0.094,0.137-0.256,0.282-0.375,0.427c-1.792-0.307-5.206-1.869-6.52-0.162c-0.196,0.077-0.342,0.205-0.316,0.341
		c0.026,0.145,0.205,0.247,0.419,0.299c0.213,0.042,0.452,0.017,0.605-0.085c1.425-0.367,3.687,0.051,4.258,0.99
		c-0.204,0.137-0.478,0.265-0.717,0.393c-1.553-0.375-3.908-0.726-6.289,0.691C149.997,199.296,152.933,198.093,155.996,198.033
		L155.996,198.033z M226.004,200.636c0.989-0.025,2.253,0.103,3.856,0.35c1.903,0.29,4.028,0.605,6.025,0.478
		c0.375-0.025,0.699-0.154,1.058-0.213c0.632,3.243,0.162,5.146-0.973,6.17c-1.203,1.075-3.218,1.374-5.47,1.28
		c-2.253-0.103-4.711-0.546-6.793-0.802c-0.358-0.043-0.623-0.026-0.947-0.052c-0.333-0.06-0.665-0.127-0.845-0.239
		c-0.256-0.162-0.384-0.358-0.452-0.614c-0.137-0.512,0.043-1.323,0.529-2.202C222.872,203.179,224.587,201.489,226.004,200.636
		L226.004,200.636z M220.697,209.306c1.032,0.042,2.116,0.103,3.754,0.35c2.202,0.333,4.753,0.699,7.108,0.605
		c0.376-0.009,0.708-0.136,1.075-0.179c0.572,4.002-0.119,6.05-1.425,7.125c-1.297,1.066-3.362,1.237-5.734,1.058
		c-2.364-0.171-4.967-0.64-7.288-0.691c-0.554-0.008-1.015,0.137-1.535,0.188c-0.052-0.009-0.103-0.043-0.154-0.051
		c-0.136-0.017-0.281,0.025-0.427,0.025c-0.188-0.136-0.35-0.273-0.418-0.503c-0.188-0.597,0-1.655,0.555-2.79
		C217.146,212.489,219.015,210.466,220.697,209.306L220.697,209.306z M267.143,211.226c2.867,0.563,5.453,2.048,6.998,4.25
		c1.459,2.074,1.962,4.762,1.058,7.894c-0.247-0.854-0.58-1.579-1.084-2.014c-0.776-0.683-1.766-0.871-2.722-0.828
		c-1.527,0.077-2.876,0.674-3.721,1.067c-0.094-0.384-0.213-0.666-0.29-1.092c-0.137-0.76-0.171-1.758-0.239-2.663
		c0.444-0.154,1.144-0.239,1.979-0.179c1.758,0.111,3.917,0.76,4.941,1.647c0.179,0.127,0.436,0.11,0.58-0.052
		c0.146-0.17,0.128-0.426-0.025-0.588c-2.44-2.125-4.292-2.611-5.598-2.953c-0.657-0.17-1.169-0.315-1.562-0.58
		c-0.171-0.12-0.299-0.452-0.452-0.64C267.015,213.47,267.067,212.395,267.143,211.226L267.143,211.226z M291.292,214.81
		c0.18,0.026,0.495,0.162,0.845,0.589c0.358,0.435,0.734,1.101,1.135,1.911c0.785,1.63,1.613,3.883,2.347,6.307
		c1.477,4.83,2.688,10.368,3.123,13.133c1.485,9.446,1.536,15.565,1.929,19.353c0.034,0.385,0.111,0.649,0.154,0.981
		c-0.632,0.401-1.399,0.58-2.347,0.427c-1.187-0.188-2.535-0.785-3.883-1.621c-2.637-1.621-5.154-4.189-6.264-6.298
		c-0.009-0.077-0.009-0.154-0.051-0.213c-0.094-0.12-0.23-0.179-0.376-0.162h-0.025c-0.018,0-0.025-0.025-0.051-0.025
		c-0.205-0.008-0.385,0.145-0.427,0.341c-0.026,0.136-0.026,0.136-0.052,0.239c-1.971,2.295-2.986,4.42-3.191,6.306
		c-0.222,1.997,0.401,3.712,1.399,5.104c0.998,1.391,2.364,2.475,3.695,3.217c0.733,0.409,1.297,0.495,1.928,0.691
		c-2.568,0.35-5.726,0.776-8.798-0.128c-3.635-1.075-6.997-3.969-8.507-11.333c0-0.017-0.043,0-0.052-0.025
		c0.018-0.094,0.103-0.179,0.052-0.265c-0.086-0.162-0.265-0.239-0.444-0.213c-0.085,0.017-0.153,0.051-0.213,0.11
		c-0.018,0.009-0.034,0.034-0.052,0.052c-3.208,2.483-5.265,6.383-5.947,9.805c-0.342,1.732-0.35,3.328,0.077,4.608
		c0.034,0.085,0.128,0.119,0.162,0.204c-3.252-1.902-5.274-4.258-6.392-6.912c-1.365-3.226-1.417-6.903-0.931-10.658
		c0.103-0.127,0.18-0.239,0.239-0.315c0.043-0.042,0.077-0.068,0.111-0.111c0.042-0.06,0.085-0.111,0.102-0.137
		c0.009-0.008,0-0.025,0-0.025c0.026-0.026,0.061-0.043,0.077-0.077c0.018-0.017,0.025-0.008,0.06-0.136
		c0-0.009,0.026-0.051,0.026-0.051v-0.103l-0.086-0.188l-0.179-0.136l-0.188-0.052l-0.103,0.026c0,0-0.06,0.042-0.085,0.051
		c-0.077,0.051-0.085,0.042-0.103,0.06c-0.017,0-0.034-0.034-0.051-0.025c-0.137,0.008-0.256,0.094-0.316,0.205
		c-1.288,2.193-4.557,5.598-8.618,7.902c-3.635,2.065-7.859,3.114-11.861,1.912c2.466-8.142,6.887-13.21,11.656-16.035
		c4.574-2.705,9.345-3.371,12.859-3.03c0,0.026-0.017,0.034-0.025,0.052c-0.546,1.997-0.836,4.659-0.87,7.688v0.025v0.051
		c-0.017,0.239,0.162,0.436,0.393,0.453c0.239,0.017,0.435-0.163,0.452-0.401v-0.051c0.017-0.034,0.077-0.017,0.077-0.051
		c0.478-2.449,2.354-5.589,4.599-7.816c1.127-1.118,2.339-2.005,3.491-2.5c0.878-0.375,1.681-0.427,2.432-0.29
		c-0.085,0.768-0.205,1.399-0.239,2.287c-0.162,3.55-0.076,7.773-0.11,10.794v0.103c0,0.213,0.145,0.384,0.35,0.427h0.025
		c0.009,0,0.009,0.025,0.025,0.025c0.103,0.009,0.129-0.103,0.214-0.153c0.068-0.052,0.171-0.052,0.205-0.137
		c0.008-0.018,0-0.034,0-0.052c0.008-0.017,0.025-0.017,0.025-0.025c0.009-0.025,0-0.06,0-0.085
		c1.434-6.221,2.961-11.545,4.412-14.916c0.733-1.698,1.476-2.91,2.09-3.456c0.308-0.273,0.555-0.375,0.768-0.367
		c0.171,0,0.367,0.128,0.581,0.316c0.009,0.034,0.009,0.051,0.025,0.103c0.085,0.256,0.18,0.683,0.265,1.203
		c0.171,1.024,0.358,2.458,0.504,4.062c0.29,3.208,0.521,7.04,0.733,9.625c0.009,0.017,0,0.043,0,0.06
		c0.009,0.23,0.196,0.418,0.427,0.418s0.418-0.188,0.427-0.418c0-0.026-0.009-0.043,0-0.06c0.341-8.286,2.005-16.956,3.669-23.449
		c0.828-3.251,1.682-5.982,2.321-7.817C291.087,215.304,291.164,215.125,291.292,214.81L291.292,214.81z M150.049,217.148
		c0.17,0.443,0.222,0.597,0.35,1.28c-1.024,0.077-2.278,0.35-3.226,1.485c-0.103,0.102-0.146,0.239-0.103,0.375
		c0.034,0.136,0.145,0.248,0.29,0.265c0.137,0.025,0.29-0.043,0.367-0.154c0.691-0.836,1.826-0.794,2.722-0.64
		c-0.009,0.657-0.205,1.297-0.503,1.962c-1.016-0.196-2.449-0.255-3.618,1.443C145.356,219.034,148.24,217.498,150.049,217.148
		L150.049,217.148z M216.207,219.461c1.109-0.103,2.305-0.06,3.542,0.06c2.466,0.222,5.068,0.751,7.424,0.819
		c0.768,0.025,1.477-0.111,2.192-0.213c0.529,4.189-0.256,6.519-1.749,7.851c-1.511,1.34-3.857,1.724-6.468,1.75
		c-2.62,0.034-5.453-0.291-7.953-0.213c-1.161,0.034-2.245,0.179-3.2,0.478c-0.308-0.12-0.478-0.316-0.555-0.717
		c-0.153-0.853,0.299-2.5,1.194-4.172c0.888-1.673,2.159-3.414,3.456-4.625c0.333-0.315,0.648-0.461,0.981-0.691
		C215.456,219.699,215.789,219.503,216.207,219.461L216.207,219.461z M387.848,222.311c0.264,0.051,0.647,0.213,0.878,0.239
		c-0.119,0.444-0.341,0.956-0.665,1.383c-0.068,0.085-0.162,0.102-0.239,0.188c0.137-0.358,0.214-0.734,0.188-1.092
		C387.992,222.763,387.907,222.558,387.848,222.311z M227.062,230.793c1.127,3.942,0.657,6.221-0.733,7.629
		c-1.451,1.468-3.985,2.107-6.844,2.475c-2.867,0.367-6.024,0.478-8.722,1.118c-1.109,0.256-2.082,0.708-2.986,1.22
		c-0.162-0.128-0.35-0.213-0.478-0.478c-0.393-0.87-0.47-2.415-0.265-4.07c0.213-1.655,0.683-3.431,1.271-4.788
		c0.298-0.674,0.605-1.271,0.921-1.672c0.137-0.17,0.223-0.162,0.351-0.265c1.587-0.418,3.396-0.623,5.41-0.589
		c2.772,0.051,5.751,0.299,8.431,0.111C224.724,231.39,225.952,231.176,227.062,230.793L227.062,230.793z M225.27,241.613
		c1.066,1.886,1.673,3.447,1.844,4.651c0.188,1.28-0.034,2.176-0.555,2.901c-1.041,1.442-3.439,2.193-6.341,2.68
		c-2.893,0.495-6.246,0.768-9.113,1.519c-1.519,0.401-2.901,0.974-4.011,1.784c-0.214-0.12-0.436-0.223-0.58-0.504
		c-0.401-0.768-0.486-2.176-0.299-3.695c0.196-1.527,0.665-3.157,1.246-4.419c0.29-0.632,0.589-1.161,0.896-1.537
		c0.18-0.213,0.315-0.247,0.478-0.35c0.999-0.375,2.065-0.7,3.277-0.904c2.842-0.478,6.102-0.589,9.062-1.059
		C222.633,242.441,224.033,242.117,225.27,241.613L225.27,241.613z M343.892,246.716c-0.025,1.399-0.922,2.38-2.091,2.816
		c-0.614,0.23-1.254,0.273-1.877,0.162c-0.086-0.017-0.171-0.051-0.265-0.077c-0.171-0.051-0.29-0.196-0.443-0.265
		c1.22-0.009,2.261-0.324,2.876-0.964c0.435-0.444,0.716-0.964,0.896-1.408c0.025-0.042,0.017-0.06,0.034-0.102
		C343.303,246.878,343.602,246.776,343.892,246.716L343.892,246.716z M226.192,252.672c1.041,1.254,1.681,2.372,1.929,3.328
		c0.265,1.007,0.17,1.825-0.214,2.603c-0.768,1.553-2.773,2.858-5.333,3.984c-2.561,1.127-5.632,2.116-8.456,3.141
		c-1.545,0.563-2.979,1.16-4.25,1.81c-1.459-0.316-2.449-1.11-3.063-2.236c-0.657-1.187-0.888-2.722-0.819-4.198
		c0.06-1.477,0.443-2.901,0.998-3.883c0.068-0.119,0.146-0.162,0.214-0.265c1.34-0.836,3.098-1.331,5.103-1.646
		c2.919-0.47,6.272-0.572,9.242-1.093C223.274,253.91,224.868,253.423,226.192,252.672z M168.6,256.794
		c0.461,0.154,0.939,0.367,1.425,0.589c-0.554,0.931-1.416,2.201-2.696,2.176c-0.162-0.017-0.332,0.052-0.418,0.188
		c-0.094,0.137-0.085,0.342,0,0.479c0.086,0.137,0.256,0.205,0.418,0.188c1.655,0.025,3.081-1.391,3.994-2.338
		c0.571,0.333,1.066,0.657,1.45,1.007c-1.553,1.417-5.077,3.771-8.61,0.375C166.441,259.704,167.892,257.928,168.6,256.794
		L168.6,256.794z M306.635,260.754c0,1.493-0.93,2.765-2.133,3.455c-0.589,0.342-1.647,0.419-1.46,0.351
		c0.726-0.265,1.238-0.768,1.613-1.306s0.605-1.118,0.742-1.621c0.06-0.205,0.043-0.308,0.077-0.478
		C305.918,261.094,306.269,260.916,306.635,260.754L306.635,260.754z M353.799,261.052c2.885-0.137,5.624,1.271,6.341,3.217
		c-0.009,0.119-0.018,0.238-0.026,0.418c-0.033,0.495-0.085,1.178-0.136,1.997c-0.103,1.639-0.257,3.789-0.393,5.931
		c-0.257,3.856-0.461,6.954-0.504,7.68c-3.703,2.782-6.878,0.137-7.927-2.073c-0.137-0.734-0.691-3.627-1.375-7.279
		c-0.375-2.048-0.742-4.113-1.032-5.666c-0.11-0.632-0.213-1.109-0.29-1.545C349.891,261.948,351.854,261.137,353.799,261.052
		L353.799,261.052z M342.202,261.871c1.545,0.034,3.046,0.666,4.147,2.074c0.076,0.46,0.188,1.023,0.315,1.732
		c0.281,1.553,0.674,3.609,1.059,5.657c0.69,3.755,1.263,6.869,1.374,7.476c-1.084,1.817-6.683,3.174-8.722,0.427
		c-0.009-0.061,0.043-0.111,0.025-0.163l-3.721-15.019C337.492,262.98,339.83,261.829,342.202,261.871L342.202,261.871z
		 M227.404,262.614c2.057,1.263,3.456,2.44,4.309,3.516c0.862,1.075,1.178,2.039,1.136,2.918c-0.086,1.775-1.724,3.474-4.173,5.052
		c-2.449,1.587-5.615,3.047-8.585,4.446c-1.45,0.683-2.782,1.348-3.993,2.021c-1.442,0.265-2.705-0.067-3.772-0.903
		c-1.151-0.896-2.099-2.312-2.722-3.832c-0.623-1.519-0.938-3.148-0.896-4.497c0.026-0.904,0.256-1.562,0.581-2.074
		c5.162-2.218,11.477-3.327,15.982-5.342C226.089,263.552,226.721,263.074,227.404,262.614L227.404,262.614z M330.231,263.279
		c1.45-0.11,2.986,0.308,4.386,1.356l3.618,14.438c-1.041,2.688-5.504,3.576-7.313,2.501l-5.444-14.942
		C325.273,265.276,327.508,263.501,330.231,263.279z M364.603,263.544c3.046,0.137,7.466,3.26,7.424,5.931l-3.695,14.626
		c-0.708,1.817-6.127,1.118-7.193-2.79c0-0.009,0.009-0.018,0-0.025c0,0,0.273-4.225,0.555-8.508c0.146-2.15,0.29-4.318,0.401-5.957
		c0.051-0.818,0.076-1.501,0.103-1.996c0.008-0.111,0.017-0.171,0.025-0.265C362.725,263.808,363.587,263.501,364.603,263.544
		L364.603,263.544z M321.381,266.342c0.768,0,1.408,0.222,1.954,0.555l5.632,15.445c-0.605,1.929-7.211,5.529-9.011,3.516
		l-5.607-15.53C314.563,268.424,318.446,266.334,321.381,266.342z M376.412,269.474c3.063,0,6.647,2.757,6.605,6.912l-5.837,14.575
		c-2.083,0.845-7.074-1.195-7.135-5.077l3.935-15.582C374.68,269.79,375.508,269.474,376.412,269.474L376.412,269.474z
		 M309.81,270.43c0.888-0.025,1.767,0.29,2.611,0.853l5.444,15.13c-0.657,2.876-6.238,6.264-8.508,3.746l-6.417-14.678
		c0.033-0.059,0.06-0.289,0.102-0.204C303.197,274.099,306.456,270.549,309.81,270.43z M233.565,272.93
		c3.089,1.92,4.181,3.926,4.07,5.956c-0.12,2.065-1.527,4.275-3.593,6.332c-3.251,3.226-7.782,5.743-11.443,7.441
		c-0.861,0-1.835-0.325-2.824-1.033c-1.152-0.827-2.27-2.014-3.149-3.302c-0.879-1.28-1.501-2.663-1.715-3.772
		c-0.103-0.555-0.103-1.032,0-1.408c0.085-0.29,0.273-0.469,0.478-0.64c5.214-2.355,11.631-4.403,15.771-7.287
		C232.148,274.535,232.908,273.757,233.565,272.93L233.565,272.93z M299.006,275.592c0.837-0.119,1.587,0.018,2.245,0.315
		l6.655,15.216c0.128,3.977-7.766,7.68-9.565,5.981l-5.965-16.623C292.274,278.836,295.917,276.037,299.006,275.592z
		 M387.164,276.95c2.928,0.085,6.903,1.937,6.768,4.65l-5.684,15.394c-2.944,2.228-9.054-2.961-9.225-5.025l5.82-14.413
		C385.39,277.146,386.174,276.916,387.164,276.95L387.164,276.95z M287.537,279.979c0.947-0.308,2.057-0.025,3.252,1.117
		l5.998,16.641c-0.162,1.74-6.749,6.417-10.231,4.36c-0.768-1.895-3.729-8.687-4.438-13.158c0.367-1.46,0.803-2.885,1.323-4.122
		c0.521-1.229,1.066-2.014,1.587-3.029C285.626,281.182,286.488,280.32,287.537,279.979L287.537,279.979z M350.258,282.189
		c0.025,0.025,0.025,0.103,0.051,0.128c0.154,1.254,7.526,2.662,8.405,2.5c-0.546,1.579,4.173,4.668,6.759,5.666
		c0.717,0.931,0.699,2.842,0.605,3.883c-0.238,2.662,0.589,6.051,4.387,8.482c2.475,1.562,10.82,4.48,10.862,11.213
		c0.025,4.847-3.831,6.818-5.572,7.927c1.52-2.867-0.076-5.819-3.302-6.383c-2.245-0.341-7.902-0.699-12.766-0.238
		c-0.47,0.042-0.812,0.461-0.769,0.93c0.043,0.47,0.461,0.819,0.931,0.776c2.15,0.444,3.199,0.324,2.875,2.202
		c-0.008,0.06,0.051,0.085,0.051,0.136c-7.73,6.085-24.413,21.77-24.857,27.726c-0.128,1.681,1.604,3.49,3.883,3.303
		c0.146-0.018,8.141-3.926,11.521-0.905c-1.844,1.852-0.461,6.152-0.504,6.357c-4.283,3.089-9.275-1.297-17.544-1.356
		c-8.277-0.068-15.045,5.333-20.396,5.444c-0.699,0.017-1.041-0.119-1.45-0.239c0.478-0.64,0.861-1.297,0.896-1.297
		c0.077-0.009,0.521-0.273,0.614-0.299c0.163,0,0.299-0.103,0.367-0.265c0.06-0.153,0.034-0.333-0.076-0.452
		c-0.12-0.119-0.299-0.162-0.453-0.103c0.052-0.008-0.017-0.008-0.076,0c-0.068,0-0.162-0.008-0.265,0
		c-0.222,0.009-3.721,0.896-4.702,0.904c-1.979,0.009-6.289,1.469-9.011,2.953c-1.844,0.751-5.394,4.778-10.829,3.558
		c0.641-2.304-0.23-5.272-1.963-7.79c0.316-0.034,0.854-0.785,1.144-1.408c8.047-1.349,7.211,2.765,9.088-0.239
		c1.212-1.945,1.853,3.243,11.836-5.052c0.137-0.076,0.214-0.213,0.205-0.375c0-0.154-0.094-0.299-0.239-0.367
		c-0.137-0.077-0.29-0.068-0.418,0.025c-11.98,4.933-8.414,1.511-13.79,1.758c-5.103,0.23-3.729,1.417-6.793,1.383
		c-1.587-0.025-3.336-1.442-3.72-2.185c1.271-0.299,1.339-4.369,0.393-6.085c0.64-0.844,2.56-1.202,4.224-1.202
		c4.557,0,6.323,4.13,11.128,4.625c3.438-0.009,6.587-2.842,9.429-0.956c0.205,0.119,0.47,0.051,0.581-0.154
		c0.094-0.17,0-0.35-0.129-0.478c20.83,0.683,36.225-44.859,32.939-49.774c0.009-0.137-0.052-0.265-0.153-0.351
		c-0.034-0.025-0.068-0.008-0.111-0.025c-0.41-1.382-1.255-3.217-3.405-3.959c-0.017-0.034-0.008-0.162-0.025-0.188
		c-0.562-0.648-1.587-4.701-5.837-5.265c0.23-1.041,0.367-1.81,0.419-2.338c2.158-0.512,4.479-1.314,4.992-1.972
		C340.854,283.947,350.582,283.708,350.258,282.189L350.258,282.189z M397.174,282.957c2.748,0.018,6.545,2.338,6.869,4.65
		l-4.701,12.263c-2.159,2.543-7.476,0.691-8.218-0.034c-0.538-0.521-0.743-1.442-0.819-2.389l4.966-13.799
		C395.775,283.221,396.389,282.948,397.174,282.957z M237.183,284.314c-0.043,0.622-0.12,1.271-0.162,1.886
		c-0.214,3.729-0.248,7.074-0.316,10.214c0,0.009-0.025-0.009-0.025,0v0.025c-0.623,2.262-1.553,3.645-2.611,4.361
		c-1.066,0.717-2.278,0.793-3.593,0.366c-2.491-0.802-5.23-3.575-7.159-7.253c5.111-1.732,10.266-4.966,13.389-8.832
		C236.909,284.834,236.994,284.57,237.183,284.314z M331.741,285.167c-0.427,5.607-9.403,12.288-12.868,12.178
		c-0.009-0.009-0.025-0.025-0.025-0.034c-0.641-0.538-1.426-0.905-1.954-1.536C315.57,293.505,328.899,285.926,331.741,285.167
		L331.741,285.167z M368.007,288.649c0.034,0.051,0.077,0.103,0.111,0.153c-0.068,0.025-0.137,0.06-0.214,0.085
		C367.956,288.777,367.956,288.752,368.007,288.649z M334.489,288.99c3.532,0.324,4.77,4.515,3.644,5.103
		c0.153,0.214-3.242,7.92-7.031,9.899c-1.28,0.666-3.013,0.333-4.07,0.179c-1.954-0.793-4.131-2.773-4.805-4.838
		c0.973-1.81,6.136-3.508,10.599-10.206C333.421,288.99,333.976,288.948,334.489,288.99L334.489,288.99z M405.819,289.127
		c2.466-0.563,7.373,2.15,7.603,5.846l-2.798,7.688c-1.707,1.254-9.421,1.399-9.507-1.597l4.438-11.775
		C405.657,289.246,405.707,289.152,405.819,289.127z M281.275,295.16c1.501-0.837,3.08,5.393,3.754,7.364l-0.025,0.025
		c0.017,0.35-2.671,7.688-4.522-2.79c0.051-0.623,0.299-2.535,0.504-4.198C281.078,295.441,281.181,295.211,281.275,295.16z
		 M340.324,295.774c0.436,0.58,1.613,0.64,2.006,2.475c-0.443,2.979-1.263,6.537-2.534,10.444c-1.81,0.726-4.967-0.4-6.844-1.484
		c-0.35-0.469-0.632-0.998-0.341-1.682c4.146-2.765,6.169-7.688,6.869-9.463C339.822,295.792,340.155,295.544,340.324,295.774z
		 M414.744,297.046c1.57-0.214,6.05,3.029,6.554,7.236l0.103,0.265c-0.743,2.509-7.023,1.954-8.798-1.195L414.744,297.046z
		 M236.551,300.161c-0.043,1.731-0.128,3.054-0.214,4.224c-0.485-0.444-0.836-1.007-1.083-1.647c0.034-0.042,0.076-0.06,0.103-0.102
		C235.809,301.978,236.201,301.141,236.551,300.161L236.551,300.161z M295.328,332.228c1.187,0.018,1.562,0.257,2.696,1.383
		c1.144,1.118,1.946,3.013,4.046,5.129c1.902,1.911,7.073,4.65,10.12,5.452c-1.066,0.35-2.168,0.589-3.277,0.769
		c-2.875-0.888-6.323,1.245-11.076-2.816c-0.665-0.555-2.423-0.964-4.173-1.254c-0.989-0.803-3.669-2.851-3.379-3.03
		c1.28-2.064,2.723-4.104,2.355-4.701C293.203,332.417,294.151,332.203,295.328,332.228L295.328,332.228z M287.777,332.783
		c1.254-0.265,2.586,0.111,3.593,0.641c-0.146,0.272-0.273,0.537-0.401,0.819c-0.819-0.504-1.835-0.914-3.695-0.479
		c-0.179,0.025-0.315,0.12-0.366,0.265c-0.052,0.146,0,0.324,0.128,0.427s0.315,0.111,0.478,0.051
		c1.511-0.35,2.21,0.248,2.901,0.854c-0.137,0.315-0.299,0.555-0.443,0.803c-0.896-0.666-4.241-2.834-5.129,0.555
		C284.978,334.243,286.275,333.098,287.777,332.783z M403.728,334.43c1.356,0.128,2.321,0.699,2.936,1.117
		c0.051,0.239,0.23,0.461,0.188,0.717c-0.017,0.077-0.085,0.162-0.111,0.239c-1.066-0.657-2.901-1.425-5.017-0.931
		c-0.18,0.026-0.316,0.12-0.367,0.265c-0.06,0.146-0.025,0.299,0.102,0.401c0.129,0.103,0.333,0.137,0.504,0.077
		c1.844-0.436,2.936,1.023,3.857,1.758c-0.358,0.384-0.76,0.742-1.135,0.981c-0.632-0.555-3.985-3.422-6.716,0.4
		C399.564,335.172,401.817,334.251,403.728,334.43L403.728,334.43z M192.374,334.882c1.322-0.256,2.261,0.768,2.799,1.459
		c-0.009,0.111-0.103,0.29-0.077,0.324c0.077,0.086,0,0.29-0.051,0.478c-0.811-0.409-1.818-0.605-3.729-0.162
		c-0.171,0.026-0.315,0.12-0.367,0.265c-0.051,0.146,0,0.299,0.128,0.401c0.137,0.103,0.316,0.137,0.479,0.076
		c1.544-0.358,2.099,0.188,2.747,0.777c-0.324,0.452-0.622,0.733-0.87,0.98c-1.032-0.665-3.601-2.073-4.838,0
		C189.976,336.298,191.273,335.095,192.374,334.882L192.374,334.882z M288.809,337.46c0,0.017,0.034,0.06,0.025,0.06
		c-0.034-0.009-0.051,0.025-0.085,0.025C288.766,337.51,288.783,337.485,288.809,337.46z M282.938,343.979
		c0.103,0,0.103,0.017,0.188,0.025c0.205,0.137,0.614,0.281,0.742,0.4c0.196,0.188,0.247,0.495,0.366,0.743
		c-1.186-0.111-2.653-0.043-3.934,1.007c-0.145,0.085-0.204,0.238-0.188,0.4c0.018,0.162,0.137,0.316,0.29,0.376
		c0.154,0.051,0.308,0.009,0.427-0.111c1.28-1.049,2.697-0.23,3.771,0.188c-0.017,0.461-0.103,0.811-0.204,1.271
		c-1.007-0.837-3.508-2.21-5.581,0.162C278.527,344.431,281.368,343.936,282.938,343.979L282.938,343.979z M398.685,347.673
		c0.341,0.009,0.375,0.052,0.632,0.077c0.119,0.521,0.119,1.066,0.051,1.646c-1.203-0.153-2.808-0.128-4.199,1.016
		c-0.136,0.086-0.204,0.256-0.188,0.427c0.025,0.162,0.111,0.29,0.265,0.341c0.153,0.052,0.342,0.009,0.452-0.102
		c1.067-0.879,2.185-0.436,3.175-0.034c-0.103,0.299-0.179,0.571-0.299,0.827c-1.203-0.452-4.472-1.348-5.043,3.166
		C391.141,348.289,395.971,347.571,398.685,347.673L398.685,347.673z M355.062,350.515c0.009,0.009-0.008,0.128,0,0.137
		c3.063,0.068,8.764,4.02,1.801,8.32c2.321-2.987-1.979-4.062-2.483-4.122c-0.025-0.085,0.018-0.205,0-0.29
		c1.016,0.025,2.014-0.486,3.883,1.382c0.111,0.111,0.18,0.265,0.342,0.291c0.162,0.025,0.307-0.052,0.4-0.188
		c0.086-0.137,0.094-0.299,0.026-0.452c-0.862-1.911-3.294-2.824-4.574-3.132C354.584,351.846,354.772,351.223,355.062,350.515
		L355.062,350.515z M189.072,351.18c0.094,0.461,0.085,0.974-0.051,1.545c-1.212-0.188-2.867-0.196-4.31,0.981
		c-0.137,0.085-0.23,0.239-0.205,0.401c0.018,0.162,0.137,0.315,0.29,0.367c0.153,0.06,0.333,0.017,0.444-0.103
		c1.075-0.88,2.201-0.436,3.199-0.026c-0.256,0.59-0.452,1.041-0.717,1.485c-1.092-0.478-3.123-1.194-4.94,0.589
		C183.508,351.411,187.058,351.002,189.072,351.18L189.072,351.18z M471.969,354.509c1.356,0.435,8.935,3.353,2.619,9.139
		c1.597-4.591-2.833-5.035-3.592-5.103c-0.009-0.196,0.017-0.419,0.025-0.641c1.135,0.111,2.637,0.111,3.277,1.57
		c0.042,0.162,0.179,0.273,0.341,0.29c0.162,0.026,0.333-0.042,0.418-0.179c0.094-0.137,0.085-0.316,0-0.452
		c-0.819-1.886-2.585-2.723-3.746-3.038C471.465,355.507,471.636,354.927,471.969,354.509L471.969,354.509z M404.257,358.546
		c0.247,0.443,0.461,0.973,0.631,1.621c-1.135,0.247-3.132,1.109-4.01,3.114c-0.086,0.137-0.095,0.316,0,0.452
		c0.085,0.137,0.256,0.205,0.418,0.188c0.161-0.025,0.298-0.137,0.35-0.299c0.691-1.57,2.415-1.45,3.566-1.596
		c0.018,0.222,0.043,0.443,0.052,0.665c-0.999,0.094-5.471,0.614-3.908,5.078C394.717,361.694,403.566,358.742,404.257,358.546
		L404.257,358.546z M287.401,358.921c0.188,0.324,0.367,0.598,0.529,1.007c-1.16,0.367-2.713,1.144-3.481,2.901
		c-0.085,0.137-0.094,0.315,0,0.452c0.085,0.137,0.256,0.205,0.418,0.188c0.162-0.026,0.299-0.137,0.351-0.299
		c0.64-1.468,2.158-1.459,3.302-1.57c0.137,0.657,0.188,1.279,0.18,1.895c-1.399-0.273-4.54,0.094-5.521,2.705
		C280.455,363.358,283.988,359.672,287.401,358.921z M258.242,360.012c3.098,0.606,8.85,3.277,2.483,9.114
		c2.168-3.226-2.261-4.122-3.413-4.31c-0.111-0.332-0.12-0.708-0.128-1.109c1.237,0.111,3.251,0.068,3.908,1.562
		c0.051,0.162,0.179,0.273,0.341,0.299c0.162,0.018,0.333-0.051,0.427-0.188c0.086-0.137,0.077-0.316,0-0.452
		c-0.818-1.869-3.123-2.893-4.438-3.269C257.628,360.952,257.936,360.414,258.242,360.012L258.242,360.012z M192.4,366.473h0.025
		c0.29,0.494,0.589,0.768,0.819,1.382c-1.109,0.443-2.364,1.203-3.038,2.739c-0.076,0.137-0.06,0.315,0.025,0.452
		c0.094,0.137,0.239,0.205,0.401,0.18c0.162-0.018,0.29-0.137,0.342-0.29c0.537-1.221,1.655-1.4,2.696-1.485
		c0.128,0.64,0.145,1.229,0.051,1.801c-1.45-0.06-3.977,0.196-2.696,3.883C187.04,370.184,190.164,366.601,192.4,366.473
		L192.4,366.473z"/>
</g>
</svg>
