<?xml version="1.0" encoding="utf-8"?>
<!-- Generator: Adobe Illustrator 16.0.1, SVG Export Plug-In . SVG Version: 6.00 Build 0)  -->
<!DOCTYPE svg PUBLIC "-//W3C//DTD SVG 1.1//EN" "http://www.w3.org/Graphics/SVG/1.1/DTD/svg11.dtd">
<svg version="1.1" id="Layer_1" xmlns="http://www.w3.org/2000/svg" xmlns:xlink="http://www.w3.org/1999/xlink" x="0px" y="0px"
	 width="200px" height="200px" viewBox="0 0 200 200" enable-background="new 0 0 200 200" xml:space="preserve">
<symbol  id="wales-quarter_2" viewBox="-89.955 -45.029 162.778 152.895">
	<path fill="#EFEFEF" d="M-67.279,61.533c-0.43,6.656-2.418,8.797-3.125,14.281c-0.43,3.129,0.32,5.281,1.082,6.695l1.254,1.793
		l-2.82-0.402c-1.793-0.57-2.613-2.016-2.613-2.016v-0.039c-0.25-0.402-1.055-2.473,0.25-8.043c1-4.613,2.027-4.945,3.93-10.461
		c1.168-3.472,1.961-9.586,1.961-9.586S-67.084,58.131-67.279,61.533"/>
	<path fill="#EFEFEF" d="M-17.197,6.01l4.555,0.36l3.418,0.085h1.391l3.473-0.085l4.473-0.36V-7.912
		c10.531-0.93,20.27-3.387,27.535-7.098l5.207,13.309c-5.609,3-20.324,9.559-41.16,9.598h-0.402
		C-29.521,7.857-44.26,1.287-49.955-1.701l5.211-13.309c7.32,3.711,17.086,6.156,27.531,7.098V6.01"/>
	<polyline fill="#FFFFFF" points="-7.834,5.674 -4.361,5.635 -0.584,5.314 -0.584,-18.928 11.213,-18.928 11.213,-11.967 
		13.6,-12.439 16.158,-13.107 16.158,-23.193 10.295,-29.041 10.295,-39.225 8.615,-40.861 6.986,-39.225 6.986,-29.303 
		0.682,-22.998 -6.502,-30.15 -6.502,-43.1 -8.486,-45.029 -10.459,-43.1 -10.459,-30.15 -17.627,-22.998 -23.947,-29.303 
		-23.947,-39.225 -25.658,-40.861 -27.256,-39.225 -27.256,-29.041 -33.119,-23.193 -33.119,-13.107 -30.588,-12.439 
		-28.268,-11.967 -28.268,-18.928 -16.404,-18.928 -16.404,5.314 -12.643,5.635 -9.209,5.674 -7.834,5.674 	"/>
	<path fill="#FFFFFF" d="M-22.643,72.928c0,0-0.543,3.805,0.539,5.777c1.113,2.098,2.961,4.098,2.961,4.098s-2.25-5-2.25-8.988
		c0-2.569,1.305-4.641,5.777-7.777c2.738-1.945,7.141-6.988,7.141-6.988s4.348,5.043,7.113,6.988
		c4.391,3.137,5.695,5.208,5.695,7.777c0,3.988-2.195,8.988-2.195,8.988s1.793-2,2.934-4.098c1.055-1.973,0.539-5.777,0.539-5.777
		s1.875,0.152,7.918,5.777c6.102,5.793,2.168,13.141-1.441,15.531c-3.668,2.391-8.711,3.738-8.711,3.738s2.734,0,4.832-0.375
		c2.016-0.418,4.016-1.125,4.016-1.125s-1.82,11.391-12.156,11.391c-2.582,0-4.418-0.711-5.805-1.348
		c0-0.043,0.484-1.68,0.484-5.488c0-3.75-0.82-6.473-1.082-9.488c-0.375-4.488-1.598-14.434-1.598-14.434s-0.348,4.961-1.027,10.016
		c-0.766,5.125-1.168,7.223-1.445,11.211c-0.25,4.348-0.293,7.391-0.293,7.879c-1.445,0.777-3.5,1.637-6.488,1.637
		c-10.223,0-12.07-11.391-12.07-11.391s2.016,0.707,4.016,1.125c2.055,0.375,4.805,0.375,4.805,0.375s-4.988-1.348-8.625-3.738
		c-3.695-2.387-7.602-9.738-1.488-15.527C-24.518,73.08-22.643,72.928-22.643,72.928"/>
	<path fill="#FFFFFF" d="M65.014,82.889c-4.582,1.191-7-0.086-8.625-1.086c0.25-0.43,1.027-2.57-0.195-7.988
		c-1.086-4.609-2.168-4.944-4.016-10.461c-1.168-3.473-1.93-9.586-1.93-9.586s-0.293,4.379-0.113,7.781
		c0.434,6.652,2.445,8.821,3.156,14.281c0.457,3.277-0.434,5.543-1.223,6.973c-1.418,1.934-3.473,4.82-7.891,6.379
		c-7.918,2.848-14.184,0.109-17.074-3.043c-2.445-2.684-4.211-10.879-4.211-10.879l0.516,6.656c0,0-1.707-0.684-5.891-7.141
		c-3.305-5.309-2.93-8.363-2.93-8.363l0.223-6.281l-1.516,5.059c0,0-1.113-1.527-3.445-5.766c-2.363-4.141-1.543-8.156-1.543-8.156
		l0.43-6.957l-1.848,7.516c0,0-0.875-1.125-1.441-2.559c-0.793-2.098-1.059-3.516-1.059-3.516L3.361,28.443l-0.402-0.223
		l0.543,17.867L-0.432,44.1l4.445,4.598c0,0,0.766,2.754,0.766,7.016c0,2.945-0.195,6.086-0.195,6.086l-5.945-5.141l5.945,7.168
		c0,0,0.348,1.488,0.348,3.141c0,2.168-0.168,3.168-0.168,3.168l-1.484-2.223c-1.168-1.488-3.961-2.836-6.434-5.223
		C-4.6,61.37-7.42,58.686-8.502,57.646c-1.082,1.039-3.848,3.734-5.32,5.043c-2.527,2.387-5.32,3.734-6.434,5.223l-1.539,2.223
		c0,0-0.168-0.988-0.168-3.168c0-1.641,0.402-3.141,0.402-3.141l5.863-7.168l-5.863,5.141c0,0-0.25-3.141-0.25-6.086
		c0-4.262,0.793-7.016,0.793-7.016L-16.6,44.1l-3.934,1.988l0.543-17.906l-0.484,0.262l-1.004,17.309c0,0-0.316,1.418-1.082,3.516
		c-0.625,1.434-1.418,2.559-1.418,2.559l-1.848-7.516l0.348,6.957c0,0,0.848,4.016-1.414,8.156
		c-2.418,4.238-3.586,5.766-3.586,5.766l-1.445-5.059l0.223,6.281c0,0,0.293,3.055-2.988,8.363c-4.18,6.457-5.918,7.141-5.918,7.141
		l0.543-6.656c0,0-1.766,8.195-4.238,10.879c-2.848,3.152-9.113,5.891-17.043,3.043c-4.559-1.613-6.629-4.711-8.031-6.656
		c-0.762-1.43-1.512-3.582-1.109-6.695c0.734-5.473,2.734-7.641,3.152-14.281c0.195-3.391-0.082-7.781-0.082-7.781
		s-0.793,6.113-1.961,9.586c-1.902,5.504-2.93,5.852-4.016,10.461c-1.219,5.57-0.402,7.641-0.164,8.043
		c-1.625,0.945-4.07,2.223-8.602,1.031c-3.195-0.809-8.43-5.766-7.734-10.574c0.734-4.805,2.652-5.25,2.652-5.25
		s0.625,1.984,2.027,4.223c1.488,2.527,4.238,3.766,4.238,3.766s-3.156-2.613-4.391-6.558c-0.973-2.833-2.141-5.583-0.375-10.642
		c1.109-3.238,5.555-5.516,5.555-5.516s-0.316,2.461,0.168,4.336c0.766,2.637,1.875,4.696,1.875,4.696s-1.195-3.212-0.973-6.571
		c0.195-3.32,0.375-5.906,3.988-9.766c3.277-3.445,4.391-3.961,5.375-5.641c0.875-1.641,1.168-3.031,1.168-3.031
		s7.434,5.418,9.82,8.254c3.418,3.945,4.445,7.848,3.336,12.695c-0.848,3.695-3.445,6.531-3.445,6.531s2.016-1.152,3.098-2.961
		c1.141-1.75,1.516-3.5,1.516-3.5s6.152,2.516,6.293,10.336c0.082,7.766-8.766,10.781-8.766,10.781s5.777-0.195,8.848-5.711
		c1.195-2.167,1.516-4.363,1.418-6.375v0.75c0,0,7.457-8.738,12.375-17.879c4.184-7.766,6.629-13.406,7.543-15.797l1.629-2.234
		c0.457-1.57,0.375-2.613,0.277-3.168l3.07,0.152c3.012-1.945,0-5.684,0-5.684s0.539,2.781-0.973,2.586
		c-1.598-0.238-1.113-1.305-1.113-1.305l1.625-2.684l3.613-1.57l2.68,0.223c1.902,0.461,2.906,0.875,4.445,2.402l1.309,3.406
		l-2.629-0.82l-2.652-1.402v7.988l2.652-1.391l2.656-0.793l-1.113,3.184l-1.387,2.637h3.191v3.184c0.059,1.625,0,5.082-0.082,8.266
		c-0.109,4.016-0.109,11.973-0.109,11.973l0.914-0.815l0.891,0.815c0,0-0.109-8.957-0.141-11.641
		c-0.137-2.68,0.281-7.961,0.195-8.836l0.027-2.957h2.82l-1.387-2.641l-1.113-3.18l2.684,0.789l2.625,1.391v-7.988l-2.586,1.402
		l-2.734,0.82l1.359-3.402c1.516-1.527,2.613-1.945,4.445-2.402l2.652-0.223l3.613,1.57l1.625,2.68c0,0,0.461,1.07-1.109,1.305
		c-1.57,0.211-1-2.582-1-2.582s-3.016,3.75,0,5.68l3.098-0.152c-0.113,0.559-0.195,1.586,0.25,3.168l1.707,2.238
		c0.945,2.414,3.363,8.027,7.461,15.793c4.918,9.141,12.379,17.879,12.379,17.879l0.109-0.75c-0.141,2.086,0.195,4.25,1.363,6.379
		c3.098,5.512,8.848,5.707,8.848,5.707s-8.848-3.027-8.766-10.781c0.109-7.82,6.348-10.331,6.348-10.331s0.32,1.75,1.488,3.5
		c1.055,1.804,3.039,2.956,3.039,2.956s-2.582-2.831-3.387-6.527c-1.141-4.848-0.141-8.754,3.305-12.699
		c2.418-2.832,9.852-8.25,9.852-8.25s0.25,1.387,1.164,3.027c0.918,1.68,2.031,2.195,5.32,5.641
		c3.613,3.863,3.848,6.445,4.043,9.766c0.141,3.348-1.055,6.57-1.055,6.57s1.168-2.043,1.902-4.695
		c0.516-1.875,0.223-4.332,0.223-4.332s4.391,2.277,5.5,5.512c1.738,5.043,0.625,7.809-0.316,10.645
		c-1.363,3.945-4.418,6.555-4.418,6.555s2.68-1.234,4.262-3.766c1.363-2.234,2.016-4.223,2.016-4.223s1.961,0.446,2.684,5.254
		C73.545,77.123,68.252,82.08,65.014,82.889"/>
	<path fill="#FFFFFF" d="M19.17,49.713c-3.695-6.309-6.695-13.141-8.305-17.016l0.512-2.043c0-1.684-0.402-2.586-0.734-3.098
		l3.012-0.836c2.281-2.695-1.762-5.348-1.762-5.348s1.387,2.461-0.141,2.711c-1.598,0.305-1.457-0.891-1.457-0.891
		c0.027-0.82-0.141-1.75,0.484-3.125c0.793-1.461,1.363-1.836,2.656-2.418l1.984-0.484c1.93-0.195,2.738-0.086,4.777,1.027
		l2.281,2.918l-2.793-0.059l-2.875-0.539l2.305,7.582l2.168-2.039l2.277-1.473l-0.137,3.32l-0.168,0.875l-2.586,0.762l3.195,7.098
		l-5.973-0.469l4.184,1.652c0,0,3.039,0.195,6.805,6.805c1.738,3.07,3.559,6.043,3.559,6.043l-4.586,0.027l6.836,2.641l1.82,3.027
		c0,0-3.391,1.559-5.504,4.88c-0.82,1.276-1.445,2.972-1.598,4.901l0.168-1.401C29.588,64.729,24.588,58.881,19.17,49.713"/>
	<path fill="#FFFFFF" d="M-40.662,24.584l2.363,1.473l2.082,2.039l2.391-7.582l-2.93,0.539l-2.852,0.059l2.363-2.918
		c2.016-1.113,2.848-1.223,4.723-1.027l2.016,0.484c1.25,0.582,1.902,0.945,2.555,2.418c0.68,1.375,0.57,2.305,0.625,3.125
		c0,0,0.086,1.207-1.457,0.891c-1.57-0.266-0.168-2.711-0.168-2.711s-4.043,2.641-1.762,5.348l2.984,0.836
		c-0.293,0.512-0.734,1.414-0.762,3.098l0.484,2.043c-1.543,3.93-4.586,10.707-8.25,16.973
		c-5.406,9.211-10.363,15.059-10.363,15.059l0.137,1.559c-0.137-1.988-0.793-3.781-1.625-5.059
		c-2.113-3.305-5.527-4.875-5.527-4.875l1.875-3.027l6.805-2.641l-4.582-0.027c0,0,1.875-2.973,3.582-6.043
		c3.793-6.629,6.781-6.809,6.781-6.809l4.125-1.652l-5.809,0.473l3.129-7.098l-2.613-0.809l-0.141-0.832L-40.662,24.584"/>
	<path fill="#EFEFEF" d="M33.631-1.201v-0.098l0.086-0.305l-3.016-7.711c3.418-1.858,6.598-3.777,9.504-5.918l5.043,13.656
		C41.314,1.229,34.826,5.217,26.115,8.62L33.631-1.201"/>
	<path fill="#EFEFEF" d="M25.131,8.732c-0.223-0.516-1.082-2.945-1.988-5.406c3.766-1.305,6.781-2.68,8.934-3.706
		C30.369,1.854,25.729,7.912,25.131,8.732"/>
	<path fill="#EFEFEF" d="M-50.65-1.271v0.07l7.488,9.836c-8.711-3.402-15.141-7.39-19.129-10.238l5.043-13.613
		c2.875,2.125,6.055,4.098,9.559,5.919l-3.043,7.706L-50.65-1.271"/>
	<path fill="#EFEFEF" d="M-49.123-0.38c2.195,1.015,5.129,2.401,8.977,3.706c-0.891,2.461-1.82,4.891-2.027,5.406
		C-42.744,7.912-47.385,1.854-49.123-0.38"/>
	<path fill="#EFEFEF" d="M-5.736,106.518l-2.418,0.555c-1.902,0-2.555-0.793-2.555-0.793v-0.066c0-0.488,0.055-3.543,0.289-7.879
		c0.277-3.988,0.684-6.086,1.445-11.211c0.711-4.973,1.027-10.016,1.027-10.016s1.281,9.945,1.625,14.434
		c0.223,3.016,1.059,5.738,1.059,9.488C-5.252,104.838-5.736,106.475-5.736,106.518"/>
	<polyline fill="#FEDC00" points="29.396,66.396 29.424,66.162 29.396,66.396 	"/>
	<polyline fill="#FEDC00" points="-46.494,66.287 -46.412,66.396 -46.494,66.287 	"/>
	<path fill="#EFEFEF" d="M23.256,28.779l0.137-0.875l0.168-3.32l-2.332,1.473l-2.141,2.039l-2.277-7.582l2.875,0.539l2.793,0.059
		l-2.281-2.918c-2.027-1.113-2.848-1.223-4.777-1.027l-1.984,0.484c-1.309,0.582-1.934,0.945-2.656,2.418
		c-0.625,1.375-0.457,2.305-0.484,3.125c0,0-0.141,1.207,1.457,0.891c1.516-0.266,0.141-2.711,0.141-2.711s4.043,2.641,1.734,5.348
		l-2.984,0.836c0.316,0.512,0.734,1.414,0.734,3.098l-0.512,2.043c1.625,3.859,4.609,10.707,8.305,16.973
		c5.488,9.211,10.422,15.059,10.422,15.059l-0.168,1.445l-0.027,0.238l-0.113,0.75c0,0-7.457-8.738-12.375-17.879
		c-4.102-7.766-6.516-13.336-7.461-15.797l-1.711-2.234c-0.43-1.57-0.348-2.613-0.25-3.168l-3.098,0.152
		c-3.012-1.945,0-5.684,0-5.684s-0.566,2.781,1,2.586c1.57-0.238,1.113-1.305,1.113-1.305L4.877,21.15l-3.613-1.57l-2.652,0.223
		c-1.902,0.418-2.934,0.875-4.445,2.402l-1.363,3.406l2.738-0.82l2.582-1.402v7.988l-2.625-1.391l-2.68-0.793l1.109,3.184
		l1.363,2.637h-2.793l-0.027,2.961c0.027,0.875-0.32,6.141-0.195,8.836c0.082,2.68,0.141,11.641,0.141,11.641l-0.891-0.82
		l-0.973,0.82c0,0,0.055-7.961,0.25-11.977c0-3.18,0.055-6.641,0-8.266v-3.18h-3.195l1.336-2.641l1.164-3.18l-2.652,0.793
		l-2.652,1.387V23.4l2.609,1.406l2.684,0.816l-1.309-3.402c-1.566-1.527-2.555-1.988-4.445-2.402l-2.68-0.223l-3.613,1.57
		l-1.625,2.68c0,0-0.484,1.07,1.113,1.305c1.516,0.211,0.973-2.582,0.973-2.582s3.016,3.75,0,5.68l-3.098-0.152
		c0.137,0.559,0.223,1.586-0.25,3.168l-1.625,2.238c-0.918,2.387-3.391,8.027-7.543,15.793
		c-4.918,9.141-12.379,17.879-12.379,17.879v-0.75l-0.082-0.109l-0.141-1.555c0,0,4.961-5.852,10.363-15.062
		c3.668-6.262,6.695-13.027,8.25-16.973l-0.484-2.043c0.027-1.68,0.457-2.586,0.766-3.098l-2.988-0.836
		c-2.277-2.695,1.766-5.348,1.766-5.348s-1.418,2.461,0.164,2.711c1.543,0.305,1.461-0.891,1.461-0.891
		c-0.055-0.82,0.055-1.75-0.625-3.125c-0.652-1.457-1.309-1.836-2.559-2.418l-2.012-0.484c-1.875-0.195-2.711-0.086-4.727,1.027
		l-2.359,2.918l2.848-0.059l2.93-0.539l-2.387,7.582l-2.086-2.039l-2.359-1.473l0.164,3.32l0.141,0.832l0.348,2.055l-3.531-1.137
		l7.113-23.199c7.824,2.388,17.117,3.945,27.41,3.945h0.973c10.223,0,19.531-1.558,27.379-3.945l2.656,8.695l4.445,14.504
		l-3.586,1.137L23.256,28.779z M-36.217,9.26l-1.984,6.559l0.014-0.008l-0.002,0.008l4.254-2.336l-0.871-1.608L-36.217,9.26z
		 M-23.393,12.275c-1.074-0.21-2.074-0.094-2.843,0.259c-0.114,0.052-0.213,0.119-0.316,0.181c-0.068,0.041-0.145,0.075-0.208,0.12
		c-0.485,0.347-0.816,0.811-0.926,1.354c-0.277,1.461,1.234,2.988,3.332,3.352c1.217,0.198,2.353-0.027,3.154-0.526
		c0.59-0.36,1.006-0.858,1.111-1.462c0.016-0.09,0.004-0.178,0.007-0.268C-20.01,13.928-21.394,12.579-23.393,12.275z
		 M-8.545,13.217l-5.07,3.504l5.07,3.473l5.031-3.473L-8.545,13.217z M10.6,14.205c-0.07-0.365-0.24-0.693-0.489-0.976
		c-0.733-0.849-2.178-1.269-3.788-0.954c-1.062,0.161-1.953,0.612-2.548,1.204c-0.614,0.596-0.93,1.34-0.804,2.089
		c0.254,1.43,2.168,2.316,4.266,1.984c0.012-0.002,0.023-0.007,0.035-0.009s0.023-0.001,0.035-0.003
		c0.108-0.021,0.208-0.057,0.312-0.084c0.142-0.035,0.285-0.065,0.42-0.111c0.079-0.027,0.15-0.063,0.227-0.094
		c0.152-0.06,0.306-0.117,0.447-0.189c0.137-0.069,0.258-0.15,0.383-0.229c0.067-0.043,0.142-0.08,0.205-0.125
		c0.17-0.12,0.321-0.251,0.462-0.387c0.013-0.014,0.03-0.024,0.044-0.038c0.112-0.111,0.204-0.231,0.295-0.352
		c0.035-0.047,0.079-0.09,0.111-0.138c0.028-0.042,0.045-0.087,0.07-0.13C10.562,15.199,10.694,14.698,10.6,14.205z M19.115,9.271
		l-0.008,0.015L19.1,9.26l-2.305,4.223l4.32,2.336L19.115,9.271z"/>
	<path fill="#EFEFEF" d="M50.15,61.533c0.43,6.656,2.445,8.797,3.152,14.281c0.461,3.129-0.348,5.281-1.109,6.695l-1.223,1.793
		l2.82-0.402c1.762-0.57,2.582-2.016,2.582-2.016l0.027-0.039c0.195-0.402,1.059-2.473-0.191-8.043
		c-1.086-4.613-2.168-4.945-4.016-10.461c-1.168-3.472-1.934-9.586-1.934-9.586S49.955,58.131,50.15,61.533"/>
</symbol>
<g id="rose">
	
		<use xlink:href="#wales-quarter_2"  width="162.778" height="152.895" id="XMLID_1_" x="-89.955" y="-45.029" transform="matrix(1 0 0 -1 108.5664 131.418)" overflow="visible"/>
</g>
</svg>
