<?xml version="1.0" encoding="utf-8"?>
<!-- Generator: Adobe Illustrator 16.0.1, SVG Export Plug-In . SVG Version: 6.00 Build 0)  -->
<!DOCTYPE svg PUBLIC "-//W3C//DTD SVG 1.1//EN" "http://www.w3.org/Graphics/SVG/1.1/DTD/svg11.dtd">
<svg version="1.1" id="Layer_1" xmlns="http://www.w3.org/2000/svg" xmlns:xlink="http://www.w3.org/1999/xlink" x="0px" y="0px"
	 width="512px" height="512px" viewBox="0 0 512 512" enable-background="new 0 0 512 512" xml:space="preserve">
<rect fill="#FFFFFF" width="512" height="418.667"/>
<rect y="248" fill="#00AB39" width="512" height="264"/>
<g id="dragon" transform="translate(-59.512 8.2826)">
	<path d="M450.482,85.295c-1.7-0.24-3.379,0.066-5.231,0.911c-3.704,1.69-8.224,5.447-16.002,11.375
		c-17.571,13.404-37.526,15.13-61.241,15.664c-49.301,1.111-72.117,13.175-82.874,28.59c-10.767,15.416-9.413,33.983-10.703,47.763
		c-0.889,9.403-2.62,17.453-9.456,26.292c1.863-4.56,2.437-7.908,1.982-10.4c-0.487-2.643-2.016-4.377-3.759-5.807
		c-1.745-1.419-3.675-2.578-5.202-4.182c-1.169-1.224-1.949-2.892-2.383-4.961c1.962-1.269,4.312-1.3,6.176-0.163
		c2.328,1.419,3.921,4.583,2.783,9.446c-0.032,0.207,0.14,0.359,0.302,0.477c0.033,0.076-0.031,0.173,0.033,0.228
		c0.194,0.162,0.466,0.162,0.671,0l0.064-0.065c0,0-0.01-0.021,0-0.033c4.768-5.059,6.837-9.186,7.172-12.761
		c0.347-3.585-1.05-6.522-2.946-9.045c-1.896-2.524-4.312-4.703-6.034-6.847c-1.646-2.036-2.621-3.986-2.254-6.218
		c0.771-0.78,1.497-1.322,2.146-1.582c1.418-0.574,2.557-0.194,3.597,0.779c1.029,0.964,1.874,2.546,2.382,4.247
		c0.5,1.701,0.684,3.521,0.467,4.865c-0.012,0.032,0.031,0.032,0.031,0.064c-0.064,0.249,0.043,0.499,0.271,0.606
		c0.228,0.12,0.508,0.065,0.671-0.13c0.022-0.043,0.033-0.064,0.065-0.108c0.011-0.021,0.011-0.042,0.032-0.064
		c3.163-4.811,4.464-8.938,4.526-12.524c0.055-3.628-1.157-6.672-2.882-9.25c-1.732-2.568-3.952-4.71-5.969-6.544
		c-1.948-1.767-3.628-3.249-4.495-4.556c-0.012-0.385,0.012-0.845,0-1.216c1.483-1.064,3.467-1.669,5.298-1.284
		c2.004,0.425,3.802,1.871,4.627,5.097c0.01,0.027,0.054,0.01,0.064,0.033c0.032,0.27,0.228,0.506,0.508,0.506
		c0.293,0,0.532-0.245,0.532-0.54v-0.033c0.216-6.579-0.997-11.859-3.424-15.796c-2.242-3.656-5.557-6.086-9.588-7.427
		c0.174-0.258,0.315-0.49,0.542-0.775c1.365-1.795,3.229-3.878,5.027-6.28c3.586-4.798,7.041-10.89,6.305-18.43
		c0-0.068-0.076-0.106-0.097-0.168c-0.032-0.066-0.011-0.153-0.065-0.203c-0.107-0.095-0.259-0.145-0.411-0.134
		c-0.087,0.003-0.087,0.124-0.162,0.168c-0.087,0.036-0.187,0.061-0.239,0.135c-3.359,4.375-9.437,5.651-15.795,6.515
		c0.715-1.325,1.659-3.098,2.481-5.233c0.931-2.41,1.658-4.855,1.31-6.683v-0.033c-0.011-0.049,0.013-0.12,0-0.168
		c-0.031-0.146-0.108-0.262-0.238-0.337c-0.131-0.077-0.292-0.107-0.434-0.068c-0.055,0.013-0.055,0.076-0.098,0.102
		c-0.087,0.026-0.175,0.066-0.239,0.135c-3.889,4.241-11.212,6.76-17.646,8.54c-3.205,0.891-6.196,1.595-8.45,2.297
		c-1.127,0.35-2.069,0.697-2.783,1.08c-0.455,0.244-0.813,0.536-1.072,0.877c-4.465-0.978-8.679-1.634-12.438-1.822
		c-6.813-0.341-12.352,0.47-16.099,1.991c-1.885,0.76-3.337,1.723-4.269,2.834c-0.93,1.113-1.321,2.44-1.039,3.782
		c0.271,1.258,1.321,2.48,2.72,3.679c-9.718-4.018-18.06-5.626-24.885-5.636c-2.806-0.005-5.396,0.236-7.713,0.641
		c-4.636,0.808-8.277,2.282-10.93,3.779c-2.092,1.175-3.369,2.284-4.236,3.207c-0.099,0.09-0.239,0.101-0.337,0.203
		c-0.012,0.019-0.043,0.014-0.064,0.033c-0.032,0.042,0.021,0.089,0,0.135c-0.043,0.06-0.151,0.146-0.194,0.203
		c-0.023,0.011-0.055,0.022-0.066,0.034v0.033c-0.031,0.039-0.107,0.098-0.14,0.136c-0.141,0.206-0.13,0.489,0.032,0.675
		c0.174,0.186,0.454,0.223,0.67,0.102c1.236-0.732,2.621-1.363,4.096-1.925c0.065,0.02,0.141,0.033,0.195,0.033
		c1.212,0.022,2.48,0.288,3.662,0.743c1.277,0.494,2.491,1.124,3.391,1.687c0.899,0.565,1.526,1.081,1.636,1.182
		c0.021,0.024,0.044,0.047,0.064,0.067c0.641,0.417,1.539,0.825,2.417,1.216c-1.886,3.903-2.548,8.864-2.514,16.133
		c-0.336,0.065-0.585,0.144-0.976,0.204c-1.982,0.302-4.582,0.477-7.442,0.304c-4.04-0.246-8.569-1.252-12.675-3.409
		c0.672,0.115,1.354,0.337,2.016,0.371c3.034,0.153,5.698-0.46,7.682-1.553c0.292-0.063,0.661-0.079,0.898-0.169
		c0.217-0.079,0.336-0.28,0.336-0.505c0-0.152-0.13-0.237-0.238-0.337c-0.043-0.048-0.031-0.144-0.098-0.169
		c-2.957-1.16-18.622-8.348-31.86-25.079c-0.011-0.013-0.022-0.021-0.032-0.033s-0.021-0.021-0.031-0.034
		c-0.12-0.153-0.314-0.231-0.511-0.203c-0.27,0.052-0.454,0.299-0.432,0.575c0,0.069,0.009,0.138,0.031,0.204
		c0.607,7.973,3.088,27.446,19.282,43.106c0.175,0.163,0.436,0.207,0.64,0.098c0.205-0.107,0.304-0.343,0.271-0.574
		c-0.391-2.067-0.585-3.479-0.976-5.569c0-0.032-0.054-0.037-0.066-0.067c0.033-2.698-0.184-4.563-0.498-6.109
		c4.832,4.425,9.923,6.429,14.689,7.055c6.078,0.799,11.592-0.469,15.22-1.046c0.186-0.03,0.392-0.072,0.574-0.101
		c0.055,3.445-1.255,7.842-3.422,11.471c-1.225,2.06-2.666,3.836-4.193,5.071c-1.516,1.224-3.108,1.895-4.594,1.788H155.9
		c-0.249,0.043-0.423,0.26-0.434,0.509c-0.098,0.097-0.248,0.119-0.238,0.271c0.012,0.292,0.238,0.542,0.532,0.53
		c6.596,0,12.101,0.184,18.079-0.194h0.033c0.759-0.107,1.093,0,1.104,0c-0.012,0.053-0.032,0.12-0.098,0.239
		c-0.391,0.671-1.658,1.928-3.12,3.336c-0.174,0.152-0.228,0.39-0.13,0.607c0.086,0.217,0.304,0.357,0.53,0.336
		c0.032,0,0.076-0.032,0.107-0.032c0.132,0.108,0.305,0.141,0.467,0.108c0.065-0.021,0.108-0.055,0.162-0.076
		c0.229-0.053,0.392-0.131,0.608-0.195c3.879-0.411,8.709-1.213,12.35-3.823c-0.076,0.389-0.217,0.941-0.336,1.256
		c-0.14,0.325-0.391,0.683-0.845,1.148c-0.055,0.054-0.205,0.173-0.271,0.239c-0.629,0.476-1.073,0.898-1.875,1.451
		c-0.044,0.022-0.054,0.032-0.097,0.065c-0.186,0.119-0.26,0.357-0.205,0.575c0.054,0.216,0.217,0.368,0.433,0.4
		c0.043,0.011,0.098,0.011,0.141,0h0.065c0.032,0,0.076-0.032,0.097-0.032c4.072-0.423,11.201-3.553,16.337-8.98
		c2.666,0.358,4.365,1.668,5.535,2.968c0.628,0.705,1.095,1.365,1.604,1.83c0.206,0.175,0.454,0.282,0.705,0.369
		c-0.012,0.238-0.218,0.488-0.163,0.705c0.129,0.488,0.453,0.867,0.867,1.116c-1.918,3.51-2.504,6.002-2.21,7.562
		c0.174,0.92,0.573,1.538,1.008,1.96c-2.559,1.874-4.702,3.878-5.732,5.698c-0.562,0.997-0.833,1.971-0.606,2.839
		c0.064,0.249,0.259,0.433,0.399,0.638c-0.193,0.021-0.368-0.042-0.606,0.033h-0.033c-2.534,1.224-5.003,3.683-6.336,6.077
		c-0.661,1.203-1.03,2.383-0.943,3.444c0.044,0.466,0.249,0.877,0.509,1.246c-3.196,1.636-6.208,5.309-7.854,8.581
		c-0.834,1.678-1.332,3.238-1.201,4.486c0.063,0.628,0.324,1.201,0.833,1.548c-0.107,0.12-0.185,0.194-0.303,0.313
		c-0.054,0.053-0.107,0.064-0.163,0.131c-3.228,1.658-5.384,5.547-6.305,8.98c-0.465,1.744-0.64,3.369-0.368,4.593
		c0.098,0.444,0.379,0.779,0.639,1.104c-0.174,0.132-0.379,0.207-0.541,0.347c-0.976,0.846-1.667,1.831-1.907,2.189l-0.031,0.032
		c-1.896,2.406-2.709,6.337-2.589,9.621c0.064,1.646,0.356,3.141,0.975,4.224c0.217,0.38,0.554,0.618,0.867,0.878
		c-0.032,0.043-0.163,0.119-0.194,0.163l-0.032,0.032c-1.896,2.404-2.708,6.338-2.589,9.621c0.065,1.657,0.367,3.143,0.976,4.225
		c0.302,0.542,0.705,0.986,1.213,1.246c0.248,0.13,0.573,0.052,0.867,0.064c-0.065,0.106-0.292,0.346-0.337,0.411
		c0,0.011-0.011,0.042-0.031,0.064c-0.303,0.303-0.499,0.672-0.672,1.183c-0.085,0.248-0.13,0.585-0.194,0.876
		c-1.159,2.353-2.112,1.073-2.751,0.174c-5.005-10.41-9.892-16.531-14.689-40.278c-0.846-4.138-10.108-10.616-12.653-27.408
		c-0.51-3.802,5.21-11.959-2.677-14.44c-0.021-0.012-0.043,0-0.064,0c-5.384-10.206-16.424-6.316-18.179-2.968
		c-0.162,0.174-0.162,0.444-0.043,0.639c0.132,0.195,0.347,0.261,0.575,0.207c1.43-0.401,5.676,1.061,5.697,3.704
		c-2.361,5.568,0.574,10.227-0.996,9.729c-0.249-8.699-9.76-8.591-10.064-8.515c-0.012,0.01,0,0.032,0,0.044l-4.259-0.51
		c-14.191,0.108-10.194,10.465-9.327,12.49c0.14,0.185,0.455,0.26,0.769,0.239c0.313-0.034,0.542-0.174,0.606-0.38
		c-0.628-3.889,2.481-4.083,5.732-2.567c2.069,7.876,6.413,8.158,7.009,8.168v0.043h0.066c5.881,1.192,7.746,5.113,7.79,7.486
		c-1.876-0.727-4.161-1.105-7.346-0.499c-2.135-2.178-6.252-2.968-7.616-3.25c-0.671-0.131-5.081,0.433-6.88,2.98l-0.67-0.109
		c-8.809,2.828-5.179,12.752-2.179,13.943c0.119,0.163,0.315,0.227,0.509,0.172c0.185-0.064,0.261-0.239,0.261-0.444
		c-1.322-3.044,0.542-4.734,2.817-3.716c3.379,3.705,7.538,5.21,15.967,0.444c0.13,0.065,2.98,1.343,6.002,2.459
		c-0.119,3.552,3.641,9.76,6.371,14.387c-0.856,3.617-2.285,7.203-3.108,8.536c-0.022,0.012-0.055,0.055-0.076,0.064
		c-3.412,2.633-6.36,8.904-4.963,14.518c-1.072,2.761-4.939,4.247-4.961-1.084c-0.184-0.151-0.411-0.186-0.606-0.066
		c-0.195,0.121-0.282,0.347-0.229,0.574c-1.245,3.543,4.604,14.234,13.747,8.646l1.842-2.089c3.012,0.042,6.186-3.924,7.312-7.335
		c4.527,27.743,15.221,55.727,19.685,64.814c-3.305,10.206-12.945,9.815-16.1,6.48c-0.031-0.022-0.054-0.043-0.096-0.066
		c-0.229-0.193-0.554-0.13-0.737,0.099c-0.185,0.238-0.163,0.554,0.065,0.747c5.883,5.914,9.111,7.811,14.896,7.79
		c12.729-0.043,17.182-7.952,18.177-11.299c10.714-2.296,18.947-9.296,22.035-9.859c0.476,0.411,1.128,1.19,1.57,1.551
		c2.546,2.025,4.67,3.162,6.543,3.379c0.899,0.099,1.733-0.043,2.481-0.411c0.725,1.495,1.809,2.719,3.185,3.684
		c-0.553,3.771-0.984,11.472-3.716,21.297c-2.817,10.107-8.07,22.198-18.287,33.616c-4.019,1.755-7.27-0.953-9.348-2.634
		c-1.756-1.408-6.317-6.304-7.116-8.84c-0.944-2.99-2.049-5.07-3.62-6.618c-1.57-1.551-4.203-2.07-6.239-2.264
		c-0.023,0,0.768,0.15-0.066,0c-0.737,0.064-1.235,0.01-1.711,0.074c-6.208-4.918-12.34,3.337-11.604,8.504
		c0.011,0.218,0.162,0.413,0.399,0.467c0.239,0.066,0.488-0.022,0.64-0.194c0.834-1.961,3.305-1.42,4.562,0.304
		c-0.194,1.829-0.076,3.919,1.938,6.348c-1.961,0.141-4.464,0.726-7.074,3.738c-10.627,1.277-8.688,13.346-5.535,15.36
		c0.097,0.216,0.314,0.335,0.543,0.304c0.217-0.032,0.389-0.207,0.433-0.435c-3.477-4.508,1.44-6.456,3.889-4.388
		c0.616,1.974,3.434,3.814,5.807,4.962c-0.119,0.584-0.898,2.957-0.641,3.607c-11.428,6.272-0.832,17.204,1.812,16.477
		c0.216-0.063,0.41-0.075,0.606-0.205c0.185-0.131,0.261-0.391,0.194-0.606c-1.624-2.59-1.689-5.721,1.149-4.832
		c1.483,0.952,4.267,1.332,5.762,1.354c3.619,0.053,5.635-2.286,10.163-6.718c2.696-2.643,4.766-1.364,6.444-0.476
		c0.173,0.757,0.465,1.656,1.375,2.025c1.334,0.553,4.214,0.834,5.905,0.78c9.337-0.292,14.517-2.34,18.773-3.813
		c4.258-1.483,8.136-2.275,11.711-2.329c3.337-0.065,5.525,0.607,9.155,1.819c1.82,0.608,4.733,2.082,6.175,2.059
		c2.352-0.084,3.4-1.213,3.986-2.123c3.488-0.629,4.376,0.91,2.351,4.854c-0.064,0.228,0.044,0.487,0.228,0.606
		c0.195,0.13,0.423,0.107,0.608-0.032c3.619-1.526,14.43-11.884-0.162-17.787c-2.221-1.974-5.112-3.64-7.345-3.64
		c-2.254,0-4.485,0.909-6.814,1.418c-2.328,0.499-4.594,0.965-5.362,0.977c-2.99,0.053-3.133-1.799-3.425-5.092
		c-0.292-3.306,6.675-14.887,9.762-18.982c6.121-8.092,14.278-17.311,20.16-23.355c17.507-0.747,10.445,9.609,7.475,11.612
		c-0.227,0.143-0.313,0.423-0.194,0.684c0.109,0.25,0.369,0.38,0.629,0.304c0.064-0.023,0.107-0.054,0.174-0.078
		c6.338-1.666,12.34-6.022,14.354-10.086c0.012-0.021,4.572-7.939,0.672-14.688c-0.186-0.392-0.38-0.922-0.574-1.345
		c2.188-1.019,4.853-4.723,4.96-5.233c2.915,0.835,14.15,0.23,15.168-6.108c5.188,0.51,14.472-2.936,14.819-8.579
		c0.607,0.585,1.929,0.607,3.392,0.346c0.585,4.743,7.767,9.241,9.425,8.232c0.726,7.877,10.638,11.604,13.52,10.228
		c-0.488,1.906,6.825,5.492,9.76,5.33c-5.633,15.241-15.622,32.434-29.456,39.292c-3.704-0.38-9.001-2.85-11.332-4.42
		c-1.862-1.257-4.235-2.838-5.708-5.2c-1.473-2.361-1.376-2.309-2.946-3.845c-1.571-1.551-4.682-2.742-5.698-2.634
		c-0.726,0.067-1.938,0.607-3.022,1.345c-13.629-2.438-12.329,7.302-11.137,10.844c0.012,0.207,0.163,0.399,0.401,0.465
		c0.239,0.066,0.499-0.031,0.639-0.205c0.042-5.092,2.936-5.08,4.465-2.73c-0.022,0.087-0.055,0.153-0.033,0.239
		c0.822,1.766,0.466,2.729,0.162,3.412c-1.495,0.152-3.043,0.531-4.82,1.852c-11.993-1.32-10.898,11.918-7.085,13.468
		c0.098,0.216,0.313,0.335,0.542,0.304c0.216-0.033,0.39-0.206,0.433-0.436c-2.144-3.161,3.262-7.962,4.529-2.231v0.032
		c-0.142,0.174-0.175,0.412-0.065,0.605c0.282,1.865,2.46,3.675,4.387,4.596c-0.346,0.573-1.072,1.07-1.235,2.057
		c-12.631,4.453-5.58,15.264-1.841,16.846c0.174,0.131,0.444,0.131,0.628,0c0.194-0.13,0.259-0.356,0.206-0.573
		c-1.149-1.635-0.727-5.341,4.527-4.658c0.444,1.516,2.74,2.199,4.528,2.231c3.618,0.045,10.204-4.862,13.682-6.759
		c3.282-1.787,8.611-1.116,9.999-1.039c0.694,0.585,1.767,1.168,4.192,1.146c12.676-0.151,14.875-7.019,27.668-6.824
		c5.741,0.087,19.349,6.879,23.683,0.606c1.96-0.724,3.043,1.019,0.671,3.38c-0.161,0.162,0.044,0.478,0.228,0.608
		c0.196,0.131,0.38-0.065,0.607-0.034c3.781,0.468,15.091-11.881,0.131-15.9c-0.066-0.12-0.055-0.228-0.228-0.368
		c-0.356-0.261-2.254-2.288-6.717-2.298c-4.627,0-7.834,2.123-9.425,2.567c-3.38,0.953-2.167-1.777-1.811-2.666
		c3.749-9.154,21.829-26.215,30.02-33.118c0.822-0.325,1.811-0.835,2.989-1.581c8.234-2.979,10.445,5.058,2.34,7.995
		c-0.324,0.358-0.367,0.877-0.129,1.29c0.237,0.411,0.714,0.616,1.169,0.498c19.067-5.059,16.196-15.491,16.207-15.62
		c0.715-10.812-12.143-15.319-14.225-16.339c-3.499-3.887-4.311-6.186-4.051-8.979c0.119-1.345,1.191-3.651,3.012-2.665
		c3.078,2.438,6.771,3.867,7.821,1.885c-2.188,2.502,12.979,11.593,14.485,7.832c1.461,6.479,12.383,6.089,14.482,4.322
		c3.174,6.131,14.322,4.508,14.29,3.444c-0.455,2.253,9.685,5.613,14.354,2.124l0.208,0.509c3.704,4.496,5.925,10.52,8.448,21.06
		c2.534,10.542,2.068,18.894-1.311,27.376c-0.162,0.304-1.072,0.336-2.112,0.304c-2.709-1.074-4.301-1.896-6.132-3.381
		c-1.755-1.408-3.846-3.392-5.372-5.568c-1.419-2.535-2.415-4.562-3.987-6.108c-1.571-1.54-4.268-2.232-6.306-2.429h-0.063
		c-0.9,0.078-1.67,0.369-2.353,0.846c-10.185-3.163-15.091,7.628-13.89,11.17c0.013,0.215,0.206,0.411,0.445,0.475
		c0.239,0.067,0.487-0.03,0.629-0.205c1.028-2.644,5.74-3.952,7.422-1.483c0.249,1.061,0.162,1.852-0.077,2.361
		c-2.112,0.229-4.646,0.866-7.042,3.888c-11.928,0.77-7.844,12.449-5.427,15.491c0.099,0.217,0.313,0.337,0.53,0.304
		c0.23-0.032,0.423-0.206,0.478-0.444c-0.304-3.392,3.142-7.432,5.567-4.355c1.085,1.7,3.478,2.936,5.157,3.314
		c-13.648,6.284-3.866,15.308-0.162,16.879c0.186,0.13,0.412,0.119,0.608,0c0.184-0.132,0.292-0.357,0.228-0.575
		c-1.669-2.665-0.736-6.673,2.448-5.61c-0.075,2.209,4.464,3.683,6.543,3.716c3.619,0.054,7.453-2.935,10.931-4.822
		c3.315-1.808,11.093-1.873,12.643-1.896c5.222,4.973,15.221,3.706,20.801,1.961c5.968-1.884,10.476-5.188,15.155-5.297
		c6.357,0.043,11.255,7.702,16.801,1.182c3.64-1.756,4.725,2.697,2.958,5.503c-0.065,0.218,0.011,0.445,0.204,0.563
		c0.187,0.131,0.446,0.14,0.63,0c3.675-1.55,13.227-10.357,0.173-16.639c0.649-1.69-5.059-6.633-9.859-6.642
		c-5.871-0.021-14.723,8.916-18.177-8.852c-0.846-4.289-3.251-35.253-3.424-38.241c1.15-0.736,2.676-1.624,3.793-1.581
		c1.31-0.064,2.631-0.174,3.92,1.884c1.291,2.06,2.286,5.136-0.976,9.383c-0.042,0.065,0.056,0.131,0.031,0.206
		c-0.031,0.099-0.119,0.173-0.095,0.271c0.01,0.065,0.095,0.076,0.129,0.13c0.033,0.055-0.01,0.132,0.033,0.175
		c0.042,0.031,0.086-0.023,0.142,0c0.042,0.021,0.042,0.085,0.097,0.096c0.194,0.056,0.399-0.011,0.54-0.162
		c8.094-8.049,10.055-16.63,7.909-22.511c-2.144-5.895-8.093-10.258-12.881-10.367c-5.774-0.141-12.177-3.521-17.638-8.613
		c-5.461-5.091-8.861-10.876-11.038-16.262c-0.392-0.984-0.933-1.938-1.376-2.902c35.315-12.196,45.466-40.342,45.445-57.622
		c0-11.97-4.92-22.154-11.938-29.607c-0.12-2.871,0.629-6.543,1.776-9.75c0.65-1.82,1.377-3.467,1.982-4.626
		c0.261-0.499,0.477-0.846,0.671-1.147c0.175,0.693,0.315,1.353,0.737,2.395c0.597,1.483,1.389,3.228,2.287,5.004
		c1.786,3.542,3.933,7.128,5.761,8.667c0.154,0.131,0.36,0.153,0.543,0.077c0.173-0.086,0.315-0.25,0.337-0.444
		c1.432-17.399,7.409-42.917,26.792-66.394c0.012-0.012,0.021-0.021,0.031-0.033c0.012-0.009,0-0.024,0-0.035
		c0.077-0.034,0.131-0.065,0.206-0.102c0.239-0.12,0.346-0.387,0.271-0.641c-0.085-0.252-0.346-0.415-0.607-0.371
		c-0.031,0.007-0.064,0.02-0.097,0.033c-0.011,0.004-0.033-0.004-0.033,0c-4.419,2.084-8.406,4.141-12.012,6.144
		c-31.538,16.799-37.181,28.161-54.635,41.649c-0.206,0.141-0.291,0.412-0.206,0.65c0.087,0.228,0.326,0.358,0.576,0.337
		c8.611-0.423,16.055-2.318,22.804-5.774c-1.733,2.796-3.704,6.208-5.635,9.252c-1.127,1.776-2.221,3.348-3.119,4.388
		c-0.444,0.509-0.834,0.91-1.137,1.104c-0.151,0.098-0.163,0.055-0.239,0.076c-4.658-2.198-9.522-3.435-14.181-3.446
		c-17.41-0.042-29.424,11.549-29.521,25.513c-0.099,14.972,11.526,26.097,23.073,25.523c3.999-0.196,9.34-1.225,14.052-4.356
		c3.444-2.285,6.467-5.774,8.256-10.67c0.033,0.401,0.129,0.78,0.129,1.192c0.013,8.027-3.064,13.509-8.08,17.247
		c-5.006,3.726-12.113,5.644-20.053,5.807c-7.769,0.164-15.74-4.072-26.997-8.613c-11.268-4.539-25.785-9.262-46.562-9.62
		c-6.217-0.108-12.123,0.499-17.073,3.077c-0.312,0.162-0.585,0.422-0.898,0.606c2.644-3.185,5.841-6.023,9.651-8.103
		c9.048-4.94,20.531-6.25,30.801-2.058c1.104,0.52,2.395,1.19,3.348,1.582c0.791,0.325,1.235,0.325,1.918,0.54
		c0.172,1.247,0.185,2.232-0.033,2.699c-0.119,0.249-0.271,0.347-0.444,0.444c-0.096,0.043-0.227,0.065-0.368,0.098
		c-0.217,0.043-0.454,0.108-0.801,0.033c-0.185-0.033-0.379,0.021-0.499,0.173c-0.131,0.141-0.174,0.357-0.109,0.542
		c-0.03,0.239,0.087,0.466,0.305,0.575c0.14,0.064,0.271,0.043,0.399,0.098c0.823,0.791,1.721,1.214,2.59,1.018
		c1.071-0.249,1.972-1.093,2.674-2.101c0.716-0.997,1.237-2.178,1.517-3.272c0.024-0.119,0.012-0.216,0.032-0.336
		c0.856-0.963,1.495-2.383,1.201-4.02c-0.301-1.711-1.71-3.499-4.387-4.961c-0.054-0.043-0.044-0.129-0.108-0.163
		c-0.085-0.065-0.649-0.638-1.104-1.592c-0.455-0.943-0.91-2.264-1.237-3.782c-0.67-3.022-0.865-6.911,0-10.768
		c1.714-7.702,7.4-15.404,22.968-16.942c0.076,0,0.109-0.086,0.174-0.098c3,0.596,5.687,1.006,7.746,0.975
		c0.324,0,0.574-0.076,0.878-0.098c0.14,0.163,0.281,0.292,0.398,0.51c0.229,0.399,0.369,0.855,0.304,1.407
		c-0.065,0.445-0.444,1.007-0.876,1.592c-0.031,0.01-0.031,0.022-0.066,0.033c-0.173,0.043-0.314,0.173-0.367,0.335
		c-0.066,0.173-0.045,0.357,0.064,0.509v0.033v0.032h0.031v0.033c0.056,0.194,0.218,0.335,0.4,0.368
		c0.218,0.043,0.424-0.053,0.641-0.065c0.932,0.282,1.873,0.261,2.687-0.303c1.083-0.748,1.982-2.015,2.512-3.403
		c0.53-1.397,0.736-2.935,0.271-4.258c-0.314-0.877-1.105-1.495-2.081-1.928c-12.296-12.827-11.786-28.369-6.943-41.514
		c2.426-6.582,5.969-12.501,9.489-16.944c3.521-4.443,7.41-7.633,9.328-8.304c0.099-0.038-0.064,0.089,0.032,0.033
		c0.769,0.043,1.561,0.106,2.275-0.101c1.085-0.312,2.058-0.851,2.925-1.518c0.043,0.042,0,0.145,0.066,0.169
		c0.27,0.099,0.554-0.041,0.671-0.305l0.031-0.033c0.1-0.062,0.271-0.134,0.466-0.203c0.401-0.135,0.91-0.212,1.244-0.169
		c0.175,0.021,0.304,0.086,0.37,0.134c0.064,0.05,0.107,0.071,0.129,0.203c0.043,0.259-0.076,0.955-0.704,2.026
		c-0.01,0.021-0.022,0.011-0.033,0.032v0.035v0.033c-0.074,0.134-0.085,0.294-0.03,0.439c0.012,0.012,0.021,0.023,0.03,0.033v0.034
		c0.013,0,0.024,0,0.033,0c0.013,0.024,0.022,0.045,0.033,0.067c0.01,0.012,0.021,0.024,0.031,0.035
		c0.013,0.009,0.021,0.022,0.043,0.033c0.032,0.028,0.088,0.05,0.131,0.067c0.022,0.013,0.044,0.024,0.065,0.035
		c0.021,0.001,0.043,0.001,0.064,0c0.023,0.001,0.043,0.001,0.078,0c0.021,0.001,0.042,0.001,0.063,0
		c0.056-0.002,0.11-0.013,0.164-0.035c0.043-0.018,0.065-0.05,0.097-0.067c0.021-0.013,0.021-0.022,0.042-0.033
		c0.977-0.186,1.939-0.767,2.785-1.655c0.942-1,1.711-2.273,2.067-3.577c0.37-1.304,0.315-2.737-0.627-3.713
		c-0.802-0.816-2.232-1.164-4.128-1.148c-0.335-0.756-0.943-1.414-1.776-1.789c-0.779-0.348-1.809-0.403-2.925-0.373l-0.737-0.201
		C453.874,86.291,452.183,85.534,450.482,85.295L450.482,85.295z M180.691,140.854c3.65,0.025,7.279,0.632,10.627,2.161
		c-0.715,0.595-1.613,1.035-2.719,1.282c-2.092,0.474-4.734,0.348-7.236-0.134c-2.513-0.483-4.887-1.334-6.479-2.161
		c-0.488-0.252-0.714-0.476-1.04-0.708C176.086,141.017,178.382,140.838,180.691,140.854L180.691,140.854z M463.364,195.025
		c1.323,0.032,2.773,0.313,4.257,0.846c1.104,0.401,2.188,1.073,3.251,1.722c-0.151,0.185-0.271,0.412-0.337,0.639
		c-1.938,6.901-5.502,8.895-8.416,8.852c-2.903-0.055-5.353-2.231-5.364-5.135c-0.023-3.629,1.257-5.33,3.152-6.24
		C460.849,195.253,462.042,195.003,463.364,195.025L463.364,195.025z M260.608,213.321c0.779-0.129,1.419,0.011,1.95,0.444
		c0.53,0.423,0.976,1.181,1.137,2.459c0.011,0.076,0.108,0.076,0.14,0.141c0.012,0.184,0.044,0.39,0.228,0.466
		c0.066,0.032,0.109-0.034,0.174-0.034c-0.952,1.169-1.863,2.34-3.022,3.543c-1.767-0.684-3.358-1.831-4.626-3.845
		C257.683,214.829,259.242,213.56,260.608,213.321L260.608,213.321z"/>
	<path fill="#D21034" d="M450.722,87.152c-6.598,6.574-13.119,11.215-22.371,16.875c-16.24,9.929-35.218,12.465-58.9,13.706
		c-47.959,2.522-69.205,11.878-79.052,25.348c-9.849,13.473-8.179,30.786-10.704,48.876c-0.791,5.666-2.491,12.448-5.569,18.19
		c-2.589,4.854-6.196,8.861-10.995,11.038c13.324-12.058,13.39-23.844,14.517-30.743c2.026-12.405-0.227-30.02,9.393-45.032
		c9.631-15.016,31.167-27.621,81.207-29.535c20.627-0.789,33.214-2.776,41.957-5.367c8.731-2.592,13.606-5.792,18.645-8.877
		c5.201-3.188,9.481-7.994,13.65-11.207c2.08-1.605,4.128-2.805,6.208-3.239C449.356,87.047,450.051,87.13,450.722,87.152z
		 M456.549,89.885c0.923-0.036,1.679,0.023,2.081,0.204c0.466,0.208,0.662,0.451,0.769,0.777c0.228,0.649-0.087,1.979-0.997,3.239
		c-0.921,1.262-2.34,2.371-3.824,2.802c-1.495,0.427-4.138-0.731-4.526-1.08c-0.186-0.191-0.456-0.151-0.705-0.169
		c-0.261-0.289-0.511-0.585-0.78-0.877c-0.11-0.143-0.282-0.219-0.467-0.203c-0.106,0.013-0.216,0.06-0.301,0.135
		c-23.662,21.635-43.832,25.744-77.102,28.049c-11.332,0.78-29.076,2.945-44.415,6.786c-7.659,1.919-14.744,4.239-20.119,7.055
		c-5.373,2.814-9.12,6.135-9.933,10.125c-0.032,0.173,0.021,0.345,0.14,0.472c0.12,0.128,0.292,0.195,0.465,0.169
		c0.066-0.01,0.142-0.024,0.208-0.033c0.227,0.313,0.562,0.529,0.975,0.472c2.817-0.251,10.952-0.283,21.925,0.135
		c10.975,0.423,24.886,1.268,39.541,2.665c28.21,2.698,59.14,7.572,77.479,15.426c0.368,0.434,0.684,0.888,1.073,1.321
		c-0.01,0,0.012,0.022,0,0.033c-0.465,0.271-1.635,0.412-3.282,0.271c-3.305-0.292-8.537-1.517-14.864-3.142
		c-12.653-3.25-29.77-8.038-45.478-9.686c-26.746-2.817-42.781-6.467-79.387-6.553c-0.042-0.005-0.086-0.005-0.13,0
		c-0.043,0.009-0.076,0.019-0.108,0.035c-0.162,0.083-0.205,0.158-0.336,0.267c-0.131,0.107-0.292,0.26-0.466,0.444
		c-0.345,0.357-0.76,0.846-1.138,1.484c-0.768,1.278-1.397,3.108-1.104,5.297c0.011,0.184,0.13,0.358,0.292,0.432
		c0.076,0.044,0.194,0.044,0.271,0.077c0.131,0.108,0.131,0.337,0.303,0.37c3.142,0.541,10.312,2.784,19.521,6.077
		c9.207,3.293,20.506,7.659,32.261,12.522c22.901,9.468,47.312,20.812,61.078,29.705c0.954,0.759,2.351,1.809,3.022,2.729
		c0.173,0.249,0.314,0.465,0.368,0.638c0.042,0.175,0.033,0.292,0,0.38c-0.066,0.13-0.616,0.358-1.279,0.531
		c-5.45-1.181-14.02-5.829-23.94-11.571c-10.854-6.283-23.215-13.639-34.818-18.438c-20.398-8.417-45.067-19.359-56.712-21.904
		c-0.043-0.012-0.098-0.021-0.142-0.033c-0.174,0.011-0.205,0.206-0.304,0.336c-0.075-0.01-0.15-0.01-0.227,0
		c-0.066,0.021-0.119,0.065-0.174,0.108c-0.822,0.552-1.407,1.159-1.679,1.885c-0.259,0.726-0.174,1.505,0.174,2.296
		c0.694,1.593,2.362,3.37,4.864,5.904c4.994,5.081,13.411,13.076,24.114,26.91c18.536,23.963,27.191,35.554,30.918,41.308
		c1.875,2.882,2.449,4.334,2.48,4.896c0.023,0.282-0.012,0.325-0.131,0.444c-0.086,0.076-0.304,0.206-0.499,0.336
		c-1.483-0.054-2.36-0.336-3.229-1.146c-0.897-0.856-1.84-2.352-3.25-4.8c-2.827-4.887-7.593-13.456-18.677-27.984
		c-6.739-8.818-14.895-18.297-21.808-26.184c-6.813-7.801-12.34-13.965-14.019-16.271c-0.043-0.131-0.086-0.249-0.131-0.38
		c-0.055-0.129-0.14-0.238-0.271-0.303c-0.314-0.131-0.714-0.076-0.976,0.108c-0.249,0.172-0.434,0.411-0.607,0.704
		c-0.324,0.583-0.573,1.375-0.834,2.362c-0.52,1.993-0.996,4.734-1.376,7.593c-0.368,2.86-0.649,5.849-0.834,8.309
		c-0.172,2.361-0.26,4.062-0.205,4.96v0.033v0.033v0.141c0.011,0.086,0.055,0.151,0.098,0.227c0.466,4.149,2.287,7.648,4.636,12.522
		c2.427,5.049,5.384,11.603,8.051,21.949c2.251,8.754,4.518,17.809,5.6,24.732c0.541,3.466,0.768,6.401,0.596,8.438
		c-0.075,1.03-0.26,1.821-0.53,2.329c-0.271,0.508-0.554,0.726-0.976,0.78h-0.032c-0.64,0.15-0.867,0.085-1.105-0.175
		c-0.238-0.248-0.464-0.855-0.639-1.852c-0.337-1.993-0.454-5.438-1.008-10.499c-1.093-10.075-3.911-26.628-13.584-51.739
		c-0.023-0.077-0.031-0.131-0.066-0.206c-0.021-0.054-0.096-0.021-0.129-0.064c-0.066-0.087-0.066-0.206-0.175-0.239
		c-0.076-0.032-0.097,0.033-0.162,0.033c-0.042,0-0.054-0.077-0.108-0.065c-0.044,0-0.044,0.076-0.097,0.098
		c-0.078,0.033-0.187,0-0.229,0.033c-0.131,0.098-0.228,0.194-0.304,0.304c-0.174,0.227-0.356,0.499-0.542,0.877
		c-0.368,0.759-0.802,1.852-1.311,3.24c-0.996,2.784-2.22,6.748-3.379,11.375c-1.539,6.153-2.903,13.497-3.663,20.896
		c-0.064-1.105-0.086-1.831-0.131-2.935c-0.107-2.666-0.107-5.255,0.098-7.421c0.108-1.062,0.282-2.004,0.509-2.805
		c0.087-0.358,0.218-0.585,0.337-0.877c0.163-0.423,0.314-0.899,0.53-1.181c0.022-0.021-0.011-0.042,0-0.064
		c0.012-0.032,0.022-0.053,0.032-0.077c0.109-0.174,0.119-0.401,0-0.575c-0.021-0.021-0.076,0-0.097-0.032
		c-0.12-0.107-0.271-0.227-0.434-0.195c-0.12,0.011-0.218,0.054-0.304,0.131c-4.246,4.062-7.042,7.042-9.154,11.614
		c-1.029,2.22-1.884,4.863-2.654,8.134c0.108-2.188,0.207-4.212,0.337-5.839c0.13-1.625,0.346-2.882,0.531-3.347
		c0.098-0.195,0.055-0.444-0.098-0.606c-0.14-0.162-0.356-0.206-0.562-0.131c-0.086,0.021-0.131,0.098-0.175,0.163
		c-0.042,0-0.086-0.043-0.13-0.033c-0.043,0.011-0.076,0.021-0.108,0.033c-2.686,1.233-6.608,3.996-9.923,7.463
		c-1.56,1.626-2.935,3.424-4.03,5.298c0.834-3.445,1.635-4.811,2.352-6.208c0.228-0.303,0.411-0.508,0.671-0.91
		c0.098-0.174,0.098-0.38,0-0.542c-0.055-0.098-0.174-0.131-0.271-0.174c0-0.01-0.021,0.011-0.031,0
		c-0.065-0.021-0.097-0.098-0.163-0.098c-0.055,0-0.086,0.032-0.142,0.032c-0.084-0.009-0.139-0.098-0.227-0.064
		c-0.064,0.011-0.075,0.107-0.141,0.13c-14.83,1.355-23.854,6.89-29.108,13.195c-3.489,4.191-5.232,8.591-6.101,12.33
		c0.651-9.534,6.349-18.482,14.581-21.776c4.681-1.863,11.03-2.708,16.739-3.749c5.503-0.996,10.41-2.145,12.816-4.854
		c6.716-2.328,11.645-8.677,15.057-15.394c3.457-6.803,5.384-13.954,6.067-17.723c2.935-16.207,0.031-33.301,8.991-46.716
		c4.483-6.708,11.917-12.535,24.656-16.945c12.74-4.409,30.757-7.36,56.278-8.235c20.64-0.708,33.161-3.343,41.786-6.55
		c8.633-3.206,13.356-6.985,18.415-9.958c2.829-1.662,7.714-5.841,12.881-9.349c2.576-1.754,5.221-3.318,7.646-4.321
		C454.622,90.325,455.607,90.073,456.549,89.885L456.549,89.885z M257.26,92.484c-0.803,1.941-1.853,3.899-3.055,5.535
		c-0.922,1.25-1.788,2.31-2.449,3.039c-0.325,0.365-0.595,0.633-0.769,0.81c-0.031,0.038-0.042,0.074-0.065,0.102
		c-0.01,0.011-0.021,0.021-0.031,0.033c-0.022,0.01-0.055,0.021-0.076,0.033c0,0.003-0.023-0.001-0.032,0
		c-0.055,0.043-0.098,0.106-0.13,0.169c-3.663,0.467-7.226,1-10.195,2.227c-0.4,0.164-0.67,0.484-1.039,0.675
		c-2.189-0.753-4.159-1.186-6.24-1.754c0-0.017,0.031-0.017,0.031-0.033c0.066-0.246,0.347-0.55,0.943-0.878
		c0.586-0.327,1.441-0.635,2.481-0.944c2.069-0.622,4.863-1.245,7.778-2.059C249.156,98.113,254.151,96.107,257.26,92.484
		L257.26,92.484z M462.627,92.553c0.519,0.08,0.91,0.243,1.17,0.438c0.53,0.39,0.694,0.944,0.607,1.688
		c-0.087,0.653-0.51,1.4-1.04,2.127c0.075-0.518,0.239-1.069,0.031-1.485c-0.454-0.905-1.429-1.305-2.447-1.519
		c0.185-0.41,0.399-0.795,0.5-1.216C461.859,92.572,462.312,92.505,462.627,92.553z M270.736,97.311
		c-1.841,9.623-7.02,15.672-12.068,19.51c-2.719,2.066-5.362,3.544-7.344,4.658c-0.997,0.557-1.842,1.017-2.449,1.453
		c-0.303,0.216-0.542,0.443-0.735,0.675c-0.207,0.232-0.37,0.502-0.37,0.845c0,0.298,0.239,0.539,0.532,0.539
		c0.854-0.014,3.022-0.041,5.134-0.067c0.802-0.01,1.116-0.025,1.81-0.033c2.461,5.175,3.435,12.482,3.25,20.861
		c-0.194,8.997-1.613,19.094-3.617,28.789c-2.005,9.75-4.378,20.562-4.323,29.912c0.022,4.669,0.651,8.981,2.275,12.621
		c1.321,2.935,3.326,5.427,6.108,7.257c-0.508,0.801-1.397,1.508-2.815,2.059c-1.689,0.649-3.9,1.126-6.306,1.517
		c-4.833,0.791-10.486,1.268-14.627,2.502c-2.773,0.823-8.894,3.954-13.583,9.587c-3.922,4.692-6.555,11.267-5.406,19.436
		c-0.077,0.152-0.131,0.325-0.065,0.478c0.097,0.238,0.205,0.477,0.303,0.704c0.228,1.256,0.282,2.426,0.705,3.747v0.033
		c0.076,0.291,0.379,0.454,0.67,0.379c0.283-0.075,0.446-0.357,0.369-0.64c0-0.021,0.011-0.054,0-0.076
		c-0.022-0.076-0.011-0.15-0.032-0.239c-0.097-0.411-0.097-0.821-0.173-1.245c0.985,0.5,2.285,0.769,3.867,0.813
		c-1.95,4.485-3.359,9.601-4.269,15.058c-0.985-1.516-2.459-2.926-4.452-4.225c0.151-0.595,0.271-1.201,0.261-1.853
		c-0.034-3.107-2.059-6.693-6.675-11.007c0.337-0.521,0.639-1.051,0.845-1.657c0.922-2.764,0.271-6.295-2.414-10.995
		c1.712-2.795,1.732-6.989-0.737-13.37c-0.022-0.043-0.076-0.033-0.108-0.064c0.238-0.228,0.498-0.401,0.704-0.651
		c2.069-2.502,2.6-6.392,0.878-12.319c-0.013-0.021-0.032-0.021-0.032-0.032c0.423-0.325,0.844-0.661,1.202-1.084
		c1.972-2.306,2.763-6.002,1.884-11.743c0.736-0.368,1.431-0.801,2.005-1.451c1.82-2.025,2.611-5.513,2.144-11.071
		c1.334-0.445,2.546-1.095,3.489-2.091c1.809-1.906,2.611-4.94,1.983-9.457c0.909-0.423,1.787-0.91,2.48-1.722
		c1.625-1.875,2.469-4.887,2.177-9.306c0.629-0.26,1.235-0.509,1.646-0.954c1.095-1.159,1.345-2.882,1.312-5.362
		c-0.032-2.101-0.282-5.2-0.466-8.71c0.791-1.224,1.408-2.622,1.635-4.388c0.358-2.719,0.023-6.132-1.072-10.396
		c1.344-3.306,2.179-7.104,1.918-11.713c0.985,0.337,2.102,0.557,3.489,0.304c1.635-0.299,3.585-1.222,5.936-2.936
		c0.055-0.044,0.109-0.056,0.162-0.102c0.044-0.026,0.066-0.04,0.099-0.067c0.227-0.167,0.292-0.47,0.14-0.708
		c-0.151-0.239-0.453-0.334-0.703-0.204c-0.033,0.014-0.044,0.052-0.066,0.067c-0.586,0.305-1.138,0.69-1.581,0.944
		c-0.467,0.27-0.78,0.334-1.04,0.237c-2.361-0.892-2.935,0.141-9.663-5.435c-0.098-0.09-0.227-0.139-0.368-0.134
		c-0.173,0.008-0.337,0.087-0.434,0.236c-0.087,0.147-0.097,0.344-0.032,0.506c0.032,0.08,0.098,0.158,0.131,0.236
		c0.021,0.013,0.021,0.023,0.043,0.035c0.64,1.373,1.842,2.669,3.078,3.713c0.508,0.423,0.79,0.516,1.245,0.844
		c-1.539-0.354-2.784-0.886-3.793-1.351c-0.205-0.086-0.444-0.054-0.606,0.102c-0.152,0.156-0.185,0.404-0.098,0.608
		c2.915,6.792,0.791,14.994-4.258,20.383c-4.984,5.329-12.729,7.897-21.298,3.781c-0.098-0.216-0.336-0.335-0.574-0.304
		c-0.13,0.032-0.217,0.131-0.303,0.238c-0.011,0.022-0.055,0.012-0.064,0.033c-1.149,1.983-2.155,3.792-4.258,5.741
		c-1.301,1.203-3.271,2.524-5.699,3.912c1.052-1.007,1.787-1.95,2.274-2.903c1.021-1.961,0.987-3.879,0.877-6.305
		c-0.011-0.249-0.173-0.454-0.399-0.509c-0.238-0.053-0.487,0.054-0.608,0.271c-1.526,2.806-6.239,6.966-13.951,9.827
		c3.216-2.687,5.308-5.558,5.47-8.407c0.012-0.228-0.107-0.444-0.302-0.542c-0.206-0.098-0.444-0.053-0.607,0.098
		c-4.247,3.759-11.646,4.949-18.851,5.405c1.594-0.757,3.132-1.863,4.528-3.379c2.739-2.99,4.961-7.551,6.336-13.533
		c5.027,2.945,9.601,3.898,13.487,3.646c4.442-0.29,7.942-1.981,10.467-3.477c-0.067,1.092-0.131,2.029-0.142,3.41
		c0,0.264,0.186,0.49,0.444,0.54c0.249,0.05,0.51-0.089,0.598-0.338c2.372-5.63,3.541-9.155,3.217-12.117
		c-0.313-2.962-2.189-5.166-5.492-8.066c-0.119-0.107-0.282-0.158-0.446-0.133c-0.227,0.042-0.399,0.234-0.433,0.472
		c-0.064,0.692-0.131,1.399-0.194,2.093c-6.576-0.373-13.64-6.651-27.972,4.184c-0.346-6.258,0.032-10.365,1.701-13.771
		c0.671,0.086,1.344,0.083,2.015-0.033c1.344-0.235,2.621-1.001,3.555-2.464c0.854-1.333,1.376-3.313,1.581-5.942
		c8.58,0.381,18.341,1.984,28.946,5.03c0.032,0.011,0.065,0.024,0.098,0.033c0.249,0.051,0.508-0.099,0.606-0.336
		c0.023-0.062-0.031-0.108-0.031-0.169c0.012-0.025,0.055-0.007,0.065-0.033c0.086-0.254-0.032-0.52-0.271-0.641
		c-0.021-0.012-0.042-0.024-0.064-0.034c-0.033-0.008-0.043-0.025-0.065-0.035c-1.733-0.707-3.088-1.459-4.259-2.193
		c-0.748-0.665-1.388-1.374-1.613-2.093c-0.53-1.688,0.228-3.5,2.655-4.995c4.776-2.952,16.119-4.027,34.504,2.16
		c-0.693,0.903-1.31,1.888-1.713,3.105c-0.075,0.234,0,0.504,0.206,0.642c0.205,0.134,0.488,0.101,0.672-0.068
		c5.275-5.181,12.565-5.982,19.65-7.055C260.554,103.878,266.631,102.405,270.736,97.311L270.736,97.311z M265.44,105.649
		c-0.108,0.011-0.216,0.06-0.303,0.135c-4.573,3.641-8.624,4.791-13.076,5.57c-3.759,0.56-5.407,1.962-6.37,2.599
		c-0.249,0.159-0.434,0.26-0.574,0.303c-0.141,0.043-0.229,0.044-0.369,0c-0.282-0.086-0.833-0.493-1.679-1.453
		c-0.162-0.155-0.399-0.198-0.596-0.102c-0.205,0.098-0.326,0.317-0.303,0.541c0.012,0.064,0.076,0.199,0.098,0.269
		c0.01,0.017,0.021,0.017,0.031,0.033c0.218,0.896,0.737,2.077,1.441,3.307c0.39,0.673,0.802,1.33,1.181,1.858
		c0.368,0.528,0.671,0.933,1.074,1.182c0.129,0.081,0.281,0.113,0.433,0.067c0.151-0.046,0.271-0.162,0.337-0.304
		c1.44-3.07,2.686-4.873,3.716-5.84c1.04-0.967,1.799-1.128,2.459-1.013c0.651,0.117,1.268,0.585,1.842,1.046
		c0.281,0.23,0.554,0.458,0.834,0.641c0.292,0.183,0.596,0.351,1.008,0.27c0.141-0.015,0.282-0.087,0.368-0.203
		c1.646-2.354,4.907-4.902,8.786-7.931c0.195-0.14,0.282-0.383,0.205-0.608C265.905,105.794,265.678,105.639,265.44,105.649
		L265.44,105.649z M120.381,107.168c6.306,8.837,14.55,17.153,26.368,23.427c-4.832,0.479-8.536-0.526-11.611-2.499
		c-3.966-2.55-6.923-6.722-9.793-11.24c-0.013-0.021-0.023-0.046-0.032-0.067c-0.121-0.192-0.347-0.286-0.563-0.236
		c-0.174,0.033-0.303,0.152-0.369,0.304c-0.075,0.153-0.086,0.322,0,0.473c0,0.018,0.023,0.017,0.032,0.034
		c3.923,8.418,7.129,12.245,9.123,15.053c1.798,2.539,2.535,4.258,2.178,7.966c-4.778-3.573-8.483-9.727-11.007-16.234
		C122.169,117.584,120.902,111.315,120.381,107.168L120.381,107.168z M439.378,107.809c-3.132,4.363-6.174,9.497-8.353,15.391
		c-4.451,12.075-5.384,26.67,3.153,39.356c-19.067-7.205-47.96-11.57-74.491-14.106c-14.712-1.409-28.666-2.216-39.671-2.635
		c-9.892-0.376-16.187-0.33-19.891-0.136c1.679-2.973,5.795-5.807,11.569-8.201c6.426-2.671,14.657-4.881,22.935-6.65
		c16.576-3.537,33.508-5.284,37.059-5.4c26.349-0.87,44.839-6.235,57.46-12.052C433.215,111.506,436.465,109.636,439.378,107.809
		L439.378,107.809z M203.864,109.733c-0.867-0.063-1.886,0.028-3.12,0.305c-0.261,0.064-0.423,0.308-0.4,0.572
		c0.064,0.836,0.455,1.447,0.975,1.89c0.521,0.444,1.128,0.75,1.776,1.147c1.289,0.795,2.773,1.898,3.889,4.827
		c0.086,0.194,0.26,0.33,0.466,0.338c0.217,0.006,0.411-0.117,0.509-0.305c0.218-0.458,0.282-0.834,0.368-1.046
		c0.021-0.055,0.076-0.062,0.098-0.102c0.185,0.197,0.378,0.369,0.671,0.676c0.205,0.216,0.477,0.462,0.834,0.575
		c0.368,0.11,0.791,0.076,1.245-0.069c4.279-1.323,7.172-1.982,9.187-2.126c2.026-0.146,3.119,0.194,3.996,0.946
		c0.206,0.14,0.489,0.134,0.672-0.034c0.186-0.169,0.217-0.457,0.098-0.675c-0.032-0.05-0.066-0.054-0.098-0.102
		c-2.101-3.086-4.258-4.165-6.445-4.422c-2.221-0.261-4.419,0.176-6.944-0.236c-2.557-0.417-3.965-1.11-5.427-1.619
		C205.478,110.018,204.729,109.795,203.864,109.733L203.864,109.733z M204.469,111.354c1.158,0.16,3.813,1.168,4.799,1.147
		c-0.661,2.294,0.597,3.245,1.744,3.848C207.643,116.771,204.588,111.715,204.469,111.354L204.469,111.354z M171.124,111.387
		c0.098,1.077,0.142,2.715-0.336,4.05c-0.292,0.836-0.725,1.438-1.44,1.721c-0.705,0.281-1.788,0.244-3.38-0.473
		c-0.012-0.003-0.031,0.001-0.043,0c-1.062-0.561-4.226-2.094-7.639-3.004c-0.801-0.214-1.593-0.204-2.384-0.305
		C160.247,112.076,165.317,111.386,171.124,111.387z M216.408,112.973c1.679-0.182,3.076,0.819,1.506,1.688
		c-1.592,0.884-4.344,2.144-6.002,1.62c1.604-0.081,2.112-1.912,1.376-3.14C212.692,113.021,214.728,113.153,216.408,112.973z
		 M224.024,118.542c-2.882-0.064-4.701,0.062-6.078,0.44c-1.386,0.381-2.296,1.006-3.348,1.755
		c-0.184,0.122-0.281,0.358-0.237,0.573c0.043,0.214,0.228,0.366,0.434,0.405c1.05,0.212,1.603,0.329,1.82,0.439
		c0.097,0.055,0.119,0.097,0.194,0.204c0.076,0.106,0.174,0.261,0.304,0.541c0.075,0.193,0.258,0.33,0.465,0.337
		c0.216,0.007,0.411-0.116,0.509-0.304c0.736-1.538,1.387-2.276,2.243-2.7c0.79-0.389,1.95-0.493,3.487-0.574
		c0.131,0.003,0.141-0.038,0.271-0.034v-0.035c0.012,0,0.021,0.001,0.031,0c0.239-0.069,0.412-0.292,0.4-0.54
		c-0.011-0.247-0.194-0.454-0.433-0.507c-0.023,0-0.023,0.001-0.032,0C224.045,118.544,224.033,118.542,224.024,118.542z
		 M529.338,122.627c-20.476,23.503-25.307,48.901-26.64,56.68c-2.697-4.658-6.032-9.838-3.952-16.337v-0.043
		c4.918-11.82,6.575-13.736,19.554-30.577c0.012-0.019,0.021-0.015,0.031-0.033c0.163-0.226,0.142-0.557-0.065-0.742
		c-0.205-0.185-0.541-0.161-0.735,0.033c-0.012,0.013-0.021,0.021-0.034,0.034c-0.021,0.019-0.021,0.016-0.03,0.033
		c-0.054,0.056-0.087,0.112-0.141,0.168c0,0.005-0.022-0.005-0.032,0c-13.996,11.688-20.335,19.645-25.826,24.94
		c-5.124,4.95-9.642,7.552-18.948,8.916C489.558,151.258,497.423,138.21,529.338,122.627L529.338,122.627z M260.413,124.618
		c0.15,0.048,0.141,0.009,0.303,0.067c1.354,0.497,3.066,1.354,4.756,2.735c2.74,2.232,5.33,6.013,6.381,12.016
		c-0.997-1.547-2.298-2.604-3.729-3.174c-2.307-0.921-4.68-0.904-6.208-0.911c-0.14-1.262-0.217-2.661-0.4-3.813
		c1.831-0.107,3.694-0.104,5.602,1.856c0.206,0.195,0.53,0.218,0.736,0.034c0.217-0.185,0.238-0.517,0.064-0.742
		c-0.01-0.014-0.021-0.02-0.031-0.034c-2.361-3.156-4.756-4.767-6.944-4.826C260.747,126.784,260.598,125.685,260.413,124.618
		L260.413,124.618z M134.702,130.053c0.391,0.217,0.813,0.315,1.214,0.506c6.077,4.459,11.278,7.044,16.293,7.898
		c5.244,0.892,10.281,0.026,15.967-2.059h0.032c1.193-0.527,3.521-1.095,6.307-1.519c2.783-0.424,6.066-0.717,9.295-0.743
		c3.217-0.025,6.38,0.221,8.914,0.844c1.777,0.438,3.035,1.122,3.997,1.925c-5.037-1.054-9.813-1.424-15.665-1.114
		c-0.141,0.005-0.271,0.066-0.368,0.169c-0.185,0.18-0.399,0.313-0.368,0.741c0.012,0.214,0.194,0.423,0.337,0.506
		c0.14,0.083,0.26,0.086,0.368,0.101c0.433,0.057,0.922-0.018,1.604-0.101c1.376-0.168,3.359-0.436,5.405-0.271
		c2.037,0.165,2.99,0.24,7.573,1.721c0.336,0.324,0.509,0.755,0.64,1.216c-0.163-0.059-0.347-0.132-0.597-0.204
		c-0.531-0.147-1.256-0.317-2.156-0.507c-1.798-0.38-4.278-0.799-7.073-1.113c-5.58-0.629-12.458-0.807-17.907,0.843h-0.031
		c-4.733,1.941-10.964,2.906-17.072,1.89c-5.775-0.958-11.387-3.766-15.667-9.08C135.385,131.171,135.06,130.59,134.702,130.053
		L134.702,130.053z M510.519,139.74c-10.982,13.251-16.746,24.506-19.758,32.34c-1.809,4.702-2.729,8.232-3.455,10.258
		c-0.315,0.877-0.619,1.3-0.804,1.518c-1.407-1.148-2.828-2.222-4.32-3.174c0.021-0.498,0.054-1.03,0.367-1.917
		c0.4-1.18,1.05-2.632,1.908-4.322c1.721-3.38,4.312-7.671,7.55-12.36C496.871,155.05,503.264,147.089,510.519,139.74
		L510.519,139.74z M262.287,146.76c3.443,2.319,6.835,5.061,8.687,9.079c1.485,3.229,2.017,7.302,0.846,12.621
		c-0.313-2.567-1.397-4.745-3.055-6.142c-1.388-1.159-3.087-1.788-4.831-1.821c-1.159-0.021-2.318,0.368-3.423,0.943
		c0.345-2.069,0.627-4.031,0.876-5.84c0.466-0.119,1.127-0.163,1.973,0.141c0.976,0.336,2.069,0.953,3.088,1.69
		c1.029,0.726,1.972,1.603,2.654,2.458c0.682,0.856,1.084,1.681,1.104,2.297c0.012,0.292,0.238,0.51,0.53,0.51
		c0.304-0.011,0.554-0.25,0.542-0.542c-0.031-0.791-0.423-1.56-0.941-2.328c-0.163-0.303-0.163-0.575-0.368-0.877
		c-0.76-1.137-1.756-2.286-2.817-3.348c-1.062-1.063-2.21-2.015-3.217-2.698c-0.791-0.541-1.452-0.899-2.112-1.007
		C262.005,150.099,262.2,148.315,262.287,146.76L262.287,146.76z M224.056,148.756c1.138,2.794,1.408,5.059,0.976,6.814
		c-0.476,1.896-1.646,3.326-3.326,4.453c-2.914,1.983-7.234,2.871-11.169,3.51c-0.4-0.119-1.116-0.205-1.311-0.334
		c-0.206-0.142-0.26-0.271-0.292-0.37c-0.043-0.098-0.043-0.173,0-0.304c0.012-0.043,0.076-0.086,0.098-0.13
		c0.175-0.217,0.228-0.369,0.562-0.649c0.628-0.499,1.507-1.105,2.524-1.788c2.016-1.353,4.604-3.098,7.14-5.396
		C221.001,152.97,222.616,150.976,224.056,148.756L224.056,148.756z M295.566,150.879c40.625,1.56,51.372,4.366,78.174,7.496
		c18.536,2.156,35.521,7.117,47.828,10.162c0.088,0.022,0.153,0.043,0.238,0.066c-11.971,2.978-17.463,10.486-19.121,17.918
		c-0.966,4.322-0.735,8.569,0,11.948c0.249,1.149,0.629,2.015,0.976,2.935c-14.363-8.753-36.92-19.207-58.455-28.113
		c-11.788-4.875-23.13-9.25-32.371-12.555c-7.974-2.85-13.834-4.691-17.712-5.601C294.83,153.772,294.798,152.114,295.566,150.879z
		 M292.448,160.672c0.497,0.076,1.062,0.194,2.079,0.499c1.3,0.4,2.947,0.976,4.896,1.69c3.878,1.419,8.872,3.38,14.387,5.602
		c11.006,4.452,24.049,9.955,34.21,14.18c11.137,4.636,26.717,13.823,39.509,20.93c0.641,0.346,1.149,0.628,1.778,0.975
		c-0.629-0.01-1.117-0.119-1.778-0.098c-4.289,0.12-9.369,0.965-14.387,2.839c-9.672,3.596-19.151,11.136-22.479,24.81
		c-0.366-0.543-0.585-0.944-1.007-1.529c-5.655-7.844-15.652-19.771-29.271-37.189c-8.417-10.768-16.769-18.622-22.142-24.201
		c-2.687-2.796-4.627-5.049-5.428-6.685C292.424,161.723,292.361,161.138,292.448,160.672z M223.287,161.821
		c0.628,3.336,0.683,5.807,0.229,7.453c-0.478,1.776-1.42,2.762-2.85,3.413c-2.112,0.953-5.525,1.062-9.283,1.246
		c-1.408-0.218-2.275-0.705-2.751-1.355c-0.509-0.683-0.64-1.57-0.509-2.556c0.248-1.939,1.569-4.161,2.751-5.233h0.065
		c0.39,0.01,0.454-0.043,1.104,0.032c0.107,0,0.131-0.108,0.206-0.174C216.69,164.335,220.611,163.683,223.287,161.821
		L223.287,161.821z M441.025,169.176c0.065,0.086,0.185,0.141,0.238,0.239c0.325,0.607,0.303,1.429-0.042,2.285
		c-0.337,0.868-0.986,1.723-1.746,2.298c-0.031,0.032-0.065,0.009-0.097,0.032c0.412-0.521,0.715-1.106,0.803-1.712
		c0.107-0.726,0.021-1.462-0.196-2.134c0.12-0.065,0.292-0.12,0.401-0.195C440.667,169.772,440.82,169.458,441.025,169.176z
		 M290.832,170.086c0.261,0.151,0.357,0.12,0.706,0.4c1.645,1.354,4.051,4.041,6.879,7.497c5.643,6.901,13.054,16.91,20.259,25.923
		c7.463,9.349,13.421,20.097,18.706,28.113c0.846,1.277,1.649,2.328,2.451,3.445c-2.515-0.737-5.31-1.322-8.449-1.343
		c-1.682-0.022-3.435,0.107-5.202,0.4c-6.748,1.126-13.78,4.962-19.122,13.26c-1.138-6.771-3.521-15.232-6.434-24.873
		c-4.268-14.116-6.781-19.435-8.515-22.847c-1.733-3.381-2.686-4.822-3.933-11.214c0.011-0.022,0.043-0.043,0.031-0.065
		c-0.216-2.752,0.281-7.995,1.04-12.35c0.379-2.189,0.822-4.16,1.245-5.503C290.616,170.541,290.712,170.347,290.832,170.086
		L290.832,170.086z M258.863,171.939c0.694,1.04,1.637,2.014,2.829,3.011c1.766,1.474,3.813,3.066,5.395,5.059
		c1.581,1.994,2.697,4.388,2.578,7.562c-0.076,2.405-1.235,5.46-3.119,8.949c0.238-1.658,0.174-3.164-0.368-4.387
		c-0.91-2.091-2.666-3.554-4.485-4.626c-1.831-1.073-3.759-1.756-5.037-2.265c-0.304-0.119-0.435-0.185-0.641-0.271
		c0.368-1.376,0.846-2.395,1.484-2.838c0.856-0.596,1.938-0.564,3.109-0.163c1.181,0.389,2.384,1.149,3.358,1.993
		c0.976,0.834,1.69,1.787,1.876,2.253c0.119,0.271,0.411,0.399,0.671,0.303c0.271-0.098,0.422-0.401,0.335-0.671
		c0-0.011,0.012-0.021,0-0.033c0-0.021-0.021-0.053-0.031-0.065c-1.538-4.105-4.464-5.254-6.338-6.586
		c-0.941-0.671-1.635-1.333-1.938-2.534C258.268,175.622,258.376,174.042,258.863,171.939L258.863,171.939z M130.111,173.087
		c3.941-0.14,6.855,1.441,8.416,4.193c-0.476,0.347-0.921,0.325-1.646,0.466c-0.422-1.494-2.881-3.217-5.059-3.542
		c-0.174-0.108-0.39-0.141-0.573-0.034c-0.175,0.108-0.282,0.304-0.271,0.51c0.021,0.206,0.184,0.401,0.378,0.465
		c1.572,0.791,3.306,1.398,2.645,2.839c-0.802,0.01-1.29,0.032-1.94-0.033c-0.031-1.527-3.205-2.958-6.206-4.118
		C127.381,173.38,128.788,173.141,130.111,173.087z M220.394,175.015c0.292,4.008-0.508,6.337-1.875,7.627
		c-1.406,1.321-3.499,1.7-5.839,1.658c-2.286-0.055-4.724-0.542-6.868-0.781c-0.076-0.098-0.109-0.228-0.238-0.239h-0.065
		c-0.649-0.044-1.094-0.206-1.344-0.401c-0.259-0.215-0.378-0.476-0.399-0.846c-0.044-0.736,0.454-1.864,1.234-2.968
		c0.792-1.116,1.831-2.199,2.849-2.935c0.911-0.672,1.691-0.899,2.19-0.877c3.628,0.021,7.074,0.064,9.22-0.077
		C219.712,175.156,219.993,175.058,220.394,175.015z M463.635,177.984c15.838,0.042,35.835,16.207,35.847,39.356
		c0.012,16.077-9.275,42.943-43.604,54.644c-9.61-18.959-27.898-35.804-51.514-43.907c-0.108-0.054-0.228-0.065-0.334-0.032
		c-0.239,0.053-0.436,0.259-0.436,0.498c-0.012,0.25,0.162,0.477,0.4,0.543c25.719,8.83,42.879,28.826,51.349,49.855
		c2.254,5.601,7.844,13.271,13.412,18.471c5.579,5.189,11.97,8.558,18.178,8.71c4.216,0.097,8.937,2.546,10.941,8.027
		c1.57,4.332,1.463,9.868-2.491,15.871c0.682-2.644,0.131-4.854-0.803-6.348c-1.527-2.451-4.734-3.424-6.836-3.351
		c-3.683,0.153-5.817,1.81-10.833,4.465c-0.271,0.131-0.38,0.465-0.239,0.738c0.076,0.149,1.853,0.324,3.728,0.367
		c0.216,2.926,4.671,33.669,5.362,38.046c3.38,21.375,18.168,11.008,20.692,11.406c4.833,0.76,5.861,2.102,7.443,3.651
		c-1.668,0.132-2.971,5.08-2.145,8.364c-5.97,4.354-11.993-2.254-16.401-2.298c-5.095,0.132-10.607,3.64-16.436,5.472
		c-5.341,1.679-7.994,3-14.688-0.064c1.039-0.303,2.286-0.671,2.383-0.671c0.141-0.013,0.283,0,0.369,0
		c0.096-0.013,0.119-0.013,0.238-0.045c0.206,0,0.391-0.13,0.466-0.336c0.087-0.194,0.055-0.411-0.098-0.573
		c-0.152-0.151-0.368-0.206-0.573-0.131c0.063-0.012-0.023-0.012-0.099,0h-0.336c-0.283,0.011-0.649,0.021-1.105,0.031
		c-0.911,0.012-2.101,0.032-3.358,0.032c-2.503,0.011-5.221,0-6.306,0c-2.849,0-6.964,0.856-10.432,2.729
		c-3.456,1.886-6.046,4.204-9.253,4.161c-1.809-0.033-3.692-0.349-5.264-1.562c0.812-2.915,0.682-6.717-1.516-9.924l-0.531-0.031
		c3.728-0.521,5.037-2.406,7.508-2.46c2.902-0.076,2.871,5.796,17.885-3.814c0.174-0.097,0.304-0.271,0.291-0.477
		c0-0.205-0.119-0.412-0.291-0.507c-0.185-0.087-0.411-0.055-0.572,0.076c-13.272,6.022-9.144,1.472-15.97,1.787
		c-6.479,0.29-6.673,2.438-10.561,2.395c-2.017-0.023-4.398-1.008-4.896-1.962c1.474-0.344,2.08-5.341,1.311-7.93
		c0.01-0.108,0.085-0.217,0.098-0.271c0.065-0.227-0.055-0.465-0.239-0.605c0.856-1.03,3.185-1.453,5.263-1.453
		c1.885,0.031,4.443,1.787,7.389,3.033c2.937,1.257,5.547-1.038,9.154,1.354c0.259,0.15,0.585,0.055,0.736-0.206
		c0.151-0.26,0.053-0.585-0.205-0.737c-1.268-0.714-3.922-3.52-6.901-4.798c-1.874-0.79-4.051-1.278-6.076-1.614
		c-1.399-1.311-3.889-3.606-3.555-3.813c0.715-0.444,1.431-1.039,2.047-1.787s1.138-1.626,1.312-2.565
		c0.108-0.619-0.055-0.869-0.272-1.291c0.055-0.193,0.132-0.313,0.195-0.607c0.769-0.854,1.257-1.277,2.384-1.375
		c1.743,0.173,2.751,0.802,4.191,2.221c1.453,1.43,2.99,3.542,4.399,6.045c2.08,3.716,4.887,5.828,7.746,7.724
		c-0.91,0.748-1.992,1.67-2.081,1.658c-0.14-0.011-0.248-0.064-0.497,0.066c-0.282,0.13-0.393,0.434-0.272,0.714
		c0.119,0.279,0.423,0.423,0.704,0.304c0.065,0,0.186,0,0.337,0.03c0.305,0.056,0.727,0.185,1.236,0.303
		c1.018,0.239,2.361,0.542,3.758,0.749c1.399,0.194,2.851,0.271,4.161,0.032c1.31-0.239,2.535-0.812,3.185-1.994
		c4.463-8.048,4.041-20.062,1.473-30.757c-2.556-10.637-10.204-25.12-10.498-25.239c-0.303-3.544-9.056-14.29-10.964-11.853
		c0.024-0.4,0.11-0.771-0.03-1.214c-0.228-0.671-0.585-1.441-1.073-2.199c-0.985-1.516-2.425-3.13-3.966-4.452
		c-1.527-1.321-3.13-2.351-4.625-2.6c-0.747-0.12-1.508-0.044-2.113,0.368c-0.162,0.119-0.205,0.398-0.336,0.542
		c-0.238-0.768-0.651-1.538-1.236-2.361c-1.084-1.482-2.61-3.023-4.235-4.246c-1.614-1.235-3.306-2.157-4.788-2.438
		c-0.746-0.13-1.473-0.119-2.08,0.206c-0.055,0.031-0.055,0.131-0.097,0.173c-0.206-0.596-0.5-1.181-0.942-1.831
		c-1.04-1.461-2.633-3.054-4.432-4.278c-1.798-1.224-3.781-2.09-5.635-2.026c-1.029,0.032-1.949,0.466-2.751,1.213
		c-0.054-1.181-0.367-2.36-0.976-3.478c-1.104-2.045-2.925-3.919-4.928-5.264c-2.005-1.354-4.172-2.209-6.035-2.09
		c-0.932,0.054-1.797,0.391-2.449,1.04l-0.03,0.031c-0.207-1.245-0.64-2.415-1.443-3.368c-1.419-1.69-3.553-2.904-5.739-3.65
		c-2.178-0.737-4.41-0.976-6.164-0.64c-0.889,0.173-1.658,0.466-2.22,1.018c-0.142,0.142-0.23,0.325-0.338,0.499
		c-0.065-0.096-0.012-0.238-0.098-0.337c-0.51-0.626-1.224-1.211-2.079-1.722c-1.713-1.017-3.997-1.807-6.273-2.155
		c-1.137-0.173-2.286-0.249-3.348-0.173c-1.073,0.087-2.035,0.314-2.891,0.748c-1.062,0.542-1.723,1.571-2.082,2.795
		c-0.585-0.954-1.375-1.723-2.479-2.125c-1.864-0.682-4.214-0.682-6.436-0.27c-2.222,0.411-4.332,1.235-5.741,2.328
		c-0.411,0.325-0.596,0.759-0.867,1.147c-0.301-0.237-0.488-0.574-0.876-0.736c-1.571-0.703-3.835-0.942-6.101-0.778
		c-2.264,0.162-4.518,0.724-6.032,1.885c-0.771,0.585-1.354,1.321-1.582,2.231c-0.013,0.063,0.011,0.14,0,0.205
		c-0.51-0.292-0.965-0.617-1.647-0.747c-2.016-0.379-4.658-0.163-7.107,0.507c-2.437,0.673-4.69,1.769-5.872,3.37
		c-0.519,0.727-0.769,1.571-0.704,2.469c-0.401-0.13-0.714-0.379-1.171-0.443c-2.068-0.261-4.604,0.194-6.879,1.019
		c-2.263,0.824-4.277,2.004-5.329,3.51c-0.368,0.532-0.554,1.148-0.607,1.755c-0.661-0.281-1.333-0.563-2.111-0.606
		c-2.124-0.13-4.55,0.487-6.674,1.517c-2.125,1.03-3.965,2.438-4.768,4.085c-0.194,0.4-0.313,0.822-0.368,1.244
		c-0.779-0.131-1.592-0.184-2.405-0.064c-0.682,0.107,0.608-2.352,1.874-4.658c0.868-1.117,1.582-2.197,2.612-3.413
		c0.292-0.064,0.476-0.347,0.411-0.64c-0.076-0.281-0.392-0.477-0.672-0.399c-0.077,0.011-0.141,0.031-0.205,0.064
		c-5.19,2.471-9.522,8.83-12.61,16.132c-3.088,7.312-4.896,15.579-4.8,21.98v0.065c0.726,6.216,3.043,9.262,4.432,12.154
		c1.375,2.882,1.95,5.611-0.509,11.774c0,0.011,0.011,0.023,0,0.033c-1.571,3.15-1.787,3.986-6.132,6.142
		c4.821-9.923-10.389-15.86-27.104-6.511c-0.195,0.077-0.315,0.261-0.337,0.478c-0.012,0.206,0.087,0.398,0.271,0.498
		c0.186,0.108,0.4,0.087,0.573-0.031c1.203-0.249,1.962-0.271,3.045-0.466c2.144,4.02-6.804,12.619-12.371,20.647
		c-2.936,4.249-10.856,15.104-10.867,20.228c-0.011,5.123,1.256,7.562,5.265,7.496c1.052-0.022,2.989,0.086,5.298-0.41
		c2.307-0.501,5.731-1.789,7.821-1.789c2.046,0,3.336,0.163,5.362,1.82c-0.586,0.239-4.787,7.648-2.112,10.531
		c-0.206,0.52-2.166,0.768-2.751,0.778c-1.183,0.022-4.323-1.331-6.101-1.927c-3.573-1.183-5.167-2.125-8.895-2.059
		c-3.835,0.075-9.685,1.646-13.887,3.107c-4.193,1.462-7.897,2.546-17.139,2.839c-1.17,0.031-2.47-0.239-3.618-0.542
		c1.527-2.394,2.459-3.066,2.545-3.076c0.099,0,0.12-0.013,0.239-0.034c0.217,0,0.423-0.14,0.499-0.335
		c0.086-0.195,0.022-0.422-0.13-0.574c-0.152-0.151-0.369-0.206-0.575-0.132c0.077-0.021-0.021-0.01-0.097,0
		c-0.076,0-0.194-0.01-0.336,0c-0.271,0-0.65,0.023-1.104,0.033c-0.91,0.011-9.62,1.593-13.088,3.478
		c-3.455,1.884-5.372,6.295-8.581,6.24c-1.809-0.023-2.512,0.021-4.095-1.183c1.507-7.203-3.65-9.327-1.344-11.169
		c2.427,0.325,11.483,1.484,19.955-3.887c0.186-0.088,0.314-0.261,0.303-0.466c0-0.207-0.118-0.423-0.303-0.511
		c-0.173-0.085-0.4-0.054-0.562,0.064c-4.768,3.024-8.213-2.532-11.938-2.22c-6.468,0.53-5.004,1.702-8.895,1.647
		c-2.016-0.022-4.398-1.008-4.896-1.949c1.333-2.85,3.554-6.804,2.352-8.98c0.812-1.074,1.982-1.247,4.096-1.247
		c1.875,0.023,2.795,1.757,5.731,3.001c10.422,5.352,7.344,1.127,15.328,4.052c0.261,0.152,0.585,0.054,0.736-0.205
		c0.152-0.261,0.26-1.409-0.736-1.484c-8.98-1.312-11.494-4.973-13.519-6.988c-0.641-0.628-2.145-1.062-3.759-1.387
		c-4.335-4.009-4.335-7.573-3.922-7.833c0.713-0.434,3.055-3.585,2.588-4.354c0.953-1.105,1.646-0.76,2.914-0.878
		c4.41,0.11,9.023,6.794,7.746,9.359c-0.076,0.141,3.825,3.705,6.208,6.608c1.876,2.288,5.796,6.987,10.931,6.047
		c0.065,0.13,0.131,0.26,0.271,0.302c0.186,0.054,0.401,0.012,0.542-0.13c9.752-8.841,16.814-23.054,21.495-35.686
		c2.339-6.315,4.083-12.251,5.23-16.909c1.149-4.657,1.713-7.953,1.713-9.35c-0.011-7.096-1.668-18.374-1.507-29.334
		c0.141-10.045,1.907-19.697,7.573-25.655c1.388-0.271,2.828-0.649,4.257-1.181c3.619-1.321,7.161-3.597,9.967-6.75
		c0.108,0.835,0.26,1.725,0.542,2.668c0.608,2.123,1.637,4.451,3.044,6.683c2.806,4.419,7.15,8.438,12.816,9.283h0.032
		c0.042,0.013,0.086,0.033,0.131,0.033c0.292,0.086,0.596-0.076,0.671-0.367c0.021-0.056-0.066-0.077-0.066-0.132
		c0-0.022-0.032-0.022-0.032-0.043c-0.021-0.206-0.054-0.445-0.27-0.5c-0.055-0.03-0.108-0.042-0.162-0.075
		c-0.76-0.119-1.191-0.435-1.517-0.91c-0.314-0.466-0.509-1.138-0.531-1.993c-0.056-1.69,0.521-3.964,1.376-6.306
		c0.661-1.819,1.526-3.531,2.351-5.167c1.636,3.544,4.074,7.346,8.017,9.795c4.572,2.836,10.876,3.672,18.98,0.097
		c0.021-0.012,0.043,0.01,0.065,0c0.065-0.022,0.108-0.042,0.173-0.065c0.098-0.065,0.086-0.206,0.131-0.305
		c0.064-0.064,0.175-0.052,0.206-0.138c0.021-0.077-0.066-0.132-0.077-0.196c0-0.01-0.021,0.012-0.032,0
		c-0.021-0.162-0.011-0.357-0.162-0.444c-6.046-2.903-7.756-6.488-7.92-9.954c-0.085-1.876,0.283-3.665,0.77-5.332
		c3.24,3.662,7.116,6.543,10.572,7.865c1.907,0.726,3.674,1.019,5.126,0.704c0.725-0.151,1.298-0.531,1.775-1.05
		c0.216,0.748,0.487,1.386,0.878,1.896c0.389,0.509,0.93,0.821,1.537,1.052c0.076,1.167-0.141,2.067-0.639,2.589
		c-0.629,0.67-1.582,0.896-2.481,0.714h-0.033h-0.031h-0.031h-0.066l-0.064,0.031h-0.032c-0.031,0.011-0.055,0.023-0.075,0.031
		c-0.044,0.044-0.099,0.086-0.131,0.142c-0.023,0.01-0.044,0.043-0.066,0.064l-0.032,0.064c-0.053,0.109-0.065,0.229-0.031,0.336
		v0.034c0,0.021,0.012,0.053,0.031,0.074v0.033l0.032,0.064c0.078,0.108,0.217,0.108,0.304,0.205
		c0.012,0.013,0.012,0.044,0.031,0.067c0.38,0.444,0.834,0.767,1.345,0.975c0.186,0.077,0.368,0.121,0.562,0.173
		c0.208,0.045,0.402,0.153,0.608,0.165c0.163,0.021,0.302-0.131,0.464-0.131c0.315,0,0.599,0.119,0.911,0.064
		c1.613-0.249,3.314-1.127,4.756-2.297c1.452-1.171,2.633-2.621,3.261-4.183c0.617-1.57,0.628-3.305-0.434-4.689
		c-0.056-0.064-0.141-0.032-0.205-0.064c0.173-1.237,0.238-2.611,0.131-4.16c0.551-1.625,1.775-3.683,3.789-5.765
		c2.2-2.274,5.191-4.55,8.689-6.219c6.663-3.174,15.232-4.083,24.289,0.607c0.14,0.142,0.291,0.348,0.434,0.476
		c0.747,0.673,1.516,0.999,2.275,1.421c0.205,1.364-0.066,2.209-0.673,2.664c-0.637,0.487-1.667,0.629-2.578,0.477
		c-0.042-0.011-0.085,0-0.129,0c-0.055-0.011-0.119-0.011-0.174,0c-0.109,0.011-0.217,0.055-0.304,0.131
		c-0.054,0.054-0.098,0.13-0.131,0.205v0.033c-0.031,0.119-0.021,0.249,0.033,0.367v0.033l0.032,0.034v0.03h0.032
		c0.065,0.087,0.139,0.131,0.205,0.207c0.38,0.487,0.833,0.845,1.344,1.115c0.206,0.12,0.412,0.185,0.628,0.271
		c0.283,0.098,0.553,0.152,0.846,0.205c0.303,0.055,0.586,0.218,0.897,0.23c1.518,0.064,3.1-0.436,4.431-1.215
		c1.345-0.781,2.482-1.864,3.023-3.174c0.337-0.813,0.303-1.721,0.065-2.633c0.26-0.693,0.304-1.485,0.065-2.395
		c-0.193-0.736-0.736-1.679-1.202-2.601c-0.022-1.137,0.086-2.242,0.228-3.336c1.82-5.557,4.712-8.895,8.526-10.875
		c4.182-2.178,9.544-2.796,15.525-2.698c20.322,0.347,34.287,4.907,45.379,9.382c11.094,4.475,19.348,9.034,28.274,8.851
		c8.407-0.173,16.153-2.168,21.906-6.446c5.752-4.289,9.393-10.963,9.393-19.846c0-3.304-1.074-6.153-2.493-8.785
		c-2.643-4.919-7.041-8.646-11.667-10.324c-1.776-0.639-3.563-1.007-5.297-1.051c-1.733-0.033-3.404,0.26-4.896,0.985
		c-2.989,1.441-4.983,4.713-4.962,9.208c0.021,4.722,3.997,8.266,8.516,8.341c4.419,0.077,9.143-3.326,11.407-10.768
		c1.657,1.44,3.132,3.196,4.225,5.167c-0.965,7.128-4.247,11.332-8.223,13.976c-4.042,2.686-8.874,3.661-12.438,3.845
		c-9.348,0.466-19.782-9.024-19.696-22.285C437.417,188.134,447.622,177.94,463.635,177.984L463.635,177.984z M140.877,178.991
		c4.973,4.529,0.098,7.887,0.899,13.033c3.466,21.125,12.413,23.735,13.888,32.911c4.918,30.571,18.545,45.143,19.49,46.172
		c0.454,0.757,1.029,1.342,1.775,1.657c-0.314,2.406,0.271,6.163,1.571,9.685c1.234,3.327,3.119,6.359,5.675,7.67v0.032
		c0.099,2.752,1.117,6.121,2.785,9.014c1.613,2.817,3.879,5.168,6.565,5.904c0.985,1.062,1.624,1.506,2.523,2.426
		c2.198,4.994-12.816,10.455-19.294,12.395c-2.307,6.608-10.01,11.929-15.794,11.808c-4.279-0.085-4.604-0.845-7.236-2.188
		c9.306-1.702,12.848-1.387,12.437-23.088c0-0.464-0.021-0.845-0.032-1.115c-0.011-0.14-0.022-0.248-0.031-0.337
		c0-0.043,0.01-0.064,0-0.107c-0.012-0.032-0.022-0.055-0.066-0.162c-0.076-0.239-0.292-0.393-0.542-0.38
		c-0.162,0.021-0.302,0.099-0.399,0.238c-0.087,0.142-0.12,0.315-0.065,0.478v0.032v0.031c-4.453,13.338-16.868-38.197-19.49-56.939
		c-0.617-4.432,4.104-13.92,3.619-19.077c0.186-0.152-1.073-0.304-1.17-0.195c-0.357,2.242-1.332,4.799-2.384,7.324
		c-0.011,0.01-0.011,0.021-0.031,0.03c-0.292,0.196-0.672,0.434-1.073,0.781c-0.802,0.684-1.755,1.69-2.611,3.034
		c-1.732,2.686-3.771,4.278-1.345,10.702c0.911,2.362-3.357,6.747-4.993,7.692c0.13-3.826-6.186-5.005-7.313-4.42
		c-0.574-4.192,1.279-9.566,4.15-12.014c3.271-3.283,5.86-13.92,3.824-18.806c-0.163-0.53-0.693-0.856-1.235-0.738
		c-0.304,0.054-0.586,0.261-0.736,0.532c-0.153,0.281-0.174,0.585-0.066,0.877c0.401,0.671,0.542,1.592,0.597,2.601
		c0,0.01,0.011,0.033,0,0.043c-1.474,1.258-4.995-5.655-2.005-7.734c0.554,0.076,1.245,0.27,1.604,0.205
		c0.585-0.119,0.985-0.693,0.876-1.288c-0.118-0.586-0.692-0.955-1.278-0.846c-1.938,0.39-7.94-1.668-11.602-3.977
		c-10.683,3.619-12.665,3.121-15.666-0.476c1.81-2.351,0.261-6.261,0.239-6.542c2.068-1.777,3.952-1.961,6.098-1.529
		c1.116,0.229,4.345,1.106,6.307,2.979c3.79-1.365,9.967,1.637,10.801,4.389c0.086,0.356,0.368,0.583,0.705,0.703
		c0.031,0.032,0.15,0.304,0.173,0.304c0.4,0.131,0.855-0.021,1.138-0.335c0.282-0.314,0.337-0.758,0.163-1.147
		c-0.716-2.59-3.857-15.34-13.174-15.428h-0.042c0.053,0-4.789-0.964-4.93-6.208c1.701-0.607,5.697-3.576,5.405-6.89
		c0.066,0.021,0.086,0.011,0.163,0.032c4.636,1.312,6.824,6.164,6.848,8.407c1.82,1.277,8.309,3.055,10.03,20.085
		c-0.032,0.423,0.194,0.812,0.563,1.018c0.379,0.194,0.844,0.162,1.181-0.107c0.325-0.261,0.466-0.704,0.368-1.115
		c-0.39-4.15-1.104-7.475-1.982-10.26c0.13-4.723-0.845-7.994-4.159-12.219c-0.023-0.065-0.055-0.141-0.098-0.194
		c-1.668-2.87-1.938-5.818,0.098-8.038C135.829,180.768,140.608,179.068,140.877,178.991L140.877,178.991z M113.003,182.1
		c1.3-0.021,2.59,0.108,3.791,0.336c0.12,0.4,0.066,1.625-0.032,2.469c-0.119,0.175-0.324,0.359-0.476,0.543
		c-2.275-0.39-6.609-2.373-8.277-0.206c-0.249,0.098-0.435,0.261-0.401,0.434c0.033,0.184,0.261,0.313,0.532,0.379
		c0.271,0.054,0.574,0.022,0.768-0.107c1.81-0.466,4.681,0.064,5.406,1.256c-0.26,0.174-0.606,0.337-0.91,0.5
		c-1.972-0.476-4.961-0.922-7.984,0.876C105.388,183.704,109.115,182.176,113.003,182.1L113.003,182.1z M201.881,185.404
		c1.255-0.032,2.859,0.131,4.895,0.444c2.416,0.368,5.113,0.768,7.649,0.607c0.476-0.032,0.888-0.195,1.343-0.271
		c0.802,4.117,0.205,6.533-1.235,7.833c-1.527,1.365-4.085,1.744-6.944,1.624c-2.86-0.13-5.981-0.692-8.624-1.017
		c-0.454-0.055-0.791-0.033-1.202-0.066c-0.423-0.077-0.845-0.162-1.072-0.303c-0.325-0.206-0.488-0.455-0.574-0.78
		c-0.174-0.649,0.055-1.679,0.671-2.795C197.904,188.632,200.082,186.487,201.881,185.404L201.881,185.404z M195.143,196.411
		c1.311,0.054,2.687,0.13,4.766,0.444c2.796,0.423,6.034,0.888,9.023,0.768c0.478-0.011,0.899-0.172,1.365-0.227
		c0.726,5.08-0.151,7.68-1.809,9.045c-1.647,1.353-4.269,1.57-7.28,1.343c-3.001-0.217-6.306-0.812-9.252-0.877
		c-0.703-0.01-1.288,0.174-1.948,0.238c-0.066-0.011-0.131-0.054-0.195-0.064c-0.173-0.021-0.357,0.032-0.542,0.032
		c-0.239-0.172-0.445-0.346-0.531-0.638c-0.238-0.758,0-2.102,0.704-3.542C190.635,200.452,193.008,197.884,195.143,196.411
		L195.143,196.411z M254.107,198.849c3.641,0.715,6.924,2.601,8.885,5.396c1.853,2.633,2.491,6.046,1.344,10.021
		c-0.313-1.083-0.736-2.004-1.377-2.557c-0.984-0.867-2.242-1.105-3.456-1.051c-1.938,0.098-3.65,0.856-4.723,1.354
		c-0.12-0.487-0.271-0.846-0.369-1.386c-0.174-0.965-0.217-2.232-0.304-3.381c0.564-0.195,1.453-0.303,2.513-0.227
		c2.232,0.141,4.973,0.965,6.273,2.091c0.227,0.162,0.554,0.139,0.735-0.066c0.186-0.216,0.163-0.541-0.031-0.747
		c-3.098-2.697-5.449-3.314-7.106-3.749c-0.834-0.215-1.484-0.399-1.983-0.736c-0.217-0.152-0.38-0.574-0.573-0.813
		C253.945,201.697,254.011,200.333,254.107,198.849L254.107,198.849z M284.765,203.399c0.229,0.033,0.628,0.205,1.073,0.748
		c0.454,0.552,0.932,1.397,1.44,2.426c0.997,2.069,2.049,4.929,2.979,8.006c1.876,6.132,3.413,13.163,3.965,16.673
		c1.885,11.992,1.95,19.76,2.449,24.569c0.043,0.488,0.142,0.824,0.195,1.246c-0.802,0.508-1.776,0.736-2.98,0.54
		c-1.507-0.238-3.217-0.995-4.928-2.059c-3.349-2.056-6.544-5.316-7.953-7.993c-0.011-0.1-0.011-0.196-0.064-0.271
		c-0.12-0.153-0.292-0.229-0.478-0.205h-0.032c-0.022,0-0.031-0.033-0.064-0.033c-0.261-0.009-0.488,0.184-0.542,0.433
		c-0.033,0.173-0.033,0.173-0.066,0.304c-2.502,2.913-3.791,5.611-4.051,8.005c-0.282,2.536,0.509,4.713,1.776,6.48
		c1.267,1.766,3.001,3.143,4.69,4.084c0.931,0.52,1.646,0.629,2.448,0.879c-3.261,0.443-7.27,0.983-11.17-0.165
		c-4.614-1.363-8.882-5.038-10.8-14.386c0-0.021-0.055,0-0.065-0.032c0.022-0.119,0.131-0.228,0.065-0.338
		c-0.109-0.205-0.336-0.303-0.563-0.27c-0.107,0.022-0.194,0.064-0.271,0.141c-0.022,0.01-0.043,0.043-0.065,0.064
		c-4.073,3.153-6.685,8.104-7.55,12.448c-0.435,2.199-0.444,4.225,0.098,5.851c0.043,0.107,0.162,0.151,0.205,0.259
		c-4.129-2.415-6.695-5.405-8.115-8.775c-1.732-4.095-1.799-8.762-1.181-13.53c0.131-0.161,0.228-0.303,0.303-0.399
		c0.055-0.054,0.098-0.087,0.142-0.142c0.053-0.076,0.107-0.142,0.129-0.174c0.012-0.01,0-0.031,0-0.031
		c0.033-0.033,0.077-0.056,0.098-0.098c0.022-0.021,0.031-0.009,0.076-0.174c0-0.011,0.033-0.064,0.033-0.064v-0.131l-0.109-0.238
		l-0.227-0.172l-0.239-0.066l-0.131,0.033c0,0-0.076,0.053-0.107,0.064c-0.098,0.064-0.108,0.055-0.131,0.076
		c-0.021,0-0.044-0.043-0.065-0.032c-0.174,0.011-0.324,0.119-0.401,0.261c-1.635,2.784-5.784,7.106-10.94,10.032
		c-4.614,2.62-9.978,3.952-15.058,2.428c3.13-10.338,8.743-16.771,14.798-20.358c5.807-3.433,11.863-4.278,16.324-3.846
		c0,0.034-0.021,0.043-0.031,0.066c-0.693,2.535-1.062,5.915-1.104,9.76v0.031v0.064c-0.021,0.304,0.206,0.554,0.499,0.574
		c0.303,0.022,0.553-0.205,0.573-0.508v-0.064c0.021-0.043,0.099-0.021,0.099-0.065c0.606-3.108,2.988-7.095,5.838-9.922
		c1.431-1.419,2.97-2.545,4.432-3.174c1.115-0.476,2.135-0.542,3.088-0.368c-0.108,0.976-0.261,1.776-0.304,2.904
		c-0.205,4.505-0.097,9.868-0.14,13.703v0.132c0,0.27,0.185,0.485,0.444,0.541h0.032c0.011,0,0.011,0.031,0.032,0.031
		c0.13,0.013,0.163-0.13,0.271-0.193c0.086-0.067,0.217-0.067,0.26-0.174c0.011-0.023,0-0.044,0-0.066
		c0.011-0.021,0.032-0.021,0.032-0.032c0.011-0.031,0-0.076,0-0.106c1.82-7.899,3.759-14.658,5.601-18.937
		c0.931-2.157,1.873-3.695,2.653-4.388c0.391-0.347,0.705-0.477,0.976-0.467c0.216,0,0.465,0.164,0.737,0.402
		c0.011,0.043,0.011,0.065,0.031,0.131c0.108,0.326,0.229,0.867,0.337,1.527c0.217,1.3,0.454,3.121,0.64,5.157
		c0.368,4.072,0.662,8.937,0.931,12.219c0.011,0.021,0,0.054,0,0.076c0.011,0.292,0.248,0.53,0.541,0.53
		c0.295,0,0.532-0.238,0.543-0.53c0-0.032-0.011-0.055,0-0.076c0.433-10.52,2.545-21.526,4.658-29.769
		c1.051-4.128,2.136-7.595,2.946-9.925C284.505,204.026,284.602,203.799,284.765,203.399L284.765,203.399z M105.453,206.367
		c0.216,0.562,0.281,0.758,0.444,1.625c-1.3,0.098-2.893,0.444-4.096,1.886c-0.13,0.129-0.186,0.303-0.13,0.476
		c0.042,0.172,0.184,0.314,0.367,0.336c0.175,0.032,0.369-0.054,0.466-0.195c0.878-1.062,2.318-1.008,3.456-0.813
		c-0.011,0.834-0.261,1.646-0.639,2.491c-1.29-0.249-3.108-0.324-4.593,1.832C99.495,208.761,103.157,206.811,105.453,206.367
		L105.453,206.367z M189.443,209.303c1.408-0.13,2.927-0.076,4.497,0.077c3.131,0.281,6.434,0.953,9.425,1.039
		c0.976,0.032,1.875-0.14,2.783-0.27c0.671,5.318-0.325,8.276-2.221,9.967c-1.919,1.701-4.896,2.188-8.211,2.222
		c-3.327,0.042-6.924-0.37-10.098-0.271c-1.474,0.043-2.85,0.227-4.062,0.606c-0.391-0.151-0.606-0.4-0.703-0.91
		c-0.195-1.083,0.379-3.174,1.516-5.296c1.126-2.124,2.74-4.334,4.387-5.871c0.423-0.4,0.823-0.585,1.246-0.877
		C188.489,209.606,188.911,209.357,189.443,209.303L189.443,209.303z M407.346,212.922c0.334,0.064,0.82,0.27,1.114,0.303
		c-0.152,0.564-0.434,1.214-0.845,1.756c-0.087,0.108-0.206,0.129-0.303,0.239c0.174-0.455,0.271-0.933,0.238-1.387
		C407.529,213.495,407.419,213.235,407.346,212.922z M203.223,223.69c1.431,5.004,0.835,7.896-0.93,9.685
		c-1.842,1.864-5.06,2.675-8.688,3.142c-3.64,0.465-7.648,0.606-11.073,1.419c-1.407,0.325-2.644,0.898-3.791,1.549
		c-0.205-0.162-0.444-0.271-0.606-0.606c-0.499-1.104-0.597-3.066-0.337-5.167c0.271-2.102,0.868-4.356,1.614-6.079
		c0.378-0.855,0.768-1.613,1.169-2.123c0.174-0.215,0.283-0.206,0.445-0.336c2.015-0.531,4.312-0.791,6.869-0.748
		c3.519,0.064,7.301,0.379,10.703,0.141C200.255,224.448,201.815,224.176,203.223,223.69L203.223,223.69z M200.949,237.426
		c1.354,2.395,2.124,4.376,2.341,5.903c0.239,1.626-0.043,2.764-0.705,3.684c-1.321,1.831-4.365,2.784-8.049,3.401
		c-3.674,0.631-7.93,0.977-11.57,1.93c-1.928,0.509-3.683,1.236-5.092,2.265c-0.271-0.152-0.554-0.283-0.736-0.64
		c-0.509-0.976-0.617-2.763-0.379-4.691c0.248-1.938,0.844-4.007,1.582-5.609c0.368-0.803,0.747-1.475,1.138-1.952
		c0.228-0.27,0.399-0.312,0.606-0.443c1.268-0.476,2.621-0.89,4.16-1.148c3.607-0.606,7.746-0.748,11.504-1.345
		C197.601,238.477,199.378,238.065,200.949,237.426L200.949,237.426z M351.542,243.905c-0.031,1.775-1.171,3.021-2.655,3.574
		c-0.779,0.293-1.591,0.347-2.382,0.205c-0.109-0.021-0.217-0.063-0.337-0.098c-0.217-0.064-0.367-0.249-0.562-0.335
		c1.549-0.013,2.87-0.412,3.651-1.226c0.553-0.562,0.909-1.223,1.138-1.786c0.032-0.054,0.021-0.076,0.042-0.13
		C350.794,244.11,351.174,243.98,351.542,243.905L351.542,243.905z M202.119,251.465c1.321,1.593,2.133,3.011,2.448,4.226
		c0.337,1.278,0.216,2.316-0.271,3.305c-0.975,1.971-3.52,3.628-6.771,5.057c-3.251,1.431-7.149,2.687-10.734,3.988
		c-1.962,0.716-3.782,1.472-5.396,2.297c-1.853-0.401-3.109-1.408-3.889-2.838c-0.834-1.507-1.127-3.454-1.04-5.329
		c0.076-1.875,0.562-3.684,1.268-4.93c0.086-0.15,0.185-0.205,0.271-0.337c1.7-1.062,3.933-1.688,6.479-2.089
		c3.705-0.596,7.962-0.727,11.732-1.387C198.415,253.037,200.439,252.418,202.119,251.465z M129.004,256.698
		c0.586,0.196,1.192,0.466,1.81,0.749c-0.703,1.182-1.798,2.795-3.423,2.763c-0.205-0.022-0.422,0.064-0.531,0.238
		c-0.118,0.173-0.107,0.433,0,0.608c0.109,0.174,0.326,0.259,0.531,0.239c2.102,0.03,3.911-1.767,5.07-2.97
		c0.725,0.423,1.354,0.834,1.842,1.278c-1.973,1.8-6.446,4.788-10.932,0.477C126.264,260.392,128.106,258.138,129.004,256.698
		L129.004,256.698z M304.243,261.726c0,1.896-1.181,3.511-2.707,4.387c-0.749,0.435-2.092,0.53-1.854,0.445
		c0.921-0.336,1.57-0.976,2.047-1.658c0.476-0.684,0.768-1.42,0.941-2.058c0.076-0.261,0.056-0.392,0.099-0.607
		C303.334,262.158,303.779,261.932,304.243,261.726L304.243,261.726z M364.119,262.104c3.662-0.174,7.14,1.613,8.05,4.085
		c-0.011,0.149-0.023,0.302-0.033,0.53c-0.042,0.628-0.107,1.495-0.173,2.536c-0.13,2.079-0.325,4.81-0.497,7.528
		c-0.327,4.896-0.588,8.828-0.642,9.751c-4.7,3.53-8.73,0.173-10.062-2.634c-0.175-0.931-0.877-4.604-1.745-9.24
		c-0.477-2.6-0.942-5.22-1.312-7.193c-0.14-0.802-0.271-1.406-0.367-1.961C359.158,263.242,361.65,262.213,364.119,262.104
		L364.119,262.104z M349.397,263.145c1.961,0.042,3.867,0.844,5.265,2.632c0.097,0.584,0.239,1.298,0.4,2.198
		c0.356,1.973,0.855,4.582,1.344,7.184c0.875,4.765,1.604,8.719,1.745,9.49c-1.376,2.307-8.484,4.028-11.073,0.542
		c-0.013-0.077,0.054-0.142,0.032-0.207l-4.726-19.067C343.418,264.552,346.386,263.09,349.397,263.145L349.397,263.145z
		 M203.658,264.088c2.61,1.604,4.387,3.097,5.47,4.463c1.094,1.366,1.495,2.589,1.442,3.704c-0.109,2.254-2.188,4.411-5.298,6.414
		c-3.109,2.016-7.129,3.869-10.899,5.644c-1.841,0.869-3.532,1.713-5.069,2.566c-1.83,0.338-3.434-0.084-4.788-1.145
		c-1.461-1.138-2.665-2.936-3.456-4.865c-0.791-1.929-1.19-3.997-1.138-5.71c0.034-1.148,0.325-1.983,0.737-2.634
		c6.555-2.814,14.571-4.224,20.29-6.781C201.989,265.278,202.79,264.672,203.658,264.088L203.658,264.088z M334.199,264.932
		c1.842-0.141,3.791,0.39,5.569,1.722l4.593,18.328c-1.322,3.412-6.988,4.54-9.284,3.176l-6.912-18.971
		C327.907,267.466,330.742,265.213,334.199,264.932z M377.835,265.267c3.867,0.174,9.479,4.139,9.426,7.53l-4.691,18.569
		c-0.9,2.307-7.778,1.419-9.132-3.543c0-0.012,0.013-0.022,0-0.032c0,0,0.347-5.363,0.704-10.801
		c0.186-2.73,0.369-5.482,0.509-7.562c0.064-1.039,0.098-1.905,0.131-2.534c0.01-0.142,0.022-0.217,0.032-0.336
		C375.451,265.603,376.546,265.213,377.835,265.267L377.835,265.267z M322.964,268.821c0.975,0,1.787,0.281,2.481,0.704
		l7.148,19.608c-0.769,2.448-9.154,7.02-11.44,4.463l-7.117-19.717C314.308,271.464,319.238,268.811,322.964,268.821z
		 M392.827,272.797c3.889,0,8.438,3.5,8.385,8.774l-7.409,18.503c-2.645,1.073-8.982-1.517-9.059-6.445l4.994-19.781
		C390.629,273.197,391.68,272.797,392.827,272.797L392.827,272.797z M308.274,274.01c1.128-0.032,2.244,0.367,3.315,1.082
		l6.911,19.209c-0.835,3.65-7.919,7.952-10.801,4.755l-8.146-18.634c0.041-0.075,0.076-0.367,0.129-0.26
		C299.878,278.668,304.016,274.162,308.274,274.01z M211.48,277.184c3.922,2.437,5.308,4.983,5.167,7.561
		c-0.153,2.621-1.938,5.427-4.562,8.038c-4.128,4.096-9.88,7.291-14.527,9.447c-1.093,0-2.33-0.413-3.585-1.312
		c-1.464-1.049-2.882-2.557-3.998-4.191c-1.116-1.626-1.906-3.382-2.178-4.789c-0.131-0.704-0.131-1.31,0-1.787
		c0.108-0.368,0.347-0.596,0.607-0.812c6.619-2.99,14.766-5.589,20.021-9.251C209.68,279.221,210.645,278.232,211.48,277.184
		L211.48,277.184z M294.558,280.564c1.063-0.151,2.016,0.021,2.852,0.399l8.447,19.316c0.163,5.049-9.858,9.751-12.143,7.594
		l-7.572-21.104C286.012,284.682,290.637,281.128,294.558,280.564z M406.478,282.287c3.717,0.108,8.763,2.46,8.592,5.903
		l-7.216,19.543c-3.738,2.829-11.495-3.759-11.713-6.378l7.39-18.299C404.225,282.537,405.22,282.245,406.478,282.287
		L406.478,282.287z M279.998,286.133c1.202-0.393,2.611-0.033,4.128,1.418l7.614,21.126c-0.205,2.209-8.567,8.146-12.988,5.535
		c-0.975-2.406-4.733-11.029-5.634-16.705c0.466-1.853,1.02-3.663,1.68-5.233c0.661-1.56,1.354-2.556,2.015-3.846
		C277.573,287.66,278.666,286.566,279.998,286.133L279.998,286.133z M359.624,288.938c0.031,0.031,0.031,0.131,0.064,0.162
		c0.196,1.593,9.554,3.381,10.671,3.174c-0.694,2.006,5.297,5.927,8.58,7.193c0.909,1.183,0.888,3.608,0.769,4.93
		c-0.303,3.379,0.746,7.682,5.569,10.769c3.141,1.982,13.736,5.687,13.789,14.235c0.031,6.153-4.863,8.654-7.073,10.063
		c1.931-3.641-0.098-7.388-4.191-8.104c-2.853-0.433-10.033-0.888-16.208-0.303c-0.597,0.054-1.03,0.585-0.977,1.181
		c0.056,0.597,0.586,1.04,1.183,0.985c2.729,0.563,4.062,0.412,3.649,2.796c-0.01,0.075,0.066,0.107,0.066,0.172
		c-9.814,7.725-30.995,27.639-31.559,35.2c-0.163,2.133,2.036,4.43,4.93,4.192c0.187-0.023,10.336-4.983,14.627-1.149
		c-2.342,2.353-0.585,7.812-0.639,8.071c-5.438,3.922-11.776-1.646-22.274-1.723c-10.508-0.085-19.101,6.771-25.893,6.912
		c-0.887,0.021-1.321-0.151-1.842-0.304c0.607-0.812,1.094-1.646,1.138-1.646c0.099-0.012,0.661-0.347,0.779-0.379
		c0.207,0,0.38-0.131,0.467-0.338c0.075-0.192,0.043-0.423-0.098-0.572c-0.151-0.151-0.378-0.206-0.573-0.131
		c0.065-0.011-0.022-0.011-0.097,0c-0.087,0-0.206-0.011-0.337,0c-0.281,0.011-4.724,1.138-5.969,1.147
		c-2.513,0.012-7.984,1.865-11.44,3.749c-2.341,0.953-6.848,6.065-13.748,4.517c0.814-2.924-0.292-6.692-2.491-9.89
		c0.4-0.043,1.084-0.996,1.452-1.787c10.216-1.713,9.154,3.51,11.537-0.303c1.538-2.47,2.353,4.115,15.025-6.415
		c0.175-0.095,0.272-0.271,0.261-0.476c0-0.195-0.119-0.38-0.303-0.465c-0.174-0.099-0.368-0.088-0.53,0.03
		c-15.209,6.264-10.683,1.918-17.507,2.232c-6.479,0.292-4.734,1.799-8.624,1.754c-2.016-0.03-4.235-1.829-4.724-2.772
		c1.614-0.38,1.7-5.547,0.5-7.725c0.812-1.071,3.249-1.526,5.362-1.526c5.785,0,8.026,5.243,14.127,5.871
		c4.364-0.011,8.362-3.607,11.97-1.214c0.261,0.151,0.598,0.064,0.737-0.194c0.12-0.217,0-0.445-0.163-0.607
		c26.444,0.866,45.988-56.95,41.817-63.188c0.011-0.176-0.066-0.338-0.195-0.446c-0.042-0.03-0.085-0.01-0.142-0.03
		c-0.52-1.756-1.592-4.086-4.321-5.028c-0.022-0.042-0.01-0.204-0.032-0.238c-0.713-0.823-2.014-5.968-7.409-6.684
		c0.292-1.321,0.465-2.299,0.53-2.967c2.74-0.652,5.688-1.67,6.338-2.506C347.685,291.171,360.035,290.867,359.624,288.938
		L359.624,288.938z M419.185,289.915c3.489,0.021,8.309,2.967,8.721,5.902l-5.968,15.567c-2.741,3.229-9.492,0.878-10.434-0.043
		c-0.683-0.661-0.942-1.83-1.04-3.032l6.305-17.519C417.41,290.249,418.189,289.902,419.185,289.915z M216.073,291.636
		c-0.055,0.79-0.152,1.613-0.206,2.394c-0.271,4.735-0.315,8.981-0.401,12.968c0,0.01-0.031-0.012-0.031,0v0.031
		c-0.791,2.871-1.972,4.627-3.314,5.537c-1.354,0.909-2.893,1.007-4.562,0.464c-3.161-1.018-6.639-4.538-9.088-9.208
		c6.488-2.198,13.033-6.304,16.997-11.212C215.724,292.297,215.832,291.962,216.073,291.636z M336.116,292.718
		c-0.542,7.119-11.937,15.6-16.336,15.461c-0.012-0.012-0.031-0.031-0.031-0.043c-0.813-0.684-1.811-1.149-2.481-1.95
		C315.586,303.303,332.508,293.683,336.116,292.718L336.116,292.718z M382.157,297.139c0.044,0.064,0.098,0.132,0.14,0.194
		c-0.085,0.031-0.173,0.076-0.27,0.108C382.091,297.301,382.091,297.271,382.157,297.139z M339.604,297.572
		c4.484,0.412,6.057,5.731,4.627,6.479c0.194,0.271-4.115,10.055-8.926,12.566c-1.625,0.846-3.825,0.423-5.168,0.227
		c-2.479-1.007-5.244-3.52-6.1-6.142c1.234-2.298,7.791-4.453,13.457-12.956C338.249,297.572,338.953,297.519,339.604,297.572
		L339.604,297.572z M430.159,297.747c3.132-0.715,9.361,2.729,9.653,7.421l-3.554,9.76c-2.166,1.593-11.958,1.777-12.068-2.026
		l5.635-14.949C429.953,297.897,430.018,297.778,430.159,297.747z M272.049,305.405c1.905-1.062,3.909,6.848,4.765,9.35
		l-0.031,0.032c0.021,0.443-3.391,9.76-5.74-3.542c0.064-0.791,0.379-3.219,0.64-5.33
		C271.798,305.762,271.929,305.469,272.049,305.405z M347.013,306.185c0.553,0.736,2.047,0.812,2.547,3.142
		c-0.563,3.782-1.604,8.299-3.217,13.259c-2.298,0.922-6.308-0.508-8.69-1.884c-0.443-0.596-0.801-1.268-0.432-2.136
		c5.263-3.51,7.831-9.761,8.72-12.013C346.375,306.208,346.797,305.892,347.013,306.185z M441.491,307.798
		c1.991-0.271,7.68,3.847,8.32,9.188l0.13,0.337c-0.942,3.185-8.915,2.479-11.17-1.517L441.491,307.798z M215.271,311.754
		c-0.056,2.198-0.163,3.878-0.272,5.364c-0.616-0.564-1.061-1.28-1.374-2.092c0.042-0.053,0.096-0.076,0.13-0.129
		C214.327,314.061,214.825,312.999,215.271,311.754L215.271,311.754z M289.889,352.464c1.507,0.021,1.983,0.325,3.423,1.755
		c1.453,1.42,2.471,3.825,5.137,6.512c2.414,2.426,8.979,5.903,12.848,6.922c-1.354,0.444-2.754,0.748-4.161,0.976
		c-3.649-1.127-8.026,1.58-14.061-3.574c-0.845-0.705-3.077-1.224-5.299-1.592c-1.255-1.021-4.657-3.62-4.289-3.848
		c1.626-2.619,3.457-5.21,2.99-5.968C287.191,352.704,288.395,352.432,289.889,352.464L289.889,352.464z M280.303,353.169
		c1.592-0.337,3.282,0.142,4.561,0.815c-0.185,0.344-0.346,0.68-0.508,1.038c-1.04-0.64-2.33-1.161-4.691-0.607
		c-0.228,0.03-0.4,0.152-0.465,0.336c-0.066,0.187,0,0.412,0.163,0.541c0.162,0.132,0.399,0.142,0.606,0.065
		c1.919-0.444,2.806,0.314,3.683,1.084c-0.174,0.401-0.379,0.705-0.562,1.021c-1.138-0.846-5.384-3.6-6.511,0.705
		C276.749,355.022,278.397,353.569,280.303,353.169z M427.505,355.26c1.722,0.162,2.947,0.886,3.729,1.418
		c0.064,0.303,0.291,0.586,0.237,0.91c-0.021,0.099-0.107,0.206-0.142,0.303c-1.352-0.834-3.682-1.81-6.368-1.182
		c-0.229,0.033-0.4,0.152-0.467,0.336c-0.075,0.186-0.03,0.381,0.131,0.51c0.164,0.132,0.423,0.174,0.64,0.098
		c2.341-0.554,3.727,1.299,4.897,2.231c-0.455,0.487-0.966,0.942-1.442,1.246c-0.802-0.705-5.06-4.345-8.525,0.507
		C422.219,356.202,425.079,355.032,427.505,355.26L427.505,355.26z M159.186,355.834c1.679-0.325,2.871,0.975,3.554,1.854
		c-0.012,0.139-0.13,0.367-0.098,0.41c0.098,0.108,0,0.367-0.064,0.606c-1.029-0.52-2.309-0.769-4.734-0.205
		c-0.217,0.032-0.399,0.151-0.466,0.335c-0.065,0.187,0,0.381,0.162,0.511c0.174,0.13,0.401,0.173,0.608,0.096
		c1.96-0.454,2.665,0.238,3.487,0.986c-0.411,0.573-0.79,0.931-1.104,1.245c-1.31-0.845-4.571-2.633-6.142,0
		C156.142,357.631,157.788,356.104,159.186,355.834L159.186,355.834z M281.613,359.106c0,0.022,0.044,0.077,0.032,0.077
		c-0.043-0.012-0.064,0.03-0.108,0.03C281.558,359.171,281.58,359.137,281.613,359.106z M274.159,367.382
		c0.131,0,0.131,0.021,0.238,0.031c0.261,0.175,0.78,0.356,0.942,0.509c0.249,0.239,0.313,0.628,0.465,0.943
		c-1.506-0.142-3.368-0.055-4.994,1.278c-0.184,0.107-0.26,0.302-0.239,0.508c0.023,0.206,0.174,0.4,0.369,0.478
		c0.194,0.064,0.391,0.011,0.541-0.142c1.626-1.331,3.425-0.293,4.788,0.238c-0.021,0.586-0.131,1.029-0.26,1.613
		c-1.278-1.062-4.453-2.806-7.085,0.206C268.56,367.957,272.166,367.329,274.159,367.382L274.159,367.382z M421.103,372.072
		c0.434,0.012,0.477,0.066,0.803,0.098c0.151,0.662,0.151,1.354,0.063,2.09c-1.526-0.194-3.563-0.163-5.33,1.289
		c-0.172,0.11-0.258,0.325-0.238,0.542c0.032,0.206,0.142,0.368,0.337,0.435c0.193,0.065,0.435,0.011,0.573-0.131
		c1.355-1.115,2.774-0.553,4.031-0.043c-0.131,0.381-0.228,0.726-0.38,1.05c-1.526-0.574-5.678-1.711-6.401,4.02
		C411.526,372.853,417.658,371.943,421.103,372.072L421.103,372.072z M365.722,375.68c0.012,0.011-0.01,0.162,0,0.173
		c3.89,0.088,11.128,5.104,2.288,10.563c2.945-3.793-2.514-5.157-3.152-5.233c-0.033-0.107,0.023-0.26,0-0.368
		c1.288,0.031,2.556-0.617,4.93,1.755c0.139,0.142,0.229,0.336,0.433,0.369c0.206,0.033,0.391-0.065,0.509-0.239
		c0.109-0.174,0.119-0.38,0.033-0.572c-1.094-2.427-4.183-3.585-5.807-3.978C365.116,377.37,365.354,376.579,365.722,375.68
		L365.722,375.68z M154.994,376.525c0.119,0.585,0.107,1.236-0.065,1.961c-1.538-0.239-3.639-0.25-5.471,1.244
		c-0.175,0.108-0.292,0.304-0.261,0.51c0.023,0.207,0.174,0.4,0.368,0.466c0.194,0.076,0.423,0.021,0.563-0.131
		c1.365-1.117,2.795-0.554,4.061-0.032c-0.324,0.748-0.572,1.322-0.909,1.884c-1.387-0.606-3.965-1.514-6.271,0.748
		C147.931,376.817,152.437,376.297,154.994,376.525L154.994,376.525z M514.139,380.752c1.721,0.551,11.343,4.255,3.326,11.602
		c2.026-5.829-3.597-6.393-4.561-6.479c-0.013-0.248,0.021-0.531,0.031-0.812c1.441,0.141,3.348,0.141,4.161,1.992
		c0.053,0.207,0.227,0.346,0.432,0.369c0.206,0.031,0.423-0.054,0.531-0.229c0.119-0.173,0.107-0.399,0-0.572
		c-1.039-2.396-3.282-3.458-4.756-3.857C513.5,382.017,513.716,381.282,514.139,380.752L514.139,380.752z M428.177,385.875
		c0.314,0.563,0.585,1.235,0.801,2.059c-1.439,0.313-3.976,1.408-5.09,3.954c-0.109,0.173-0.121,0.401,0,0.573
		c0.107,0.174,0.324,0.261,0.53,0.238c0.204-0.031,0.378-0.174,0.443-0.38c0.879-1.992,3.066-1.841,4.528-2.025
		c0.021,0.282,0.055,0.563,0.066,0.844c-1.269,0.119-6.946,0.78-4.963,6.447C416.066,389.872,427.301,386.125,428.177,385.875
		L428.177,385.875z M279.825,386.351c0.239,0.411,0.466,0.759,0.672,1.279c-1.473,0.465-3.444,1.452-4.419,3.682
		c-0.108,0.175-0.12,0.401,0,0.575c0.107,0.173,0.324,0.259,0.53,0.239c0.205-0.034,0.38-0.175,0.445-0.381
		c0.813-1.864,2.74-1.853,4.192-1.993c0.174,0.833,0.238,1.623,0.229,2.405c-1.776-0.346-5.765,0.119-7.01,3.435
		C271.007,391.984,275.492,387.305,279.825,386.351z M242.807,387.737c3.934,0.769,11.235,4.159,3.152,11.57
		c2.752-4.096-2.87-5.233-4.333-5.472c-0.141-0.422-0.151-0.899-0.162-1.408c1.571,0.141,4.127,0.087,4.961,1.983
		c0.064,0.206,0.228,0.347,0.434,0.379c0.205,0.022,0.423-0.064,0.542-0.237c0.108-0.175,0.098-0.401,0-0.574
		c-1.038-2.373-3.965-3.674-5.634-4.15C242.028,388.929,242.419,388.247,242.807,387.737L242.807,387.737z M159.219,395.939h0.032
		c0.368,0.628,0.747,0.975,1.039,1.755c-1.407,0.562-3.001,1.527-3.856,3.478c-0.097,0.174-0.076,0.399,0.031,0.572
		c0.119,0.175,0.304,0.261,0.51,0.229c0.206-0.023,0.368-0.175,0.434-0.367c0.682-1.551,2.102-1.779,3.424-1.887
		c0.162,0.812,0.183,1.561,0.063,2.286c-1.841-0.075-5.049,0.25-3.422,4.931C152.414,400.65,156.38,396.101,159.219,395.939
		L159.219,395.939z"/>
</g>
</svg>
